<?xml version="1.0" encoding="utf-8"?>
<!-- Generator: Adobe Illustrator 17.0.0, SVG Export Plug-In . SVG Version: 6.00 Build 0)  -->
<!DOCTYPE svg PUBLIC "-//W3C//DTD SVG 1.1//EN" "http://www.w3.org/Graphics/SVG/1.1/DTD/svg11.dtd">
<svg version="1.1" id="Capa_2" xmlns="http://www.w3.org/2000/svg" xmlns:xlink="http://www.w3.org/1999/xlink" x="0px" y="0px"
	 width="243.8px" height="240.5px" viewBox="0 0 243.8 240.5" style="enable-background:new 0 0 243.8 240.5;" xml:space="preserve"
	>
<style type="text/css">
	.st0{fill:#EABF3B;}
	.st1{fill:#F3D884;}
	.st2{fill:none;}
	.st3{fill:#FFFFFF;}
	.st4{fill:#D58430;}
</style>
<image style="overflow:visible;" width="108" height="679" xlink:href="8081CEC8.jpg"  transform="matrix(0.2236 0 0 0.2394 -51.4032 269.1102)">
</image>
<g>
	<g>
		<g>
			<path class="st0" d="M114.2,124.3h15.5V108h-15.5l-0.5-0.6l-3.8,3.3L77.2,72.8l-17.8,9.6l-0.1,0l-1,0.6c0,18,3,34.3,7.7,48.7
				l41.4,0L114.2,124.3z"/>
			<polygon class="st1" points="135.4,100.5 161.5,70.4 122.2,49.3 122.2,49.3 121.6,48.9 120.9,49.3 120.9,49.3 81.7,70.4 
				107.8,100.5 			"/>
			<path class="st1" d="M105.7,136.6l-38,0c5.1,14.1,11.7,26.3,18.7,36.3l19.4-22.4V136.6z"/>
			<path class="st0" d="M183.7,82.4L183.7,82.4L166,72.8l-27.2,31.4l-1.4-1.2l0,17.1l43,0c2.8-11.4,4.4-23.8,4.4-37.2L183.7,82.4z"
				/>
			<path class="st0" d="M107.7,155.9l-18.4,21.2c14.2,19.4,28.7,29.9,32.2,30.4c3.5-0.5,18-11,32.2-30.3l-18.4-21.3H107.7z"/>
			<path class="st1" d="M129,132h-15.7l0,16.5h15.5l0,0l3.8-3.3l24.2,27.9c8.7-12.7,17.1-28.8,22.4-47.9l-43.6,0L129,132z"/>
		</g>
		<g>
			<path class="st2" d="M128.6,148.4l3.8-3.3l24.2,27.9c8.8-12.7,17.1-28.8,22.4-47.9l-45,0l0-5l46.3,0c2.8-11.4,4.4-23.8,4.4-37.2
				l-1.1-0.6l0,0l-17.7-9.6l-27.3,31.5l-3.8-3.3l26.5-30.6l-39.2-21.1h0l-0.7-0.4l-0.6,0.4h0L81.6,70.3l32.1,37l-3.8,3.3L77.1,72.8
				l-17.7,9.5l-0.1,0l-1,0.6c0,18,3,34.3,7.7,48.7l42.2,0l0,5l-40.5,0c5.1,14.1,11.7,26.2,18.6,36.3l20.1-23.2l3.8,3.3L89.3,177
				c14.2,19.4,28.7,29.9,32.3,30.4c3.5-0.5,17.9-11,32.1-30.3L128.6,148.4z"/>
			<polygon class="st3" points="113.7,107.3 81.6,70.3 77.1,72.8 109.9,110.6 			"/>
			<path class="st3" d="M128.6,148.4l25,28.8c1-1.4,2-2.7,3-4.2l-24.2-27.9L128.6,148.4z"/>
			<polygon class="st3" points="138.6,104.2 165.9,72.7 161.4,70.3 134.9,100.9 			"/>
			<path class="st3" d="M108.2,131.6l-42.2,0c0.5,1.7,1.1,3.4,1.7,5l40.5,0L108.2,131.6z"/>
			<path class="st3" d="M106.4,149.6l-20.1,23.2c1,1.4,2,2.8,3,4.2l20.9-24.1L106.4,149.6z"/>
			<path class="st3" d="M134,125.1l45,0c0.5-1.6,0.9-3.3,1.3-5l-46.3,0L134,125.1z"/>
		</g>
	</g>
	<g>
		<polygon class="st4" points="103.2,158.4 103.2,132.4 113.1,121.8 127.3,121.8 127.3,110.5 113.2,110.5 102.3,98 139.8,98 
			139.9,124 130.1,134.4 115.8,134.4 115.8,145.9 129.9,145.9 140.8,158.4 		"/>
		<g>
			<path class="st3" d="M137.3,100.5l0,22.5l-8.3,8.9h-15.7l0,16.5h0h15.5l6.5,7.5h-29.6v-22.5l8.5-9.1h15.5V108h0h0h-15.5l-6.5-7.5
				H137.3 M105.7,155.9L105.7,155.9 M142.3,95.5h-5h-29.6h-11l7.2,8.3l6.5,7.5l1.5,1.7h2.3h10.5v6.3h-10.5H112l-1.5,1.6l-8.5,9.1
				l-1.3,1.4v2v22.5v5h5h29.6h11l-7.2-8.3l-6.5-7.5l-1.5-1.7h-2.3h-10.5l0-6.5H129h2.2l1.5-1.6l8.3-8.9l1.3-1.4l0-2l0-22.5
				L142.3,95.5L142.3,95.5z"/>
		</g>
	</g>
</g>
<path class="st1" d="M98.6,51.9c-1.4-28.1,3.8-47.1,23-50.4h0c19.2,3.3,24.4,22.3,23,50.4l0,0C120,37.9,123.4,37.8,98.6,51.9
	L98.6,51.9z"/>
<g>
	<circle class="st3" cx="133.3" cy="29.2" r="3.9"/>
	<circle class="st3" cx="110.2" cy="29.2" r="3.9"/>
</g>
<path class="st1" d="M91.8,55.9C53.2,74.3,49.3,77.3,50,88.6L5.7,88.5c-11.2-4.6,20.1-50.1,66.1-47.2L91.8,55.9z"/>
<path class="st1" d="M151.8,55.8c38.6,18.4,42.5,21.5,41.7,32.7l44.4-0.1c11.2-4.6-20.1-50.1-66.1-47.2L151.8,55.8z"/>
<path class="st1" d="M99.5,199.7c-7.3-7.2-18.6-17.2-27-34.1c-28.6,40.9-5.4,77.4-0.2,72.5L99.5,199.7z"/>
<path class="st1" d="M143.4,200c7.3-7.2,18.6-17.2,27-34.1c28.6,40.9,5.4,77.4,0.2,72.5L143.4,200z"/>
<rect x="-346.5" y="-361.4" class="st2" width="706" height="54"/>
<text transform="matrix(1 0 0 1 -346.4821 -324.226)" class="st4" style="font-family:'SquareFont'; font-size:53;">twofactor authentication</text>
<rect x="120.5" y="-449.4" class="st2" width="706" height="54"/>
<text transform="matrix(1 0 0 1 120.5179 -412.226)" class="st4" style="font-family:'SquareFont'; font-size:53;">twofactor authentication</text>
</svg>
