<?xml version="1.0" encoding="utf-8"?>
<!-- Generator: Adobe Illustrator 17.0.0, SVG Export Plug-In . SVG Version: 6.00 Build 0)  -->
<!DOCTYPE svg PUBLIC "-//W3C//DTD SVG 1.1//EN" "http://www.w3.org/Graphics/SVG/1.1/DTD/svg11.dtd">
<svg version="1.1" id="Capa_2" xmlns="http://www.w3.org/2000/svg" xmlns:xlink="http://www.w3.org/1999/xlink" x="0px" y="0px"
	 width="427.6px" height="242.6px" viewBox="0 0 427.6 242.6" style="enable-background:new 0 0 427.6 242.6;" xml:space="preserve"
	>
<style type="text/css">
	.st0{fill:#EABF3B;}
	.st1{fill:#F3D884;}
	.st2{fill:none;}
	.st3{fill:#FFFFFF;}
	.st4{fill:#D58430;}
</style>
<g>
	<g>
		<g>
			<g>
				<path class="st0" d="M114.7,125.5h15.5v-16.3h-15.5l-0.5-0.6l-3.8,3.3L77.7,74l-17.8,9.6l-0.1,0l-1,0.6c0,18,3,34.3,7.7,48.7
					l41.4,0L114.7,125.5z"/>
				<polygon class="st1" points="135.9,101.7 162,71.6 122.7,50.5 122.7,50.5 122,50.1 121.4,50.5 121.4,50.5 82.2,71.6 
					108.3,101.7 				"/>
				<path class="st1" d="M106.2,137.8l-38,0c5.1,14.1,11.7,26.3,18.7,36.3l19.4-22.4V137.8z"/>
				<path class="st0" d="M184.2,83.6L184.2,83.6L166.5,74l-27.2,31.4l-1.4-1.2l0,17.1l43,0c2.8-11.4,4.4-23.8,4.4-37.2L184.2,83.6z"
					/>
				<path class="st0" d="M108.2,157.1l-18.4,21.2c14.2,19.4,28.7,29.9,32.2,30.4c3.5-0.5,18-11,32.2-30.3l-18.4-21.3H108.2z"/>
				<path class="st1" d="M129.5,133.2h-15.7l0,16.5h15.5l0,0l3.8-3.3l24.2,27.9c8.7-12.7,17.1-28.8,22.4-47.9l-43.6,0L129.5,133.2z"
					/>
			</g>
			<g>
				<path class="st2" d="M129.1,149.6l3.8-3.3l24.2,27.9c8.8-12.7,17.1-28.8,22.4-47.9l-45,0l0-5l46.3,0c2.8-11.4,4.4-23.8,4.4-37.2
					l-1.1-0.6l0,0l-17.7-9.6l-27.3,31.5l-3.8-3.3l26.5-30.6l-39.2-21.1h0L122,50l-0.6,0.4h0L82.1,71.5l32.1,37l-3.8,3.3L77.6,73.9
					l-17.7,9.5l-0.1,0l-1,0.6c0,18,3,34.3,7.7,48.7l42.2,0l0,5l-40.5,0c5.1,14.1,11.7,26.2,18.6,36.3l20.1-23.2l3.8,3.3l-20.9,24.1
					c14.2,19.4,28.7,29.9,32.3,30.4c3.5-0.5,17.9-11,32.1-30.3L129.1,149.6z"/>
				<polygon class="st3" points="114.1,108.5 82.1,71.5 77.6,73.9 110.4,111.8 				"/>
				<path class="st3" d="M129.1,149.6l25,28.8c1-1.4,2-2.7,3-4.2l-24.2-27.9L129.1,149.6z"/>
				<polygon class="st3" points="139.1,105.4 166.4,73.9 161.9,71.5 135.3,102.1 				"/>
				<path class="st3" d="M108.6,132.8l-42.2,0c0.5,1.7,1.1,3.4,1.7,5l40.5,0L108.6,132.8z"/>
				<path class="st3" d="M106.9,150.8L86.8,174c1,1.4,2,2.8,3,4.2l20.9-24.1L106.9,150.8z"/>
				<path class="st3" d="M134.5,126.3l45,0c0.5-1.6,0.9-3.3,1.3-5l-46.3,0L134.5,126.3z"/>
			</g>
		</g>
		<g>
			<polygon class="st4" points="103.7,159.6 103.7,133.6 113.6,123 127.7,123 127.7,111.6 113.6,111.6 102.8,99.2 140.3,99.2 
				140.3,125.2 130.6,135.6 116.3,135.6 116.3,147.1 130.4,147.1 141.2,159.6 			"/>
			<g>
				<path class="st3" d="M137.8,101.7l0,22.5l-8.3,8.9h-15.7l0,16.5h0h15.5l6.5,7.5h-29.6v-22.5l8.5-9.1h15.5v-16.3h0h0h-15.5
					l-6.5-7.5H137.8 M106.2,157.1L106.2,157.1 M142.8,96.7h-5h-29.6h-11l7.2,8.3l6.5,7.5l1.5,1.7h2.3h10.5v6.3h-10.5h-2.2L111,122
					l-8.5,9.1l-1.3,1.4v2v22.5v5h5h29.6h11l-7.2-8.3l-6.5-7.5l-1.5-1.7h-2.3h-10.5l0-6.5h10.7h2.2l1.5-1.6l8.3-8.9l1.3-1.4l0-2
					l0-22.5L142.8,96.7L142.8,96.7z"/>
			</g>
		</g>
	</g>
	<path class="st1" d="M99,53.1C97.7,25,102.9,6,122,2.7h0c19.2,3.3,24.4,22.3,23,50.4l0,0C120.4,39,123.9,39,99,53.1L99,53.1z"/>
	<g>
		<circle class="st3" cx="133.8" cy="30.4" r="3.9"/>
		<circle class="st3" cx="110.6" cy="30.4" r="3.9"/>
	</g>
	<path class="st1" d="M92.2,57.1C53.6,75.5,49.8,78.5,50.5,89.7L6.1,89.7C-5.1,85,26.2,39.5,72.2,42.5L92.2,57.1z"/>
	<path class="st1" d="M152.3,57c38.6,18.4,42.5,21.5,41.7,32.7l44.4-0.1c11.2-4.6-20.1-50.1-66.1-47.2L152.3,57z"/>
	<path class="st1" d="M100,200.9c-7.3-7.2-18.6-17.2-27-34.1c-28.6,40.9-5.4,77.4-0.2,72.5L100,200.9z"/>
	<path class="st1" d="M143.9,201.2c7.3-7.2,18.6-17.2,27-34.1c28.6,40.9,5.4,77.4,0.2,72.5L143.9,201.2z"/>
</g>
<g>
	<g>
		<g>
			<path class="st4" d="M171.1,158.1h-10.6v-55.2h37.9v9.4h-27.3V126h27.3v9h-27.3V158.1z"/>
			<path class="st3" d="M171.9,158.9h-12.2v-56.8h39.5v11.1h-27.3v12h27.3v10.6h-27.3V158.9z M161.3,157.3h9v-23.1h27.3v-7.3h-27.3
				v-15.3h27.3v-7.8h-36.2V157.3z"/>
		</g>
		<g>
			<path class="st4" d="M234,135h-17.3v23.1h-10.6v-55.2h37.9v55.2H234V135z M216.7,112.4V126H234v-13.6H216.7z"/>
			<path class="st3" d="M244.8,158.9h-11.6v-23.1h-15.7v23.1h-12.2v-56.8h39.5V158.9z M234.8,157.3h8.3v-53.5h-36.2v53.5h9v-23.1h19
				V157.3z M234.8,126.8h-19v-15.3h19V126.8z M217.5,125.2h15.7v-12h-15.7V125.2z"/>
		</g>
		<g>
			<path class="st4" d="M262.2,148.6h27.3v9.4h-37.9v-55.2h37.9v9.4h-27.3V148.6z"/>
			<path class="st3" d="M290.3,158.9h-39.5v-56.8h39.5v11.1H263v34.6h27.3V158.9z M252.4,157.3h36.2v-7.8h-27.3v-37.9h27.3v-7.8
				h-36.2V157.3z"/>
		</g>
		<g>
			<path class="st4" d="M311.5,112.4h-14.3v-9.4h37.9v9.4h-12.9v45.7h-10.6V112.4z"/>
			<path class="st3" d="M322.9,158.9h-12.2v-45.7h-14.3v-11.1h39.5v11.1h-12.9V158.9z M312.3,157.3h9v-45.7h12.9v-7.8H298v7.8h14.3
				V157.3z"/>
		</g>
		<g>
			<path class="st4" d="M380.6,102.9v55.2h-37.9v-55.2H380.6z M370.7,112.4h-17.3v36.3h17.3V112.4z"/>
			<path class="st3" d="M381.4,158.9h-39.5v-56.8h39.5V158.9z M343.6,157.3h36.2v-53.5h-36.2V157.3z M371.5,149.5h-19v-37.9h19
				V149.5z M354.2,147.8h15.7v-34.6h-15.7V147.8z"/>
		</g>
		<g>
			<path class="st4" d="M388.3,158.1v-55.2h37.9V135h-12.9l12.9,23.1h-9.9L402.6,135h-3.7v23.1H388.3z M398.9,112.4V126h17.3v-13.6
				H398.9z"/>
			<path class="st3" d="M427.6,158.9h-11.8l-13.6-23.1h-2.4v23.1h-12.2v-56.8H427v33.7h-12.4L427.6,158.9z M416.7,157.3h8.1
				l-12.9-23.1h13.5v-30.4h-36.2v53.5h9v-23.1h5L416.7,157.3z M417,126.8h-19v-15.3h19V126.8z M399.7,125.2h15.7v-12h-15.7V125.2z"
				/>
		</g>
	</g>
</g>
<g>
	<g>
		<path class="st4" d="M193.4,177.4h-7v9.3h-4.3v-22.2h15.3v22.2h-4V177.4z M186.4,168.3v5.5h7v-5.5H186.4z"/>
		<path class="st4" d="M211.8,164.5h4v22.2h-15.3v-22.2h4.3v18.4h7V164.5z"/>
		<path class="st4" d="M224.7,168.3h-5.8v-3.8h15.3v3.8h-5.2v18.4h-4.3V168.3z"/>
		<path class="st4" d="M241.5,186.7h-4.3v-22.2h4.3v9.3h7v-9.3h4v22.2h-4v-9.3h-7V186.7z"/>
		<path class="st4" d="M261.4,168.3h-5.8v-3.8h15.3v3.8h-5.2v18.4h-4.3V168.3z"/>
		<path class="st4" d="M278.3,168.3v5.5h11v3.6h-11v5.5h11v3.8H274v-22.2h15.3v3.8H278.3z"/>
		<path class="st4" d="M296.6,186.7h-4.3v-22.2h4.3l7,12.5v-12.5h4v22.2h-4l-7-12.8V186.7z"/>
		<path class="st4" d="M316.5,168.3h-5.8v-3.8H326v3.8h-5.2v18.4h-4.3V168.3z"/>
		<path class="st4" d="M333.4,186.7h-4.3v-22.2h4.3V186.7z"/>
		<path class="st4" d="M340.7,182.9h11v3.8h-15.3v-22.2h15.3v3.8h-11V182.9z"/>
		<path class="st4" d="M366.1,177.4h-7v9.3h-4.3v-22.2h15.3v22.2h-4V177.4z M359.1,168.3v5.5h7v-5.5H359.1z"/>
		<path class="st4" d="M379,168.3h-5.8v-3.8h15.3v3.8h-5.2v18.4H379V168.3z"/>
		<path class="st4" d="M406.8,164.5v22.2h-15.3v-22.2H406.8z M402.8,168.3h-7v14.6h7V168.3z"/>
		<path class="st4" d="M409.9,186.7v-22.2h15.3v12.9H420l5.2,9.3h-4l-5.5-9.3h-1.5v9.3H409.9z M414.2,168.3v5.5h7v-5.5H414.2z"/>
	</g>
</g>
</svg>
