<?xml version="1.0" encoding="utf-8"?>
<!-- Generator: Adobe Illustrator 17.0.0, SVG Export Plug-In . SVG Version: 6.00 Build 0)  -->
<!DOCTYPE svg PUBLIC "-//W3C//DTD SVG 1.1//EN" "http://www.w3.org/Graphics/SVG/1.1/DTD/svg11.dtd">
<svg version="1.1" id="Capa_2" xmlns="http://www.w3.org/2000/svg" xmlns:xlink="http://www.w3.org/1999/xlink" x="0px" y="0px"
	 width="326.7px" height="242.6px" viewBox="0 0 326.7 242.6" style="enable-background:new 0 0 326.7 242.6;" xml:space="preserve"
	>
<style type="text/css">
	.st0{fill:#EABF3B;}
	.st1{fill:#F3D884;}
	.st2{fill:none;}
	.st3{fill:#FFFFFF;}
	.st4{fill:#D58430;}
</style>
<g>
	<g>
		<g>
			<g>
				<path class="st0" d="M114.7,125.5h15.5v-16.3h-15.5l-0.5-0.6l-3.8,3.3L77.7,74l-17.8,9.6l-0.1,0l-1,0.6c0,18,3,34.3,7.7,48.7
					l41.4,0L114.7,125.5z"/>
				<polygon class="st1" points="135.9,101.7 162,71.6 122.7,50.5 122.7,50.5 122,50.1 121.4,50.5 121.4,50.5 82.2,71.6 
					108.3,101.7 				"/>
				<path class="st1" d="M106.2,137.8l-38,0c5.1,14.1,11.7,26.3,18.7,36.3l19.4-22.4V137.8z"/>
				<path class="st0" d="M184.2,83.6L184.2,83.6L166.5,74l-27.2,31.4l-1.4-1.2l0,17.1l43,0c2.8-11.4,4.4-23.8,4.4-37.2L184.2,83.6z"
					/>
				<path class="st0" d="M108.2,157.1l-18.4,21.2c14.2,19.4,28.7,29.9,32.2,30.4c3.5-0.5,18-11,32.2-30.3l-18.4-21.3H108.2z"/>
				<path class="st1" d="M129.5,133.2h-15.7l0,16.5h15.5l0,0l3.8-3.3l24.2,27.9c8.7-12.7,17.1-28.8,22.4-47.9l-43.6,0L129.5,133.2z"
					/>
			</g>
			<g>
				<path class="st2" d="M129.1,149.6l3.8-3.3l24.2,27.9c8.8-12.7,17.1-28.8,22.4-47.9l-45,0l0-5l46.3,0c2.8-11.4,4.4-23.8,4.4-37.2
					l-1.1-0.6l0,0l-17.7-9.6l-27.3,31.5l-3.8-3.3l26.5-30.6l-39.2-21.1h0L122,50l-0.6,0.4h0L82.1,71.5l32.1,37l-3.8,3.3L77.6,73.9
					l-17.7,9.5l-0.1,0l-1,0.6c0,18,3,34.3,7.7,48.7l42.2,0l0,5l-40.5,0c5.1,14.1,11.7,26.2,18.6,36.3l20.1-23.2l3.8,3.3l-20.9,24.1
					c14.2,19.4,28.7,29.9,32.3,30.4c3.5-0.5,17.9-11,32.1-30.3L129.1,149.6z"/>
				<polygon class="st3" points="114.1,108.5 82.1,71.5 77.6,73.9 110.4,111.8 				"/>
				<path class="st3" d="M129.1,149.6l25,28.8c1-1.4,2-2.7,3-4.2l-24.2-27.9L129.1,149.6z"/>
				<polygon class="st3" points="139.1,105.4 166.4,73.9 161.9,71.5 135.3,102.1 				"/>
				<path class="st3" d="M108.6,132.8l-42.2,0c0.5,1.7,1.1,3.4,1.7,5l40.5,0L108.6,132.8z"/>
				<path class="st3" d="M106.9,150.8L86.8,174c1,1.4,2,2.8,3,4.2l20.9-24.1L106.9,150.8z"/>
				<path class="st3" d="M134.5,126.3l45,0c0.5-1.6,0.9-3.3,1.3-5l-46.3,0L134.5,126.3z"/>
			</g>
		</g>
		<g>
			<polygon class="st4" points="103.7,159.6 103.7,133.6 113.6,123 127.7,123 127.7,111.6 113.6,111.6 102.8,99.2 140.3,99.2 
				140.3,125.2 130.6,135.6 116.3,135.6 116.3,147.1 130.4,147.1 141.2,159.6 			"/>
			<g>
				<path class="st3" d="M137.8,101.7l0,22.5l-8.3,8.9h-15.7l0,16.5h0h15.5l6.5,7.5h-29.6v-22.5l8.5-9.1h15.5v-16.3h0h0h-15.5
					l-6.5-7.5H137.8 M106.2,157.1L106.2,157.1 M142.8,96.7h-5h-29.6h-11l7.2,8.3l6.5,7.5l1.5,1.7h2.3h10.5v6.3h-10.5h-2.2L111,122
					l-8.5,9.1l-1.3,1.4v2v22.5v5h5h29.6h11l-7.2-8.3l-6.5-7.5l-1.5-1.7h-2.3h-10.5l0-6.5h10.7h2.2l1.5-1.6l8.3-8.9l1.3-1.4l0-2
					l0-22.5L142.8,96.7L142.8,96.7z"/>
			</g>
		</g>
	</g>
	<path class="st1" d="M99,53.1C97.7,25,102.9,6,122,2.7h0c19.2,3.3,24.4,22.3,23,50.4l0,0C120.4,39,123.9,39,99,53.1L99,53.1z"/>
	<g>
		<circle class="st3" cx="133.8" cy="30.4" r="3.9"/>
		<circle class="st3" cx="110.6" cy="30.4" r="3.9"/>
	</g>
	<path class="st1" d="M92.2,57.1C53.6,75.5,49.8,78.5,50.5,89.7L6.1,89.7C-5.1,85,26.2,39.5,72.2,42.5L92.2,57.1z"/>
	<path class="st1" d="M152.3,57c38.6,18.4,42.5,21.5,41.7,32.7l44.4-0.1c11.2-4.6-20.1-50.1-66.1-47.2L152.3,57z"/>
	<path class="st1" d="M100,200.9c-7.3-7.2-18.6-17.2-27-34.1c-28.6,40.9-5.4,77.4-0.2,72.5L100,200.9z"/>
	<path class="st1" d="M143.9,201.2c7.3-7.2,18.6-17.2,27-34.1c28.6,40.9,5.4,77.4,0.2,72.5L143.9,201.2z"/>
</g>
<g>
	<g>
		<g>
			<path class="st4" d="M165.8,155.9h-6.5v-33.7h23.1v5.8h-16.6v8.3h16.6v5.5h-16.6V155.9z"/>
			<path class="st3" d="M166.3,156.4h-7.5v-34.7H183v6.8h-16.6v7.3H183v6.5h-16.6V156.4z M159.8,155.4h5.5v-14.1H182v-4.5h-16.6
				v-9.3H182v-4.8h-22.1V155.4z"/>
		</g>
		<g>
			<path class="st4" d="M204.2,141.9h-10.6v14.1h-6.5v-33.7h23.1v33.7h-6.1V141.9z M193.6,128v8.3h10.6V128H193.6z"/>
			<path class="st3" d="M210.8,156.4h-7.1v-14.1h-9.6v14.1h-7.5v-34.7h24.1V156.4z M204.7,155.4h5.1v-32.7h-22.1v32.7h5.5v-14.1
				h11.6V155.4z M204.7,136.9h-11.6v-9.3h11.6V136.9z M194.1,135.9h9.6v-7.3h-9.6V135.9z"/>
		</g>
		<g>
			<path class="st4" d="M221.4,150.2H238v5.8h-23.1v-33.7H238v5.8h-16.6V150.2z"/>
			<path class="st3" d="M238.5,156.4h-24.1v-34.7h24.1v6.8h-16.6v21.1h16.6V156.4z M215.4,155.4h22.1v-4.8h-16.6v-23.1h16.6v-4.8
				h-22.1V155.4z"/>
		</g>
		<g>
			<path class="st4" d="M251.5,128h-8.7v-5.8h23.1v5.8h-7.9v27.9h-6.5V128z"/>
			<path class="st3" d="M258.4,156.4H251v-27.9h-8.7v-6.8h24.1v6.8h-7.9V156.4z M252,155.4h5.5v-27.9h7.9v-4.8h-22.1v4.8h8.7V155.4z
				"/>
		</g>
		<g>
			<path class="st4" d="M293.6,122.3v33.7h-23.1v-33.7H293.6z M287.6,128H277v22.1h10.6V128z"/>
			<path class="st3" d="M294.1,156.4H270v-34.7h24.1V156.4z M271,155.4h22.1v-32.7H271V155.4z M288.1,150.7h-11.6v-23.1h11.6V150.7z
				 M277.5,149.7h9.6v-21.1h-9.6V149.7z"/>
		</g>
		<g>
			<path class="st4" d="M298.3,155.9v-33.7h23.1v19.6h-7.9l7.9,14.1h-6.1l-8.3-14.1h-2.3v14.1H298.3z M304.8,128v8.3h10.6V128H304.8
				z"/>
			<path class="st3" d="M322.3,156.4h-7.2l-8.3-14.1h-1.5v14.1h-7.5v-34.7h24.1v20.6h-7.5L322.3,156.4z M315.7,155.4h4.9l-7.9-14.1
				h8.3v-18.6h-22.1v32.7h5.5v-14.1h3.1L315.7,155.4z M315.9,136.9h-11.6v-9.3h11.6V136.9z M305.3,135.9h9.6v-7.3h-9.6V135.9z"/>
		</g>
	</g>
</g>
<g>
	<g>
		<path class="st4" d="M183.9,168.2h-4.2v5.6h-2.6v-13.3h9.1v13.3h-2.4V168.2z M179.7,162.7v3.3h4.2v-3.3H179.7z"/>
		<path class="st4" d="M194.9,160.4h2.4v13.3h-9.1v-13.3h2.6v11h4.2V160.4z"/>
		<path class="st4" d="M202.6,162.7h-3.5v-2.3h9.1v2.3h-3.1v11h-2.6V162.7z"/>
		<path class="st4" d="M212.7,173.7h-2.6v-13.3h2.6v5.6h4.2v-5.6h2.4v13.3h-2.4v-5.6h-4.2V173.7z"/>
		<path class="st4" d="M224.6,162.7h-3.5v-2.3h9.1v2.3h-3.1v11h-2.6V162.7z"/>
		<path class="st4" d="M234.8,162.7v3.3h6.6v2.2h-6.6v3.3h6.6v2.3h-9.1v-13.3h9.1v2.3H234.8z"/>
		<path class="st4" d="M245.8,173.7h-2.6v-13.3h2.6l4.2,7.5v-7.5h2.4v13.3h-2.4l-4.2-7.7V173.7z"/>
		<path class="st4" d="M257.7,162.7h-3.5v-2.3h9.1v2.3h-3.1v11h-2.6V162.7z"/>
		<path class="st4" d="M267.8,173.7h-2.6v-13.3h2.6V173.7z"/>
		<path class="st4" d="M272.2,171.5h6.6v2.3h-9.1v-13.3h9.1v2.3h-6.6V171.5z"/>
		<path class="st4" d="M287.4,168.2h-4.2v5.6h-2.6v-13.3h9.1v13.3h-2.4V168.2z M283.2,162.7v3.3h4.2v-3.3H283.2z"/>
		<path class="st4" d="M295.1,162.7h-3.5v-2.3h9.1v2.3h-3.1v11h-2.6V162.7z"/>
		<path class="st4" d="M311.8,160.4v13.3h-9.1v-13.3H311.8z M309.4,162.7h-4.2v8.8h4.2V162.7z"/>
		<path class="st4" d="M313.6,173.7v-13.3h9.1v7.7h-3.1l3.1,5.6h-2.4l-3.3-5.6h-0.9v5.6H313.6z M316.2,162.7v3.3h4.2v-3.3H316.2z"/>
	</g>
</g>
</svg>
