<?xml version="1.0" encoding="utf-8"?>
<!-- Generator: Adobe Illustrator 17.0.0, SVG Export Plug-In . SVG Version: 6.00 Build 0)  -->
<!DOCTYPE svg PUBLIC "-//W3C//DTD SVG 1.1//EN" "http://www.w3.org/Graphics/SVG/1.1/DTD/svg11.dtd">
<svg version="1.1" xmlns="http://www.w3.org/2000/svg" xmlns:xlink="http://www.w3.org/1999/xlink" x="0px" y="0px" width="368px"
	 height="246.2px" viewBox="0 0 368 246.2" style="enable-background:new 0 0 368 246.2;" xml:space="preserve">
<style type="text/css">
	.st0{display:none;}
	.st1{fill:#EDEDED;}
	.st2{fill:#F3D884;}
	.st3{fill:#D68430;}
	.st4{fill:#575756;}
</style>
<g id="Capa_2" class="st0">
	
		<image style="display:inline;overflow:visible;" width="512" height="512" xlink:href="../Desktop/twofactor/TwoFactor/src/images/sec_full2.png"  transform="matrix(0.8001 0 0 0.8001 -169.2783 68.7545)">
	</image>
</g>
<g id="Capa_1">
	<path class="st1" d="M202.3,8.2C198.4,3.2,191.7,0,184,0s-14.5,3.2-18.3,8.2H0v238h368V8.2H202.3z"/>
	<g>
		<path class="st2" d="M184,21.4v74.3c-34.8-19.4-32-25.6-32-61.9C155.3,29.9,164.5,22.1,184,21.4z"/>
		<path class="st3" d="M184,21.4v74.3c34.8-19.4,32-25.6,32-61.9C212.6,29.9,203.4,22.1,184,21.4z"/>
	</g>
	<g>
		<path class="st4" d="M62.4,136h1.3v9H68v1.1h-5.6V136z"/>
		<path class="st4" d="M73.5,146.1l-0.1-0.9h0c-0.4,0.6-1.2,1.1-2.2,1.1c-1.5,0-2.2-1-2.2-2.1c0-1.8,1.6-2.7,4.4-2.7v-0.2
			c0-0.6-0.2-1.7-1.6-1.7c-0.7,0-1.4,0.2-1.9,0.5l-0.3-0.9c0.6-0.4,1.5-0.6,2.4-0.6c2.2,0,2.8,1.5,2.8,3v2.7c0,0.6,0,1.2,0.1,1.7
			H73.5z M73.3,142.4c-1.4,0-3.1,0.2-3.1,1.6c0,0.9,0.6,1.3,1.2,1.3c0.9,0,1.5-0.6,1.8-1.2c0-0.1,0.1-0.3,0.1-0.4V142.4z"/>
		<path class="st4" d="M83.9,146.1l-0.1-0.9h0c-0.4,0.6-1.2,1.1-2.2,1.1c-1.5,0-2.2-1-2.2-2.1c0-1.8,1.6-2.7,4.4-2.7v-0.2
			c0-0.6-0.2-1.7-1.6-1.7c-0.7,0-1.4,0.2-1.9,0.5l-0.3-0.9c0.6-0.4,1.5-0.6,2.4-0.6c2.2,0,2.8,1.5,2.8,3v2.7c0,0.6,0,1.2,0.1,1.7
			H83.9z M83.7,142.4c-1.4,0-3.1,0.2-3.1,1.6c0,0.9,0.6,1.3,1.2,1.3c0.9,0,1.5-0.6,1.8-1.2c0-0.1,0.1-0.3,0.1-0.4V142.4z"/>
		<path class="st4" d="M93.2,144.2c0,0.8,0,1.4,0.1,2h-1.2L92,145h0c-0.3,0.6-1.1,1.4-2.4,1.4c-1.1,0-2.5-0.6-2.5-3.2v-4.2h1.3v4
			c0,1.4,0.4,2.3,1.6,2.3c0.9,0,1.5-0.6,1.7-1.2c0.1-0.2,0.1-0.4,0.1-0.7v-4.5h1.3V144.2z"/>
		<path class="st4" d="M97,136.8v2.1h1.9v1H97v3.9c0,0.9,0.3,1.4,1,1.4c0.3,0,0.6,0,0.8-0.1l0.1,1c-0.3,0.1-0.7,0.2-1.2,0.2
			c-0.6,0-1.1-0.2-1.4-0.6c-0.4-0.4-0.5-1-0.5-1.9v-4h-1.1v-1h1.1v-1.7L97,136.8z"/>
		<path class="st4" d="M101,142.8c0,1.8,1.2,2.5,2.5,2.5c0.9,0,1.5-0.2,2-0.4l0.2,0.9c-0.5,0.2-1.3,0.4-2.4,0.4
			c-2.2,0-3.6-1.5-3.6-3.7s1.3-3.9,3.4-3.9c2.4,0,3,2.1,3,3.4c0,0.3,0,0.5,0,0.6H101z M104.8,141.8c0-0.8-0.3-2.1-1.8-2.1
			c-1.3,0-1.9,1.2-2,2.1H104.8z"/>
		<path class="st4" d="M107.8,140.8c0-0.8,0-1.4-0.1-2h1.2l0.1,1.2h0c0.4-0.7,1.2-1.4,2.4-1.4c1,0,2.6,0.6,2.6,3.1v4.3h-1.3V142
			c0-1.2-0.4-2.1-1.7-2.1c-0.9,0-1.5,0.6-1.8,1.3c-0.1,0.2-0.1,0.4-0.1,0.6v4.4h-1.3V140.8z"/>
		<path class="st4" d="M117.6,136.8v2.1h1.9v1h-1.9v3.9c0,0.9,0.3,1.4,1,1.4c0.3,0,0.6,0,0.8-0.1l0.1,1c-0.3,0.1-0.7,0.2-1.2,0.2
			c-0.6,0-1.1-0.2-1.4-0.6c-0.4-0.4-0.5-1-0.5-1.9v-4h-1.1v-1h1.1v-1.7L117.6,136.8z"/>
		<path class="st4" d="M122.5,136.8c0,0.5-0.3,0.8-0.8,0.8c-0.5,0-0.8-0.4-0.8-0.8c0-0.5,0.3-0.8,0.8-0.8
			C122.1,136,122.5,136.4,122.5,136.8z M121,146.1v-7.3h1.3v7.3H121z"/>
		<path class="st4" d="M129.7,145.9c-0.3,0.2-1.1,0.4-2.1,0.4c-2.2,0-3.6-1.5-3.6-3.7c0-2.2,1.5-3.9,3.9-3.9c0.8,0,1.5,0.2,1.8,0.4
			l-0.3,1c-0.3-0.2-0.8-0.3-1.5-0.3c-1.7,0-2.6,1.2-2.6,2.7c0,1.7,1.1,2.7,2.5,2.7c0.8,0,1.2-0.2,1.6-0.4L129.7,145.9z"/>
		<path class="st4" d="M135.2,146.1l-0.1-0.9h0c-0.4,0.6-1.2,1.1-2.2,1.1c-1.5,0-2.2-1-2.2-2.1c0-1.8,1.6-2.7,4.4-2.7v-0.2
			c0-0.6-0.2-1.7-1.6-1.7c-0.7,0-1.4,0.2-1.9,0.5l-0.3-0.9c0.6-0.4,1.5-0.6,2.4-0.6c2.2,0,2.8,1.5,2.8,3v2.7c0,0.6,0,1.2,0.1,1.7
			H135.2z M135,142.4c-1.4,0-3.1,0.2-3.1,1.6c0,0.9,0.6,1.3,1.2,1.3c0.9,0,1.5-0.6,1.8-1.2c0-0.1,0.1-0.3,0.1-0.4V142.4z"/>
		<path class="st4" d="M143.6,145.9c-0.3,0.2-1.1,0.4-2.1,0.4c-2.2,0-3.6-1.5-3.6-3.7c0-2.2,1.5-3.9,3.9-3.9c0.8,0,1.5,0.2,1.8,0.4
			l-0.3,1c-0.3-0.2-0.8-0.3-1.5-0.3c-1.7,0-2.6,1.2-2.6,2.7c0,1.7,1.1,2.7,2.5,2.7c0.8,0,1.2-0.2,1.6-0.4L143.6,145.9z"/>
		<path class="st4" d="M146.6,136.8c0,0.5-0.3,0.8-0.8,0.8c-0.5,0-0.8-0.4-0.8-0.8c0-0.5,0.3-0.8,0.8-0.8
			C146.3,136,146.6,136.4,146.6,136.8z M145.2,146.1v-7.3h1.3v7.3H145.2z"/>
		<path class="st4" d="M155.2,142.5c0,2.7-1.9,3.9-3.6,3.9c-2,0-3.5-1.4-3.5-3.7c0-2.4,1.6-3.9,3.6-3.9
			C153.8,138.7,155.2,140.2,155.2,142.5z M149.5,142.5c0,1.6,0.9,2.8,2.2,2.8c1.3,0,2.2-1.2,2.2-2.8c0-1.2-0.6-2.8-2.2-2.8
			C150.2,139.7,149.5,141.1,149.5,142.5z M153.7,135.7l-1.8,2.1h-0.9l1.3-2.1H153.7z"/>
		<path class="st4" d="M156.9,140.8c0-0.8,0-1.4-0.1-2h1.2l0.1,1.2h0c0.4-0.7,1.2-1.4,2.4-1.4c1,0,2.6,0.6,2.6,3.1v4.3h-1.3V142
			c0-1.2-0.4-2.1-1.7-2.1c-0.9,0-1.5,0.6-1.8,1.3c-0.1,0.2-0.1,0.4-0.1,0.6v4.4h-1.3V140.8z"/>
		<path class="st4" d="M169.1,142.8c0,1.8,1.2,2.5,2.5,2.5c0.9,0,1.5-0.2,2-0.4l0.2,0.9c-0.5,0.2-1.3,0.4-2.4,0.4
			c-2.2,0-3.6-1.5-3.6-3.7s1.3-3.9,3.4-3.9c2.4,0,3,2.1,3,3.4c0,0.3,0,0.5,0,0.6H169.1z M173,141.8c0-0.8-0.3-2.1-1.8-2.1
			c-1.3,0-1.9,1.2-2,2.1H173z"/>
		<path class="st4" d="M175.9,140.8c0-0.8,0-1.4-0.1-2h1.2l0.1,1.2h0c0.4-0.7,1.2-1.4,2.4-1.4c1,0,2.6,0.6,2.6,3.1v4.3h-1.3V142
			c0-1.2-0.4-2.1-1.7-2.1c-0.9,0-1.5,0.6-1.8,1.3c-0.1,0.2-0.1,0.4-0.1,0.6v4.4h-1.3V140.8z"/>
		<path class="st4" d="M193.7,135.5v8.8c0,0.6,0,1.4,0.1,1.9h-1.2l-0.1-1.3h0c-0.4,0.8-1.3,1.4-2.5,1.4c-1.8,0-3.1-1.5-3.1-3.7
			c0-2.4,1.5-3.9,3.3-3.9c1.1,0,1.9,0.5,2.2,1.1h0v-4.3H193.7z M192.4,141.8c0-0.2,0-0.4-0.1-0.6c-0.2-0.8-0.9-1.5-1.9-1.5
			c-1.4,0-2.2,1.2-2.2,2.8c0,1.5,0.7,2.7,2.1,2.7c0.9,0,1.7-0.6,1.9-1.6c0-0.2,0.1-0.4,0.1-0.6V141.8z"/>
		<path class="st4" d="M202.5,142.5c0,2.7-1.9,3.9-3.6,3.9c-2,0-3.5-1.4-3.5-3.7c0-2.4,1.6-3.9,3.6-3.9
			C201,138.7,202.5,140.2,202.5,142.5z M196.7,142.5c0,1.6,0.9,2.8,2.2,2.8c1.3,0,2.2-1.2,2.2-2.8c0-1.2-0.6-2.8-2.2-2.8
			C197.4,139.7,196.7,141.1,196.7,142.5z"/>
		<path class="st4" d="M203.9,144.8c0.4,0.3,1.1,0.5,1.7,0.5c1,0,1.4-0.5,1.4-1.1c0-0.6-0.4-1-1.3-1.3c-1.3-0.5-1.9-1.2-1.9-2.1
			c0-1.2,0.9-2.1,2.5-2.1c0.7,0,1.4,0.2,1.8,0.5l-0.3,1c-0.3-0.2-0.8-0.4-1.5-0.4c-0.8,0-1.2,0.4-1.2,1c0,0.6,0.4,0.9,1.4,1.2
			c1.3,0.5,1.9,1.1,1.9,2.2c0,1.3-1,2.2-2.7,2.2c-0.8,0-1.5-0.2-2-0.5L203.9,144.8z"/>
		<path class="st4" d="M213.2,141.3c0-0.9,0-1.7-0.1-2.4h1.2l0.1,1.2h0c0.5-0.9,1.4-1.4,2.6-1.4c1.8,0,3.1,1.5,3.1,3.7
			c0,2.6-1.6,3.9-3.3,3.9c-1,0-1.8-0.4-2.2-1.1h0v3.9h-1.3V141.3z M214.5,143.2c0,0.2,0,0.4,0.1,0.5c0.2,0.9,1,1.5,2,1.5
			c1.4,0,2.2-1.1,2.2-2.8c0-1.5-0.8-2.7-2.2-2.7c-0.9,0-1.7,0.6-2,1.6c0,0.2-0.1,0.4-0.1,0.5V143.2z"/>
		<path class="st4" d="M225.8,146.1l-0.1-0.9h0c-0.4,0.6-1.2,1.1-2.2,1.1c-1.5,0-2.2-1-2.2-2.1c0-1.8,1.6-2.7,4.4-2.7v-0.2
			c0-0.6-0.2-1.7-1.6-1.7c-0.7,0-1.4,0.2-1.9,0.5l-0.3-0.9c0.6-0.4,1.5-0.6,2.4-0.6c2.2,0,2.8,1.5,2.8,3v2.7c0,0.6,0,1.2,0.1,1.7
			H225.8z M225.6,142.4c-1.4,0-3.1,0.2-3.1,1.6c0,0.9,0.6,1.3,1.2,1.3c0.9,0,1.5-0.6,1.8-1.2c0-0.1,0.1-0.3,0.1-0.4V142.4z"/>
		<path class="st4" d="M228.8,144.8c0.4,0.3,1.1,0.5,1.7,0.5c1,0,1.4-0.5,1.4-1.1c0-0.6-0.4-1-1.3-1.3c-1.3-0.5-1.9-1.2-1.9-2.1
			c0-1.2,0.9-2.1,2.5-2.1c0.7,0,1.4,0.2,1.8,0.5l-0.3,1c-0.3-0.2-0.8-0.4-1.5-0.4c-0.8,0-1.2,0.4-1.2,1c0,0.6,0.4,0.9,1.4,1.2
			c1.3,0.5,1.9,1.1,1.9,2.2c0,1.3-1,2.2-2.7,2.2c-0.8,0-1.5-0.2-2-0.5L228.8,144.8z"/>
		<path class="st4" d="M241.5,142.5c0,2.7-1.9,3.9-3.6,3.9c-2,0-3.5-1.4-3.5-3.7c0-2.4,1.6-3.9,3.6-3.9
			C240.1,138.7,241.5,140.2,241.5,142.5z M235.8,142.5c0,1.6,0.9,2.8,2.2,2.8c1.3,0,2.2-1.2,2.2-2.8c0-1.2-0.6-2.8-2.2-2.8
			C236.4,139.7,235.8,141.1,235.8,142.5z"/>
		<path class="st4" d="M243,144.8c0.4,0.3,1.1,0.5,1.7,0.5c1,0,1.4-0.5,1.4-1.1c0-0.6-0.4-1-1.3-1.3c-1.3-0.5-1.9-1.2-1.9-2.1
			c0-1.2,0.9-2.1,2.5-2.1c0.7,0,1.4,0.2,1.8,0.5l-0.3,1c-0.3-0.2-0.8-0.4-1.5-0.4c-0.8,0-1.2,0.4-1.2,1c0,0.6,0.4,0.9,1.4,1.2
			c1.3,0.5,1.9,1.1,1.9,2.2c0,1.3-1,2.2-2.7,2.2c-0.8,0-1.5-0.2-2-0.5L243,144.8z"/>
		<path class="st4" d="M256.3,146.1l-0.1-0.9h0c-0.4,0.6-1.2,1.1-2.2,1.1c-1.5,0-2.2-1-2.2-2.1c0-1.8,1.6-2.7,4.4-2.7v-0.2
			c0-0.6-0.2-1.7-1.6-1.7c-0.7,0-1.4,0.2-1.9,0.5l-0.3-0.9c0.6-0.4,1.5-0.6,2.4-0.6c2.2,0,2.8,1.5,2.8,3v2.7c0,0.6,0,1.2,0.1,1.7
			H256.3z M256.1,142.4c-1.4,0-3.1,0.2-3.1,1.6c0,0.9,0.6,1.3,1.2,1.3c0.9,0,1.5-0.6,1.8-1.2c0-0.1,0.1-0.3,0.1-0.4V142.4z"/>
		<path class="st4" d="M265.6,144.2c0,0.8,0,1.4,0.1,2h-1.2l-0.1-1.2h0c-0.3,0.6-1.1,1.4-2.4,1.4c-1.1,0-2.5-0.6-2.5-3.2v-4.2h1.3v4
			c0,1.4,0.4,2.3,1.6,2.3c0.9,0,1.5-0.6,1.7-1.2c0.1-0.2,0.1-0.4,0.1-0.7v-4.5h1.3V144.2z"/>
		<path class="st4" d="M267.8,140.8c0-0.8,0-1.4-0.1-2h1.2l0.1,1.2h0c0.4-0.7,1.1-1.3,2.3-1.3c1,0,1.7,0.6,2.1,1.5h0
			c0.2-0.4,0.5-0.7,0.8-0.9c0.4-0.3,0.9-0.5,1.6-0.5c1,0,2.4,0.6,2.4,3.1v4.3h-1.3V142c0-1.4-0.5-2.2-1.6-2.2
			c-0.8,0-1.3,0.6-1.6,1.2c-0.1,0.2-0.1,0.4-0.1,0.7v4.5h-1.3v-4.3c0-1.2-0.5-2-1.5-2c-0.8,0-1.4,0.7-1.6,1.3
			c-0.1,0.2-0.1,0.4-0.1,0.6v4.4h-1.3V140.8z"/>
		<path class="st4" d="M281,142.8c0,1.8,1.2,2.5,2.5,2.5c0.9,0,1.5-0.2,2-0.4l0.2,0.9c-0.5,0.2-1.3,0.4-2.4,0.4
			c-2.2,0-3.6-1.5-3.6-3.7s1.3-3.9,3.4-3.9c2.4,0,3,2.1,3,3.4c0,0.3,0,0.5,0,0.6H281z M284.9,141.8c0-0.8-0.3-2.1-1.8-2.1
			c-1.3,0-1.9,1.2-2,2.1H284.9z"/>
		<path class="st4" d="M287.8,140.8c0-0.8,0-1.4-0.1-2h1.2l0.1,1.2h0c0.4-0.7,1.2-1.4,2.4-1.4c1,0,2.6,0.6,2.6,3.1v4.3h-1.3V142
			c0-1.2-0.4-2.1-1.7-2.1c-0.9,0-1.5,0.6-1.8,1.3c-0.1,0.2-0.1,0.4-0.1,0.6v4.4h-1.3V140.8z"/>
		<path class="st4" d="M297.7,136.8v2.1h1.9v1h-1.9v3.9c0,0.9,0.3,1.4,1,1.4c0.3,0,0.6,0,0.8-0.1l0.1,1c-0.3,0.1-0.7,0.2-1.2,0.2
			c-0.6,0-1.1-0.2-1.4-0.6c-0.4-0.4-0.5-1-0.5-1.9v-4h-1.1v-1h1.1v-1.7L297.7,136.8z"/>
		<path class="st4" d="M305.1,146.1l-0.1-0.9h0c-0.4,0.6-1.2,1.1-2.2,1.1c-1.5,0-2.2-1-2.2-2.1c0-1.8,1.6-2.7,4.4-2.7v-0.2
			c0-0.6-0.2-1.7-1.6-1.7c-0.7,0-1.4,0.2-1.9,0.5l-0.3-0.9c0.6-0.4,1.5-0.6,2.4-0.6c2.2,0,2.8,1.5,2.8,3v2.7c0,0.6,0,1.2,0.1,1.7
			H305.1z M304.9,142.4c-1.4,0-3.1,0.2-3.1,1.6c0,0.9,0.6,1.3,1.2,1.3c0.9,0,1.5-0.6,1.8-1.2c0-0.1,0.1-0.3,0.1-0.4V142.4z"/>
		<path class="st4" d="M21.6,158.8c0-0.8,0-1.4-0.1-2h1.2l0.1,1.2h0c0.4-0.7,1.1-1.3,2.3-1.3c1,0,1.7,0.6,2.1,1.5h0
			c0.2-0.4,0.5-0.7,0.8-0.9c0.4-0.3,0.9-0.5,1.6-0.5c1,0,2.4,0.6,2.4,3.1v4.3h-1.3V160c0-1.4-0.5-2.2-1.6-2.2
			c-0.8,0-1.3,0.6-1.6,1.2c-0.1,0.2-0.1,0.4-0.1,0.7v4.5h-1.3v-4.3c0-1.2-0.5-2-1.5-2c-0.8,0-1.4,0.7-1.6,1.3
			c-0.1,0.2-0.1,0.4-0.1,0.6v4.4h-1.3V158.8z"/>
		<path class="st4" d="M40.1,162.2c0,0.8,0,1.4,0.1,2H39L39,163h0c-0.3,0.6-1.1,1.4-2.4,1.4c-1.1,0-2.5-0.6-2.5-3.2v-4.2h1.3v4
			c0,1.4,0.4,2.3,1.6,2.3c0.9,0,1.5-0.6,1.7-1.2c0.1-0.2,0.1-0.4,0.1-0.7v-4.5h1.3V162.2z"/>
		<path class="st4" d="M47.5,163.9c-0.3,0.2-1.1,0.4-2.1,0.4c-2.2,0-3.6-1.5-3.6-3.7c0-2.2,1.5-3.9,3.9-3.9c0.8,0,1.5,0.2,1.8,0.4
			l-0.3,1c-0.3-0.2-0.8-0.3-1.5-0.3c-1.7,0-2.6,1.2-2.6,2.7c0,1.7,1.1,2.7,2.5,2.7c0.8,0,1.2-0.2,1.6-0.4L47.5,163.9z"/>
		<path class="st4" d="M49,153.5h1.3v4.5h0c0.2-0.4,0.5-0.7,0.9-0.9c0.4-0.2,0.9-0.4,1.4-0.4c1,0,2.5,0.6,2.5,3.1v4.3h-1.3V160
			c0-1.2-0.4-2.2-1.7-2.2c-0.9,0-1.5,0.6-1.8,1.3c-0.1,0.2-0.1,0.4-0.1,0.6v4.4H49V153.5z"/>
		<path class="st4" d="M60.1,153.7l-1.8,2.1h-0.9l1.3-2.1H60.1z M57.4,164.1v-7.3h1.3v7.3H57.4z"/>
		<path class="st4" d="M60.7,162.8c0.4,0.3,1.1,0.5,1.7,0.5c1,0,1.4-0.5,1.4-1.1c0-0.6-0.4-1-1.3-1.3c-1.3-0.5-1.9-1.2-1.9-2.1
			c0-1.2,0.9-2.1,2.5-2.1c0.7,0,1.4,0.2,1.8,0.5l-0.3,1c-0.3-0.2-0.8-0.4-1.5-0.4c-0.8,0-1.2,0.4-1.2,1c0,0.6,0.4,0.9,1.4,1.2
			c1.3,0.5,1.9,1.1,1.9,2.2c0,1.3-1,2.2-2.7,2.2c-0.8,0-1.5-0.2-2-0.5L60.7,162.8z"/>
		<path class="st4" d="M68.3,154.8c0,0.5-0.3,0.8-0.8,0.8c-0.5,0-0.8-0.4-0.8-0.8c0-0.5,0.3-0.8,0.8-0.8
			C68,154,68.3,154.4,68.3,154.8z M66.8,164.1v-7.3h1.3v7.3H66.8z"/>
		<path class="st4" d="M70.3,158.8c0-0.8,0-1.4-0.1-2h1.2l0.1,1.2h0c0.4-0.7,1.1-1.3,2.3-1.3c1,0,1.7,0.6,2.1,1.5h0
			c0.2-0.4,0.5-0.7,0.8-0.9c0.4-0.3,0.9-0.5,1.6-0.5c1,0,2.4,0.6,2.4,3.1v4.3h-1.3V160c0-1.4-0.5-2.2-1.6-2.2
			c-0.8,0-1.3,0.6-1.6,1.2c-0.1,0.2-0.1,0.4-0.1,0.7v4.5h-1.3v-4.3c0-1.2-0.5-2-1.5-2c-0.8,0-1.4,0.7-1.6,1.3
			c-0.1,0.2-0.1,0.4-0.1,0.6v4.4h-1.3V158.8z"/>
		<path class="st4" d="M89.4,160.5c0,2.7-1.9,3.9-3.6,3.9c-2,0-3.5-1.4-3.5-3.7c0-2.4,1.6-3.9,3.6-3.9
			C88,156.7,89.4,158.2,89.4,160.5z M83.7,160.5c0,1.6,0.9,2.8,2.2,2.8c1.3,0,2.2-1.2,2.2-2.8c0-1.2-0.6-2.8-2.2-2.8
			C84.3,157.7,83.7,159.1,83.7,160.5z"/>
		<path class="st4" d="M94.3,153.5h1.3v10.6h-1.3V153.5z"/>
		<path class="st4" d="M101.8,164.1l-0.1-0.9h0c-0.4,0.6-1.2,1.1-2.2,1.1c-1.5,0-2.2-1-2.2-2.1c0-1.8,1.6-2.7,4.4-2.7v-0.2
			c0-0.6-0.2-1.7-1.6-1.7c-0.7,0-1.4,0.2-1.9,0.5l-0.3-0.9c0.6-0.4,1.5-0.6,2.4-0.6c2.2,0,2.8,1.5,2.8,3v2.7c0,0.6,0,1.2,0.1,1.7
			H101.8z M101.6,160.4c-1.4,0-3.1,0.2-3.1,1.6c0,0.9,0.6,1.3,1.2,1.3c0.9,0,1.5-0.6,1.8-1.2c0-0.1,0.1-0.3,0.1-0.4V160.4z"/>
		<path class="st4" d="M108,162.8c0.4,0.3,1.1,0.5,1.7,0.5c1,0,1.4-0.5,1.4-1.1c0-0.6-0.4-1-1.3-1.3c-1.3-0.5-1.9-1.2-1.9-2.1
			c0-1.2,0.9-2.1,2.5-2.1c0.7,0,1.4,0.2,1.8,0.5l-0.3,1c-0.3-0.2-0.8-0.4-1.5-0.4c-0.8,0-1.2,0.4-1.2,1c0,0.6,0.4,0.9,1.4,1.2
			c1.3,0.5,1.9,1.1,1.9,2.2c0,1.3-1,2.2-2.7,2.2c-0.8,0-1.5-0.2-2-0.5L108,162.8z"/>
		<path class="st4" d="M114.9,160.8c0,1.8,1.2,2.5,2.5,2.5c0.9,0,1.5-0.2,2-0.4l0.2,0.9c-0.5,0.2-1.3,0.4-2.4,0.4
			c-2.2,0-3.6-1.5-3.6-3.7s1.3-3.9,3.4-3.9c2.4,0,3,2.1,3,3.4c0,0.3,0,0.5,0,0.6H114.9z M118.8,159.8c0-0.8-0.3-2.1-1.8-2.1
			c-1.3,0-1.9,1.2-2,2.1H118.8z"/>
		<path class="st4" d="M127.9,156.9c0,0.5-0.1,1.1-0.1,2v4.2c0,1.7-0.3,2.7-1,3.3c-0.7,0.7-1.7,0.9-2.6,0.9c-0.9,0-1.8-0.2-2.4-0.6
			l0.3-1c0.5,0.3,1.2,0.6,2.1,0.6c1.3,0,2.3-0.7,2.3-2.5v-0.8h0c-0.4,0.7-1.2,1.2-2.3,1.2c-1.8,0-3.1-1.5-3.1-3.5
			c0-2.5,1.6-3.9,3.3-3.9c1.3,0,2,0.7,2.3,1.3h0l0.1-1.1H127.9z M126.6,159.7c0-0.2,0-0.4-0.1-0.6c-0.2-0.8-0.9-1.4-1.8-1.4
			c-1.3,0-2.2,1.1-2.2,2.7c0,1.4,0.7,2.6,2.1,2.6c0.8,0,1.5-0.5,1.8-1.3c0.1-0.2,0.1-0.5,0.1-0.7V159.7z"/>
		<path class="st4" d="M136.1,162.2c0,0.8,0,1.4,0.1,2H135l-0.1-1.2h0c-0.3,0.6-1.1,1.4-2.4,1.4c-1.1,0-2.5-0.6-2.5-3.2v-4.2h1.3v4
			c0,1.4,0.4,2.3,1.6,2.3c0.9,0,1.5-0.6,1.7-1.2c0.1-0.2,0.1-0.4,0.1-0.7v-4.5h1.3V162.2z"/>
		<path class="st4" d="M138.3,159.1c0-0.9,0-1.6-0.1-2.3h1.2l0,1.4h0.1c0.3-1,1.1-1.6,2-1.6c0.2,0,0.3,0,0.4,0v1.2
			c-0.1,0-0.3,0-0.5,0c-0.9,0-1.6,0.7-1.8,1.7c0,0.2-0.1,0.4-0.1,0.6v3.9h-1.3V159.1z"/>
		<path class="st4" d="M144.7,154.8c0,0.5-0.3,0.8-0.8,0.8c-0.5,0-0.8-0.4-0.8-0.8c0-0.5,0.3-0.8,0.8-0.8
			C144.4,154,144.7,154.4,144.7,154.8z M143.3,164.1v-7.3h1.3v7.3H143.3z"/>
		<path class="st4" d="M153.1,153.5v8.8c0,0.6,0,1.4,0.1,1.9h-1.2l-0.1-1.3h0c-0.4,0.8-1.3,1.4-2.5,1.4c-1.8,0-3.1-1.5-3.1-3.7
			c0-2.4,1.5-3.9,3.3-3.9c1.1,0,1.9,0.5,2.2,1.1h0v-4.3H153.1z M151.7,159.8c0-0.2,0-0.4-0.1-0.6c-0.2-0.8-0.9-1.5-1.9-1.5
			c-1.4,0-2.2,1.2-2.2,2.8c0,1.5,0.7,2.7,2.1,2.7c0.9,0,1.7-0.6,1.9-1.6c0-0.2,0.1-0.4,0.1-0.6V159.8z"/>
		<path class="st4" d="M159.3,164.1l-0.1-0.9h0c-0.4,0.6-1.2,1.1-2.2,1.1c-1.5,0-2.2-1-2.2-2.1c0-1.8,1.6-2.7,4.4-2.7v-0.2
			c0-0.6-0.2-1.7-1.6-1.7c-0.7,0-1.4,0.2-1.9,0.5l-0.3-0.9c0.6-0.4,1.5-0.6,2.4-0.6c2.2,0,2.8,1.5,2.8,3v2.7c0,0.6,0,1.2,0.1,1.7
			H159.3z M159.1,160.4c-1.4,0-3.1,0.2-3.1,1.6c0,0.9,0.6,1.3,1.2,1.3c0.9,0,1.5-0.6,1.8-1.2c0-0.1,0.1-0.3,0.1-0.4V160.4z"/>
		<path class="st4" d="M168.7,153.5v8.8c0,0.6,0,1.4,0.1,1.9h-1.2l-0.1-1.3h0c-0.4,0.8-1.3,1.4-2.5,1.4c-1.8,0-3.1-1.5-3.1-3.7
			c0-2.4,1.5-3.9,3.3-3.9c1.1,0,1.9,0.5,2.2,1.1h0v-4.3H168.7z M167.4,159.8c0-0.2,0-0.4-0.1-0.6c-0.2-0.8-0.9-1.5-1.9-1.5
			c-1.4,0-2.2,1.2-2.2,2.8c0,1.5,0.7,2.7,2.1,2.7c0.9,0,1.7-0.6,1.9-1.6c0-0.2,0.1-0.4,0.1-0.6V159.8z"/>
		<path class="st4" d="M174.9,160.8c0,1.8,1.2,2.5,2.5,2.5c0.9,0,1.5-0.2,2-0.4l0.2,0.9c-0.5,0.2-1.3,0.4-2.4,0.4
			c-2.2,0-3.6-1.5-3.6-3.7s1.3-3.9,3.4-3.9c2.4,0,3,2.1,3,3.4c0,0.3,0,0.5,0,0.6H174.9z M178.7,159.8c0-0.8-0.3-2.1-1.8-2.1
			c-1.3,0-1.9,1.2-2,2.1H178.7z"/>
		<path class="st4" d="M181.6,158.8c0-0.8,0-1.4-0.1-2h1.2l0.1,1.2h0c0.4-0.7,1.2-1.4,2.4-1.4c1,0,2.6,0.6,2.6,3.1v4.3h-1.3V160
			c0-1.2-0.4-2.1-1.7-2.1c-0.9,0-1.5,0.6-1.8,1.3c-0.1,0.2-0.1,0.4-0.1,0.6v4.4h-1.3V158.8z"/>
		<path class="st4" d="M193.1,158.8c0-0.8,0-1.4-0.1-2h1.2l0.1,1.2h0c0.4-0.7,1.2-1.4,2.4-1.4c1,0,2.6,0.6,2.6,3.1v4.3H198V160
			c0-1.2-0.4-2.1-1.7-2.1c-0.9,0-1.5,0.6-1.8,1.3c-0.1,0.2-0.1,0.4-0.1,0.6v4.4h-1.3V158.8z"/>
		<path class="st4" d="M207.5,162.2c0,0.8,0,1.4,0.1,2h-1.2l-0.1-1.2h0c-0.3,0.6-1.1,1.4-2.4,1.4c-1.1,0-2.5-0.6-2.5-3.2v-4.2h1.3v4
			c0,1.4,0.4,2.3,1.6,2.3c0.9,0,1.5-0.6,1.7-1.2c0.1-0.2,0.1-0.4,0.1-0.7v-4.5h1.3V162.2z"/>
		<path class="st4" d="M210.5,160.8c0,1.8,1.2,2.5,2.5,2.5c0.9,0,1.5-0.2,2-0.4l0.2,0.9c-0.5,0.2-1.3,0.4-2.4,0.4
			c-2.2,0-3.6-1.5-3.6-3.7s1.3-3.9,3.4-3.9c2.4,0,3,2.1,3,3.4c0,0.3,0,0.5,0,0.6H210.5z M214.3,159.8c0-0.8-0.3-2.1-1.8-2.1
			c-1.3,0-1.9,1.2-2,2.1H214.3z"/>
		<path class="st4" d="M217.1,162.8c0.4,0.3,1.1,0.5,1.7,0.5c1,0,1.4-0.5,1.4-1.1c0-0.6-0.4-1-1.3-1.3c-1.3-0.5-1.9-1.2-1.9-2.1
			c0-1.2,0.9-2.1,2.5-2.1c0.7,0,1.4,0.2,1.8,0.5l-0.3,1c-0.3-0.2-0.8-0.4-1.5-0.4c-0.8,0-1.2,0.4-1.2,1c0,0.6,0.4,0.9,1.4,1.2
			c1.3,0.5,1.9,1.1,1.9,2.2c0,1.3-1,2.2-2.7,2.2c-0.8,0-1.5-0.2-2-0.5L217.1,162.8z"/>
		<path class="st4" d="M224.8,154.8v2.1h1.9v1h-1.9v3.9c0,0.9,0.3,1.4,1,1.4c0.3,0,0.6,0,0.8-0.1l0.1,1c-0.3,0.1-0.7,0.2-1.2,0.2
			c-0.6,0-1.1-0.2-1.4-0.6c-0.4-0.4-0.5-1-0.5-1.9v-4h-1.1v-1h1.1v-1.7L224.8,154.8z"/>
		<path class="st4" d="M228.1,159.1c0-0.9,0-1.6-0.1-2.3h1.2l0,1.4h0.1c0.3-1,1.1-1.6,2-1.6c0.2,0,0.3,0,0.4,0v1.2
			c-0.1,0-0.3,0-0.5,0c-0.9,0-1.6,0.7-1.8,1.7c0,0.2-0.1,0.4-0.1,0.6v3.9h-1.3V159.1z"/>
		<path class="st4" d="M237,164.1l-0.1-0.9h0c-0.4,0.6-1.2,1.1-2.2,1.1c-1.5,0-2.2-1-2.2-2.1c0-1.8,1.6-2.7,4.4-2.7v-0.2
			c0-0.6-0.2-1.7-1.6-1.7c-0.7,0-1.4,0.2-1.9,0.5l-0.3-0.9c0.6-0.4,1.5-0.6,2.4-0.6c2.2,0,2.8,1.5,2.8,3v2.7c0,0.6,0,1.2,0.1,1.7
			H237z M236.8,160.4c-1.4,0-3.1,0.2-3.1,1.6c0,0.9,0.6,1.3,1.2,1.3c0.9,0,1.5-0.6,1.8-1.2c0-0.1,0.1-0.3,0.1-0.4V160.4z"/>
		<path class="st4" d="M240,162.8c0.4,0.3,1.1,0.5,1.7,0.5c1,0,1.4-0.5,1.4-1.1c0-0.6-0.4-1-1.3-1.3c-1.3-0.5-1.9-1.2-1.9-2.1
			c0-1.2,0.9-2.1,2.5-2.1c0.7,0,1.4,0.2,1.8,0.5l-0.3,1c-0.3-0.2-0.8-0.4-1.5-0.4c-0.8,0-1.2,0.4-1.2,1c0,0.6,0.4,0.9,1.4,1.2
			c1.3,0.5,1.9,1.1,1.9,2.2c0,1.3-1,2.2-2.7,2.2c-0.8,0-1.5-0.2-2-0.5L240,162.8z"/>
		<path class="st4" d="M254.5,163.9c-0.3,0.2-1.1,0.4-2.1,0.4c-2.2,0-3.6-1.5-3.6-3.7c0-2.2,1.5-3.9,3.9-3.9c0.8,0,1.5,0.2,1.8,0.4
			l-0.3,1c-0.3-0.2-0.8-0.3-1.5-0.3c-1.7,0-2.6,1.2-2.6,2.7c0,1.7,1.1,2.7,2.5,2.7c0.8,0,1.2-0.2,1.6-0.4L254.5,163.9z"/>
		<path class="st4" d="M262.1,162.2c0,0.8,0,1.4,0.1,2H261l-0.1-1.2h0c-0.3,0.6-1.1,1.4-2.4,1.4c-1.1,0-2.5-0.6-2.5-3.2v-4.2h1.3v4
			c0,1.4,0.4,2.3,1.6,2.3c0.9,0,1.5-0.6,1.7-1.2c0.1-0.2,0.1-0.4,0.1-0.7v-4.5h1.3V162.2z"/>
		<path class="st4" d="M265,160.8c0,1.8,1.2,2.5,2.5,2.5c0.9,0,1.5-0.2,2-0.4l0.2,0.9c-0.5,0.2-1.3,0.4-2.4,0.4
			c-2.2,0-3.6-1.5-3.6-3.7s1.3-3.9,3.4-3.9c2.4,0,3,2.1,3,3.4c0,0.3,0,0.5,0,0.6H265z M268.9,159.8c0-0.8-0.3-2.1-1.8-2.1
			c-1.3,0-1.9,1.2-2,2.1H268.9z"/>
		<path class="st4" d="M271.8,158.8c0-0.8,0-1.4-0.1-2h1.2l0.1,1.2h0c0.4-0.7,1.2-1.4,2.4-1.4c1,0,2.6,0.6,2.6,3.1v4.3h-1.3V160
			c0-1.2-0.4-2.1-1.7-2.1c-0.9,0-1.5,0.6-1.8,1.3c-0.1,0.2-0.1,0.4-0.1,0.6v4.4h-1.3V158.8z"/>
		<path class="st4" d="M281.7,154.8v2.1h1.9v1h-1.9v3.9c0,0.9,0.3,1.4,1,1.4c0.3,0,0.6,0,0.8-0.1l0.1,1c-0.3,0.1-0.7,0.2-1.2,0.2
			c-0.6,0-1.1-0.2-1.4-0.6c-0.4-0.4-0.5-1-0.5-1.9v-4h-1.1v-1h1.1v-1.7L281.7,154.8z"/>
		<path class="st4" d="M289.1,164.1l-0.1-0.9h0c-0.4,0.6-1.2,1.1-2.2,1.1c-1.5,0-2.2-1-2.2-2.1c0-1.8,1.6-2.7,4.4-2.7v-0.2
			c0-0.6-0.2-1.7-1.6-1.7c-0.7,0-1.4,0.2-1.9,0.5l-0.3-0.9c0.6-0.4,1.5-0.6,2.4-0.6c2.2,0,2.8,1.5,2.8,3v2.7c0,0.6,0,1.2,0.1,1.7
			H289.1z M288.9,160.4c-1.4,0-3.1,0.2-3.1,1.6c0,0.9,0.6,1.3,1.2,1.3c0.9,0,1.5-0.6,1.8-1.2c0-0.1,0.1-0.3,0.1-0.4V160.4z"/>
		<path class="st4" d="M292.1,162.8c0.4,0.3,1.1,0.5,1.7,0.5c1,0,1.4-0.5,1.4-1.1c0-0.6-0.4-1-1.3-1.3c-1.3-0.5-1.9-1.2-1.9-2.1
			c0-1.2,0.9-2.1,2.5-2.1c0.7,0,1.4,0.2,1.8,0.5l-0.3,1c-0.3-0.2-0.8-0.4-1.5-0.4c-0.8,0-1.2,0.4-1.2,1c0,0.6,0.4,0.9,1.4,1.2
			c1.3,0.5,1.9,1.1,1.9,2.2c0,1.3-1,2.2-2.7,2.2c-0.8,0-1.5-0.2-2-0.5L292.1,162.8z"/>
		<path class="st4" d="M297.7,163.4c0-0.6,0.4-0.9,0.9-0.9c0.5,0,0.9,0.4,0.9,0.9c0,0.5-0.3,0.9-0.9,0.9
			C298.1,164.3,297.7,163.9,297.7,163.4z"/>
		<path class="st4" d="M305.7,154v10.1h-1.3V154H305.7z"/>
		<path class="st4" d="M308.1,158.8c0-0.8,0-1.4-0.1-2h1.2l0.1,1.2h0c0.4-0.7,1.2-1.4,2.4-1.4c1,0,2.6,0.6,2.6,3.1v4.3h-1.3V160
			c0-1.2-0.4-2.1-1.7-2.1c-0.9,0-1.5,0.6-1.8,1.3c-0.1,0.2-0.1,0.4-0.1,0.6v4.4h-1.3V158.8z"/>
		<path class="st4" d="M321.6,163.9c-0.3,0.2-1.1,0.4-2.1,0.4c-2.2,0-3.6-1.5-3.6-3.7c0-2.2,1.5-3.9,3.9-3.9c0.8,0,1.5,0.2,1.8,0.4
			l-0.3,1c-0.3-0.2-0.8-0.3-1.5-0.3c-1.7,0-2.6,1.2-2.6,2.7c0,1.7,1.1,2.7,2.5,2.7c0.8,0,1.2-0.2,1.6-0.4L321.6,163.9z"/>
		<path class="st4" d="M323.1,153.5h1.3v10.6h-1.3V153.5z"/>
		<path class="st4" d="M332.7,162.2c0,0.8,0,1.4,0.1,2h-1.2l-0.1-1.2h0c-0.3,0.6-1.1,1.4-2.4,1.4c-1.1,0-2.5-0.6-2.5-3.2v-4.2h1.3v4
			c0,1.4,0.4,2.3,1.6,2.3c0.9,0,1.5-0.6,1.7-1.2c0.1-0.2,0.1-0.4,0.1-0.7v-4.5h1.3V162.2z"/>
		<path class="st4" d="M334.7,162.8c0.4,0.3,1.1,0.5,1.7,0.5c1,0,1.4-0.5,1.4-1.1c0-0.6-0.4-1-1.3-1.3c-1.3-0.5-1.9-1.2-1.9-2.1
			c0-1.2,0.9-2.1,2.5-2.1c0.7,0,1.4,0.2,1.8,0.5l-0.3,1c-0.3-0.2-0.8-0.4-1.5-0.4c-0.8,0-1.2,0.4-1.2,1c0,0.6,0.4,0.9,1.4,1.2
			c1.3,0.5,1.9,1.1,1.9,2.2c0,1.3-1,2.2-2.7,2.2c-0.8,0-1.5-0.2-2-0.5L334.7,162.8z"/>
		<path class="st4" d="M347.4,160.5c0,2.7-1.9,3.9-3.6,3.9c-2,0-3.5-1.4-3.5-3.7c0-2.4,1.6-3.9,3.6-3.9
			C346,156.7,347.4,158.2,347.4,160.5z M341.7,160.5c0,1.6,0.9,2.8,2.2,2.8c1.3,0,2.2-1.2,2.2-2.8c0-1.2-0.6-2.8-2.2-2.8
			C342.4,157.7,341.7,159.1,341.7,160.5z"/>
		<path class="st4" d="M43.8,182.1l-0.1-0.9h0c-0.4,0.6-1.2,1.1-2.2,1.1c-1.5,0-2.2-1-2.2-2.1c0-1.8,1.6-2.7,4.4-2.7v-0.2
			c0-0.6-0.2-1.7-1.6-1.7c-0.7,0-1.4,0.2-1.9,0.5l-0.3-0.9c0.6-0.4,1.5-0.6,2.4-0.6c2.2,0,2.8,1.5,2.8,3v2.7c0,0.6,0,1.2,0.1,1.7
			H43.8z M43.6,178.4c-1.4,0-3.1,0.2-3.1,1.6c0,0.9,0.6,1.3,1.2,1.3c0.9,0,1.5-0.6,1.8-1.2c0-0.1,0.1-0.3,0.1-0.4V178.4z"/>
		<path class="st4" d="M53.1,180.2c0,0.8,0,1.4,0.1,2H52l-0.1-1.2h0c-0.3,0.6-1.1,1.4-2.4,1.4c-1.1,0-2.5-0.6-2.5-3.2v-4.2h1.3v4
			c0,1.4,0.4,2.3,1.6,2.3c0.9,0,1.5-0.6,1.7-1.2c0.1-0.2,0.1-0.4,0.1-0.7v-4.5h1.3V180.2z"/>
		<path class="st4" d="M55.3,176.8c0-0.8,0-1.4-0.1-2h1.2l0.1,1.2h0c0.4-0.7,1.2-1.4,2.4-1.4c1,0,2.6,0.6,2.6,3.1v4.3h-1.3V178
			c0-1.2-0.4-2.1-1.7-2.1c-0.9,0-1.5,0.6-1.8,1.3c-0.1,0.2-0.1,0.4-0.1,0.6v4.4h-1.3V176.8z"/>
		<path class="st4" d="M68.5,181L68.5,181c-0.4,0.7-1.2,1.3-2.4,1.3c-1.7,0-3.1-1.5-3.1-3.7c0-2.7,1.8-3.9,3.3-3.9
			c1.1,0,1.9,0.6,2.2,1.3h0l0-1.1h1.2c0,0.6,0,1.2,0,2v8.2h-1.3V181z M68.5,177.8c0-0.2,0-0.4-0.1-0.6c-0.2-0.8-0.9-1.5-1.9-1.5
			c-1.4,0-2.2,1.2-2.2,2.8c0,1.4,0.7,2.7,2.1,2.7c0.9,0,1.6-0.5,1.9-1.4c0.1-0.2,0.1-0.4,0.1-0.6V177.8z"/>
		<path class="st4" d="M78.1,180.2c0,0.8,0,1.4,0.1,2H77l-0.1-1.2h0c-0.3,0.6-1.1,1.4-2.4,1.4c-1.1,0-2.5-0.6-2.5-3.2v-4.2h1.3v4
			c0,1.4,0.4,2.3,1.6,2.3c0.9,0,1.5-0.6,1.7-1.2c0.1-0.2,0.1-0.4,0.1-0.7v-4.5h1.3V180.2z"/>
		<path class="st4" d="M81,178.8c0,1.8,1.2,2.5,2.5,2.5c0.9,0,1.5-0.2,2-0.4l0.2,0.9c-0.5,0.2-1.3,0.4-2.4,0.4
			c-2.2,0-3.6-1.5-3.6-3.7s1.3-3.9,3.4-3.9c2.4,0,3,2.1,3,3.4c0,0.3,0,0.5,0,0.6H81z M84.9,177.8c0-0.8-0.3-2.1-1.8-2.1
			c-1.3,0-1.9,1.2-2,2.1H84.9z"/>
		<path class="st4" d="M92.6,172.8v2.1h1.9v1h-1.9v3.9c0,0.9,0.3,1.4,1,1.4c0.3,0,0.6,0,0.8-0.1l0.1,1c-0.3,0.1-0.7,0.2-1.2,0.2
			c-0.6,0-1.1-0.2-1.4-0.6c-0.4-0.4-0.5-1-0.5-1.9v-4h-1.1v-1h1.1v-1.7L92.6,172.8z"/>
		<path class="st4" d="M102,180.2c0,0.8,0,1.4,0.1,2h-1.2l-0.1-1.2h0c-0.3,0.6-1.1,1.4-2.4,1.4c-1.1,0-2.5-0.6-2.5-3.2v-4.2h1.3v4
			c0,1.4,0.4,2.3,1.6,2.3c0.9,0,1.5-0.6,1.7-1.2c0.1-0.2,0.1-0.4,0.1-0.7v-4.5h1.3V180.2z"/>
		<path class="st4" d="M112.6,181.9c-0.3,0.2-1.1,0.4-2.1,0.4c-2.2,0-3.6-1.5-3.6-3.7c0-2.2,1.5-3.9,3.9-3.9c0.8,0,1.5,0.2,1.8,0.4
			l-0.3,1c-0.3-0.2-0.8-0.3-1.5-0.3c-1.7,0-2.6,1.2-2.6,2.7c0,1.7,1.1,2.7,2.5,2.7c0.8,0,1.2-0.2,1.6-0.4L112.6,181.9z"/>
		<path class="st4" d="M120.6,178.5c0,2.7-1.9,3.9-3.6,3.9c-2,0-3.5-1.4-3.5-3.7c0-2.4,1.6-3.9,3.6-3.9
			C119.2,174.7,120.6,176.2,120.6,178.5z M114.8,178.5c0,1.6,0.9,2.8,2.2,2.8c1.3,0,2.2-1.2,2.2-2.8c0-1.2-0.6-2.8-2.2-2.8
			C115.5,175.7,114.8,177.1,114.8,178.5z"/>
		<path class="st4" d="M122.3,176.8c0-0.8,0-1.4-0.1-2h1.2l0.1,1.2h0c0.4-0.7,1.2-1.4,2.4-1.4c1,0,2.6,0.6,2.6,3.1v4.3h-1.3V178
			c0-1.2-0.4-2.1-1.7-2.1c-0.9,0-1.5,0.6-1.8,1.3c-0.1,0.2-0.1,0.4-0.1,0.6v4.4h-1.3V176.8z"/>
		<path class="st4" d="M132.1,172.8v2.1h1.9v1h-1.9v3.9c0,0.9,0.3,1.4,1,1.4c0.3,0,0.6,0,0.8-0.1l0.1,1c-0.3,0.1-0.7,0.2-1.2,0.2
			c-0.6,0-1.1-0.2-1.4-0.6c-0.4-0.4-0.5-1-0.5-1.9v-4h-1.1v-1h1.1v-1.7L132.1,172.8z"/>
		<path class="st4" d="M135.5,177.1c0-0.9,0-1.6-0.1-2.3h1.2l0,1.4h0.1c0.3-1,1.1-1.6,2-1.6c0.2,0,0.3,0,0.4,0v1.2
			c-0.1,0-0.3,0-0.5,0c-0.9,0-1.6,0.7-1.8,1.7c0,0.2-0.1,0.4-0.1,0.6v3.9h-1.3V177.1z"/>
		<path class="st4" d="M144.4,182.1l-0.1-0.9h0c-0.4,0.6-1.2,1.1-2.2,1.1c-1.5,0-2.2-1-2.2-2.1c0-1.8,1.6-2.7,4.4-2.7v-0.2
			c0-0.6-0.2-1.7-1.6-1.7c-0.7,0-1.4,0.2-1.9,0.5l-0.3-0.9c0.6-0.4,1.5-0.6,2.4-0.6c2.2,0,2.8,1.5,2.8,3v2.7c0,0.6,0,1.2,0.1,1.7
			H144.4z M144.2,178.4c-1.4,0-3.1,0.2-3.1,1.6c0,0.9,0.6,1.3,1.2,1.3c0.9,0,1.5-0.6,1.8-1.2c0-0.1,0.1-0.3,0.1-0.4V178.4z"/>
		<path class="st4" d="M147.4,180.8c0.4,0.3,1.1,0.5,1.7,0.5c1,0,1.4-0.5,1.4-1.1c0-0.6-0.4-1-1.3-1.3c-1.3-0.5-1.9-1.2-1.9-2.1
			c0-1.2,0.9-2.1,2.5-2.1c0.7,0,1.4,0.2,1.8,0.5l-0.3,1c-0.3-0.2-0.8-0.4-1.5-0.4c-0.8,0-1.2,0.4-1.2,1c0,0.6,0.4,0.9,1.4,1.2
			c1.3,0.5,1.9,1.1,1.9,2.2c0,1.3-1,2.2-2.7,2.2c-0.8,0-1.5-0.2-2-0.5L147.4,180.8z"/>
		<path class="st4" d="M154.2,178.8c0,1.8,1.2,2.5,2.5,2.5c0.9,0,1.5-0.2,2-0.4l0.2,0.9c-0.5,0.2-1.3,0.4-2.4,0.4
			c-2.2,0-3.6-1.5-3.6-3.7s1.3-3.9,3.4-3.9c2.4,0,3,2.1,3,3.4c0,0.3,0,0.5,0,0.6H154.2z M158.1,177.8c0-0.8-0.3-2.1-1.8-2.1
			c-1.3,0-1.9,1.2-2,2.1H158.1z"/>
		<path class="st4" d="M161,176.8c0-0.8,0-1.4-0.1-2h1.2l0.1,1.2h0c0.4-0.7,1.2-1.4,2.4-1.4c1,0,2.6,0.6,2.6,3.1v4.3h-1.3V178
			c0-1.2-0.4-2.1-1.7-2.1c-0.9,0-1.5,0.6-1.8,1.3c-0.1,0.2-0.1,0.4-0.1,0.6v4.4H161V176.8z M162.2,173.6c0-1,0.4-1.6,1-1.6
			c0.3,0,0.6,0.1,0.9,0.3c0.2,0.1,0.5,0.3,0.6,0.3c0.2,0,0.4-0.1,0.4-0.6h0.7c0,1-0.3,1.5-1,1.5c-0.3,0-0.6-0.1-0.9-0.3
			c-0.3-0.2-0.5-0.3-0.6-0.3c-0.2,0-0.4,0.3-0.4,0.7H162.2z"/>
		<path class="st4" d="M173.4,182.1l-0.1-0.9h0c-0.4,0.6-1.2,1.1-2.2,1.1c-1.5,0-2.2-1-2.2-2.1c0-1.8,1.6-2.7,4.4-2.7v-0.2
			c0-0.6-0.2-1.7-1.6-1.7c-0.7,0-1.4,0.2-1.9,0.5l-0.3-0.9c0.6-0.4,1.5-0.6,2.4-0.6c2.2,0,2.8,1.5,2.8,3v2.7c0,0.6,0,1.2,0.1,1.7
			H173.4z M173.2,178.4c-1.4,0-3.1,0.2-3.1,1.6c0,0.9,0.6,1.3,1.2,1.3c0.9,0,1.5-0.6,1.8-1.2c0-0.1,0.1-0.3,0.1-0.4V178.4z"/>
		<path class="st4" d="M179.7,176.8c0-0.8,0-1.4-0.1-2h1.2l0.1,1.2h0c0.4-0.7,1.2-1.4,2.4-1.4c1,0,2.6,0.6,2.6,3.1v4.3h-1.3V178
			c0-1.2-0.4-2.1-1.7-2.1c-0.9,0-1.5,0.6-1.8,1.3c-0.1,0.2-0.1,0.4-0.1,0.6v4.4h-1.3V176.8z"/>
		<path class="st4" d="M194.6,178.5c0,2.7-1.9,3.9-3.6,3.9c-2,0-3.5-1.4-3.5-3.7c0-2.4,1.6-3.9,3.6-3.9
			C193.2,174.7,194.6,176.2,194.6,178.5z M188.9,178.5c0,1.6,0.9,2.8,2.2,2.8c1.3,0,2.2-1.2,2.2-2.8c0-1.2-0.6-2.8-2.2-2.8
			C189.6,175.7,188.9,177.1,188.9,178.5z"/>
		<path class="st4" d="M199.3,180.8c0.4,0.3,1.1,0.5,1.7,0.5c1,0,1.4-0.5,1.4-1.1c0-0.6-0.4-1-1.3-1.3c-1.3-0.5-1.9-1.2-1.9-2.1
			c0-1.2,0.9-2.1,2.5-2.1c0.7,0,1.4,0.2,1.8,0.5l-0.3,1c-0.3-0.2-0.8-0.4-1.5-0.4c-0.8,0-1.2,0.4-1.2,1c0,0.6,0.4,0.9,1.4,1.2
			c1.3,0.5,1.9,1.1,1.9,2.2c0,1.3-1,2.2-2.7,2.2c-0.8,0-1.5-0.2-2-0.5L199.3,180.8z"/>
		<path class="st4" d="M206.2,178.8c0,1.8,1.2,2.5,2.5,2.5c0.9,0,1.5-0.2,2-0.4l0.2,0.9c-0.5,0.2-1.3,0.4-2.4,0.4
			c-2.2,0-3.6-1.5-3.6-3.7s1.3-3.9,3.4-3.9c2.4,0,3,2.1,3,3.4c0,0.3,0,0.5,0,0.6H206.2z M210,177.8c0-0.8-0.3-2.1-1.8-2.1
			c-1.3,0-1.9,1.2-2,2.1H210z"/>
		<path class="st4" d="M217,182.1l-0.1-0.9h0c-0.4,0.6-1.2,1.1-2.2,1.1c-1.5,0-2.2-1-2.2-2.1c0-1.8,1.6-2.7,4.4-2.7v-0.2
			c0-0.6-0.2-1.7-1.6-1.7c-0.7,0-1.4,0.2-1.9,0.5l-0.3-0.9c0.6-0.4,1.5-0.6,2.4-0.6c2.2,0,2.8,1.5,2.8,3v2.7c0,0.6,0,1.2,0.1,1.7
			H217z M216.8,178.4c-1.4,0-3.1,0.2-3.1,1.6c0,0.9,0.6,1.3,1.2,1.3c0.9,0,1.5-0.6,1.8-1.2c0-0.1,0.1-0.3,0.1-0.4V178.4z"/>
		<path class="st4" d="M223.2,180.8c0.4,0.3,1.1,0.5,1.7,0.5c1,0,1.4-0.5,1.4-1.1c0-0.6-0.4-1-1.3-1.3c-1.3-0.5-1.9-1.2-1.9-2.1
			c0-1.2,0.9-2.1,2.5-2.1c0.7,0,1.4,0.2,1.8,0.5l-0.3,1c-0.3-0.2-0.8-0.4-1.5-0.4c-0.8,0-1.2,0.4-1.2,1c0,0.6,0.4,0.9,1.4,1.2
			c1.3,0.5,1.9,1.1,1.9,2.2c0,1.3-1,2.2-2.7,2.2c-0.8,0-1.5-0.2-2-0.5L223.2,180.8z"/>
		<path class="st4" d="M230,178.8c0,1.8,1.2,2.5,2.5,2.5c0.9,0,1.5-0.2,2-0.4l0.2,0.9c-0.5,0.2-1.3,0.4-2.4,0.4
			c-2.2,0-3.6-1.5-3.6-3.7s1.3-3.9,3.4-3.9c2.4,0,3,2.1,3,3.4c0,0.3,0,0.5,0,0.6H230z M233.9,177.8c0-0.8-0.3-2.1-1.8-2.1
			c-1.3,0-1.9,1.2-2,2.1H233.9z"/>
		<path class="st4" d="M243.1,174.9c0,0.5-0.1,1.1-0.1,2v4.2c0,1.7-0.3,2.7-1,3.3c-0.7,0.7-1.7,0.9-2.6,0.9c-0.9,0-1.8-0.2-2.4-0.6
			l0.3-1c0.5,0.3,1.2,0.6,2.1,0.6c1.3,0,2.3-0.7,2.3-2.5v-0.8h0c-0.4,0.7-1.2,1.2-2.3,1.2c-1.8,0-3.1-1.5-3.1-3.5
			c0-2.5,1.6-3.9,3.3-3.9c1.3,0,2,0.7,2.3,1.3h0l0.1-1.1H243.1z M241.7,177.7c0-0.2,0-0.4-0.1-0.6c-0.2-0.8-0.9-1.4-1.8-1.4
			c-1.3,0-2.2,1.1-2.2,2.7c0,1.4,0.7,2.6,2.1,2.6c0.8,0,1.5-0.5,1.8-1.3c0.1-0.2,0.1-0.5,0.1-0.7V177.7z"/>
		<path class="st4" d="M251.3,180.2c0,0.8,0,1.4,0.1,2h-1.2l-0.1-1.2h0c-0.3,0.6-1.1,1.4-2.4,1.4c-1.1,0-2.5-0.6-2.5-3.2v-4.2h1.3v4
			c0,1.4,0.4,2.3,1.6,2.3c0.9,0,1.5-0.6,1.7-1.2c0.1-0.2,0.1-0.4,0.1-0.7v-4.5h1.3V180.2z"/>
		<path class="st4" d="M253.5,177.1c0-0.9,0-1.6-0.1-2.3h1.2l0,1.4h0.1c0.3-1,1.1-1.6,2-1.6c0.2,0,0.3,0,0.4,0v1.2
			c-0.1,0-0.3,0-0.5,0c-0.9,0-1.6,0.7-1.8,1.7c0,0.2-0.1,0.4-0.1,0.6v3.9h-1.3V177.1z"/>
		<path class="st4" d="M262.3,182.1l-0.1-0.9h0c-0.4,0.6-1.2,1.1-2.2,1.1c-1.5,0-2.2-1-2.2-2.1c0-1.8,1.6-2.7,4.4-2.7v-0.2
			c0-0.6-0.2-1.7-1.6-1.7c-0.7,0-1.4,0.2-1.9,0.5l-0.3-0.9c0.6-0.4,1.5-0.6,2.4-0.6c2.2,0,2.8,1.5,2.8,3v2.7c0,0.6,0,1.2,0.1,1.7
			H262.3z M262.1,178.4c-1.4,0-3.1,0.2-3.1,1.6c0,0.9,0.6,1.3,1.2,1.3c0.9,0,1.5-0.6,1.8-1.2c0-0.1,0.1-0.3,0.1-0.4V178.4z"/>
		<path class="st4" d="M269.2,174.9l1.6,4.3c0.2,0.5,0.3,1,0.5,1.5h0c0.1-0.4,0.3-1,0.5-1.5l1.4-4.3h1.4l-2,5.2
			c-0.9,2.5-1.6,3.8-2.5,4.5c-0.6,0.6-1.3,0.8-1.6,0.9l-0.3-1.1c0.3-0.1,0.8-0.3,1.2-0.6c0.4-0.3,0.8-0.8,1.1-1.5
			c0.1-0.1,0.1-0.2,0.1-0.3c0-0.1,0-0.2-0.1-0.3l-2.7-6.7H269.2z"/>
		<path class="st4" d="M278.9,171.5h1.3v10.6h-1.3V171.5z"/>
		<path class="st4" d="M286.5,182.1l-0.1-0.9h0c-0.4,0.6-1.2,1.1-2.2,1.1c-1.5,0-2.2-1-2.2-2.1c0-1.8,1.6-2.7,4.4-2.7v-0.2
			c0-0.6-0.2-1.7-1.6-1.7c-0.7,0-1.4,0.2-1.9,0.5l-0.3-0.9c0.6-0.4,1.5-0.6,2.4-0.6c2.2,0,2.8,1.5,2.8,3v2.7c0,0.6,0,1.2,0.1,1.7
			H286.5z M286.3,178.4c-1.4,0-3.1,0.2-3.1,1.6c0,0.9,0.6,1.3,1.2,1.3c0.9,0,1.5-0.6,1.8-1.2c0-0.1,0.1-0.3,0.1-0.4V178.4z"/>
		<path class="st4" d="M292.9,171.5h1.3v4.5h0c0.2-0.4,0.5-0.7,0.9-0.9c0.4-0.2,0.9-0.4,1.4-0.4c1,0,2.5,0.6,2.5,3.1v4.3h-1.3V178
			c0-1.2-0.4-2.2-1.7-2.2c-0.9,0-1.5,0.6-1.8,1.3c-0.1,0.2-0.1,0.4-0.1,0.6v4.4h-1.3V171.5z"/>
		<path class="st4" d="M305.2,182.1l-0.1-0.9h0c-0.4,0.6-1.2,1.1-2.2,1.1c-1.5,0-2.2-1-2.2-2.1c0-1.8,1.6-2.7,4.4-2.7v-0.2
			c0-0.6-0.2-1.7-1.6-1.7c-0.7,0-1.4,0.2-1.9,0.5l-0.3-0.9c0.6-0.4,1.5-0.6,2.4-0.6c2.2,0,2.8,1.5,2.8,3v2.7c0,0.6,0,1.2,0.1,1.7
			H305.2z M305,178.4c-1.4,0-3.1,0.2-3.1,1.6c0,0.9,0.6,1.3,1.2,1.3c0.9,0,1.5-0.6,1.8-1.2c0-0.1,0.1-0.3,0.1-0.4V178.4z"/>
		<path class="st4" d="M308.8,174.9l1.6,4.3c0.2,0.5,0.3,1,0.5,1.5h0c0.1-0.4,0.3-1,0.5-1.5l1.4-4.3h1.4l-2,5.2
			c-0.9,2.5-1.6,3.8-2.5,4.5c-0.6,0.6-1.3,0.8-1.6,0.9l-0.3-1.1c0.3-0.1,0.8-0.3,1.2-0.6c0.4-0.3,0.8-0.8,1.1-1.5
			c0.1-0.1,0.1-0.2,0.1-0.3c0-0.1,0-0.2-0.1-0.3l-2.7-6.7H308.8z"/>
		<path class="st4" d="M319.3,182.1l-0.1-0.9h0c-0.4,0.6-1.2,1.1-2.2,1.1c-1.5,0-2.2-1-2.2-2.1c0-1.8,1.6-2.7,4.4-2.7v-0.2
			c0-0.6-0.2-1.7-1.6-1.7c-0.7,0-1.4,0.2-1.9,0.5l-0.3-0.9c0.6-0.4,1.5-0.6,2.4-0.6c2.2,0,2.8,1.5,2.8,3v2.7c0,0.6,0,1.2,0.1,1.7
			H319.3z M319.2,178.4c-1.4,0-3.1,0.2-3.1,1.6c0,0.9,0.6,1.3,1.2,1.3c0.9,0,1.5-0.6,1.8-1.2c0-0.1,0.1-0.3,0.1-0.4V178.4z"/>
		<path class="st4" d="M322.6,176.8c0-0.8,0-1.4-0.1-2h1.2l0.1,1.2h0c0.4-0.7,1.2-1.4,2.4-1.4c1,0,2.6,0.6,2.6,3.1v4.3h-1.3V178
			c0-1.2-0.4-2.1-1.7-2.1c-0.9,0-1.5,0.6-1.8,1.3c-0.1,0.2-0.1,0.4-0.1,0.6v4.4h-1.3V176.8z"/>
		<path class="st4" d="M24.8,200.1l-0.1-0.9h0c-0.4,0.6-1.2,1.1-2.2,1.1c-1.5,0-2.2-1-2.2-2.1c0-1.8,1.6-2.7,4.4-2.7v-0.2
			c0-0.6-0.2-1.7-1.6-1.7c-0.7,0-1.4,0.2-1.9,0.5l-0.3-0.9c0.6-0.4,1.5-0.6,2.4-0.6c2.2,0,2.8,1.5,2.8,3v2.7c0,0.6,0,1.2,0.1,1.7
			H24.8z M24.6,196.4c-1.4,0-3.1,0.2-3.1,1.6c0,0.9,0.6,1.3,1.2,1.3c0.9,0,1.5-0.6,1.8-1.2c0-0.1,0.1-0.3,0.1-0.4V196.4z"/>
		<path class="st4" d="M34.3,189.5v8.8c0,0.6,0,1.4,0.1,1.9h-1.2l-0.1-1.3h0c-0.4,0.8-1.3,1.4-2.5,1.4c-1.8,0-3.1-1.5-3.1-3.7
			c0-2.4,1.5-3.9,3.3-3.9c1.1,0,1.9,0.5,2.2,1.1h0v-4.3H34.3z M32.9,195.8c0-0.2,0-0.4-0.1-0.6c-0.2-0.8-0.9-1.5-1.9-1.5
			c-1.4,0-2.2,1.2-2.2,2.8c0,1.5,0.7,2.7,2.1,2.7c0.9,0,1.7-0.6,1.9-1.6c0-0.2,0.1-0.4,0.1-0.6V195.8z"/>
		<path class="st4" d="M37.9,190.8c0,0.5-0.3,0.8-0.8,0.8c-0.5,0-0.8-0.4-0.8-0.8c0-0.5,0.3-0.8,0.8-0.8
			C37.6,190,37.9,190.4,37.9,190.8z M36.4,200.1v-7.3h1.3v7.3H36.4z"/>
		<path class="st4" d="M40.5,192.9l1.4,4.1c0.2,0.7,0.4,1.3,0.6,1.9h0c0.2-0.6,0.4-1.2,0.6-1.9l1.4-4.1h1.4l-2.8,7.3h-1.3l-2.8-7.3
			H40.5z"/>
		<path class="st4" d="M48.6,190.8c0,0.5-0.3,0.8-0.8,0.8c-0.5,0-0.8-0.4-0.8-0.8c0-0.5,0.3-0.8,0.8-0.8
			C48.3,190,48.6,190.4,48.6,190.8z M47.2,200.1v-7.3h1.3v7.3H47.2z"/>
		<path class="st4" d="M50.7,194.8c0-0.8,0-1.4-0.1-2h1.2l0.1,1.2h0c0.4-0.7,1.2-1.4,2.4-1.4c1,0,2.6,0.6,2.6,3.1v4.3h-1.3V196
			c0-1.2-0.4-2.1-1.7-2.1c-0.9,0-1.5,0.6-1.8,1.3c-0.1,0.2-0.1,0.4-0.1,0.6v4.4h-1.3V194.8z"/>
		<path class="st4" d="M63,200.1l-0.1-0.9h0c-0.4,0.6-1.2,1.1-2.2,1.1c-1.5,0-2.2-1-2.2-2.1c0-1.8,1.6-2.7,4.4-2.7v-0.2
			c0-0.6-0.2-1.7-1.6-1.7c-0.7,0-1.4,0.2-1.9,0.5l-0.3-0.9c0.6-0.4,1.5-0.6,2.4-0.6c2.2,0,2.8,1.5,2.8,3v2.7c0,0.6,0,1.2,0.1,1.7H63
			z M62.8,196.4c-1.4,0-3.1,0.2-3.1,1.6c0,0.9,0.6,1.3,1.2,1.3c0.9,0,1.5-0.6,1.8-1.2c0-0.1,0.1-0.3,0.1-0.4V196.4z"/>
		<path class="st4" d="M72.5,189.5v8.8c0,0.6,0,1.4,0.1,1.9h-1.2l-0.1-1.3h0c-0.4,0.8-1.3,1.4-2.5,1.4c-1.8,0-3.1-1.5-3.1-3.7
			c0-2.4,1.5-3.9,3.3-3.9c1.1,0,1.9,0.5,2.2,1.1h0v-4.3H72.5z M71.2,195.8c0-0.2,0-0.4-0.1-0.6c-0.2-0.8-0.9-1.5-1.9-1.5
			c-1.4,0-2.2,1.2-2.2,2.8c0,1.5,0.7,2.7,2.1,2.7c0.9,0,1.7-0.6,1.9-1.6c0-0.2,0.1-0.4,0.1-0.6V195.8z"/>
		<path class="st4" d="M81.3,196.5c0,2.7-1.9,3.9-3.6,3.9c-2,0-3.5-1.4-3.5-3.7c0-2.4,1.6-3.9,3.6-3.9
			C79.9,192.7,81.3,194.2,81.3,196.5z M75.5,196.5c0,1.6,0.9,2.8,2.2,2.8c1.3,0,2.2-1.2,2.2-2.8c0-1.2-0.6-2.8-2.2-2.8
			C76.2,193.7,75.5,195.1,75.5,196.5z"/>
		<path class="st4" d="M81.7,202c0.3-0.9,0.7-2.5,0.9-3.6l1.5-0.2c-0.3,1.3-1,2.9-1.4,3.6L81.7,202z"/>
		<path class="st4" d="M88.7,198.8c0.4,0.3,1.1,0.5,1.7,0.5c1,0,1.4-0.5,1.4-1.1c0-0.6-0.4-1-1.3-1.3c-1.3-0.5-1.9-1.2-1.9-2.1
			c0-1.2,0.9-2.1,2.5-2.1c0.7,0,1.4,0.2,1.8,0.5l-0.3,1c-0.3-0.2-0.8-0.4-1.5-0.4c-0.8,0-1.2,0.4-1.2,1c0,0.6,0.4,0.9,1.4,1.2
			c1.3,0.5,1.9,1.1,1.9,2.2c0,1.3-1,2.2-2.7,2.2c-0.8,0-1.5-0.2-2-0.5L88.7,198.8z"/>
		<path class="st4" d="M96.3,190.8c0,0.5-0.3,0.8-0.8,0.8c-0.5,0-0.8-0.4-0.8-0.8c0-0.5,0.3-0.8,0.8-0.8
			C95.9,190,96.3,190.4,96.3,190.8z M94.8,200.1v-7.3h1.3v7.3H94.8z"/>
		<path class="st4" d="M103.1,190.8v2.1h1.9v1h-1.9v3.9c0,0.9,0.3,1.4,1,1.4c0.3,0,0.6,0,0.8-0.1l0.1,1c-0.3,0.1-0.7,0.2-1.2,0.2
			c-0.6,0-1.1-0.2-1.4-0.6c-0.4-0.4-0.5-1-0.5-1.9v-4h-1.1v-1h1.1v-1.7L103.1,190.8z"/>
		<path class="st4" d="M107.9,190.8c0,0.5-0.3,0.8-0.8,0.8c-0.5,0-0.8-0.4-0.8-0.8c0-0.5,0.3-0.8,0.8-0.8
			C107.6,190,107.9,190.4,107.9,190.8z M106.4,200.1v-7.3h1.3v7.3H106.4z"/>
		<path class="st4" d="M110.7,196.8c0,1.8,1.2,2.5,2.5,2.5c0.9,0,1.5-0.2,2-0.4l0.2,0.9c-0.5,0.2-1.3,0.4-2.4,0.4
			c-2.2,0-3.6-1.5-3.6-3.7s1.3-3.9,3.4-3.9c2.4,0,3,2.1,3,3.4c0,0.3,0,0.5,0,0.6H110.7z M114.6,195.8c0-0.8-0.3-2.1-1.8-2.1
			c-1.3,0-1.9,1.2-2,2.1H114.6z"/>
		<path class="st4" d="M117.5,194.8c0-0.8,0-1.4-0.1-2h1.2l0.1,1.2h0c0.4-0.7,1.2-1.4,2.4-1.4c1,0,2.6,0.6,2.6,3.1v4.3h-1.3V196
			c0-1.2-0.4-2.1-1.7-2.1c-0.9,0-1.5,0.6-1.8,1.3c-0.1,0.2-0.1,0.4-0.1,0.6v4.4h-1.3V194.8z"/>
		<path class="st4" d="M126.5,196.8c0,1.8,1.2,2.5,2.5,2.5c0.9,0,1.5-0.2,2-0.4l0.2,0.9c-0.5,0.2-1.3,0.4-2.4,0.4
			c-2.2,0-3.6-1.5-3.6-3.7s1.3-3.9,3.4-3.9c2.4,0,3,2.1,3,3.4c0,0.3,0,0.5,0,0.6H126.5z M130.4,195.8c0-0.8-0.3-2.1-1.8-2.1
			c-1.3,0-1.9,1.2-2,2.1H130.4z"/>
		<path class="st4" d="M133.1,198.8c0.4,0.3,1.1,0.5,1.7,0.5c1,0,1.4-0.5,1.4-1.1c0-0.6-0.4-1-1.3-1.3c-1.3-0.5-1.9-1.2-1.9-2.1
			c0-1.2,0.9-2.1,2.5-2.1c0.7,0,1.4,0.2,1.8,0.5l-0.3,1c-0.3-0.2-0.8-0.4-1.5-0.4c-0.8,0-1.2,0.4-1.2,1c0,0.6,0.4,0.9,1.4,1.2
			c1.3,0.5,1.9,1.1,1.9,2.2c0,1.3-1,2.2-2.7,2.2c-0.8,0-1.5-0.2-2-0.5L133.1,198.8z"/>
		<path class="st4" d="M146.5,200.1l-0.1-0.9h0c-0.4,0.6-1.2,1.1-2.2,1.1c-1.5,0-2.2-1-2.2-2.1c0-1.8,1.6-2.7,4.4-2.7v-0.2
			c0-0.6-0.2-1.7-1.6-1.7c-0.7,0-1.4,0.2-1.9,0.5l-0.3-0.9c0.6-0.4,1.5-0.6,2.4-0.6c2.2,0,2.8,1.5,2.8,3v2.7c0,0.6,0,1.2,0.1,1.7
			H146.5z M146.3,196.4c-1.4,0-3.1,0.2-3.1,1.6c0,0.9,0.6,1.3,1.2,1.3c0.9,0,1.5-0.6,1.8-1.2c0-0.1,0.1-0.3,0.1-0.4V196.4z"/>
		<path class="st4" d="M155.7,198.2c0,0.8,0,1.4,0.1,2h-1.2l-0.1-1.2h0c-0.3,0.6-1.1,1.4-2.4,1.4c-1.1,0-2.5-0.6-2.5-3.2v-4.2h1.3v4
			c0,1.4,0.4,2.3,1.6,2.3c0.9,0,1.5-0.6,1.7-1.2c0.1-0.2,0.1-0.4,0.1-0.7v-4.5h1.3V198.2z"/>
		<path class="st4" d="M159.5,190.8v2.1h1.9v1h-1.9v3.9c0,0.9,0.3,1.4,1,1.4c0.3,0,0.6,0,0.8-0.1l0.1,1c-0.3,0.1-0.7,0.2-1.2,0.2
			c-0.6,0-1.1-0.2-1.4-0.6c-0.4-0.4-0.5-1-0.5-1.9v-4h-1.1v-1h1.1v-1.7L159.5,190.8z"/>
		<path class="st4" d="M163.5,196.8c0,1.8,1.2,2.5,2.5,2.5c0.9,0,1.5-0.2,2-0.4l0.2,0.9c-0.5,0.2-1.3,0.4-2.4,0.4
			c-2.2,0-3.6-1.5-3.6-3.7s1.3-3.9,3.4-3.9c2.4,0,3,2.1,3,3.4c0,0.3,0,0.5,0,0.6H163.5z M167.4,195.8c0-0.8-0.3-2.1-1.8-2.1
			c-1.3,0-1.9,1.2-2,2.1H167.4z"/>
		<path class="st4" d="M170.3,194.8c0-0.8,0-1.4-0.1-2h1.2l0.1,1.2h0c0.4-0.7,1.2-1.4,2.4-1.4c1,0,2.6,0.6,2.6,3.1v4.3h-1.3V196
			c0-1.2-0.4-2.1-1.7-2.1c-0.9,0-1.5,0.6-1.8,1.3c-0.1,0.2-0.1,0.4-0.1,0.6v4.4h-1.3V194.8z"/>
		<path class="st4" d="M180.2,190.8v2.1h1.9v1h-1.9v3.9c0,0.9,0.3,1.4,1,1.4c0.3,0,0.6,0,0.8-0.1l0.1,1c-0.3,0.1-0.7,0.2-1.2,0.2
			c-0.6,0-1.1-0.2-1.4-0.6c-0.4-0.4-0.5-1-0.5-1.9v-4h-1.1v-1h1.1v-1.7L180.2,190.8z"/>
		<path class="st4" d="M185,190.8c0,0.5-0.3,0.8-0.8,0.8c-0.5,0-0.8-0.4-0.8-0.8c0-0.5,0.3-0.8,0.8-0.8
			C184.7,190,185,190.4,185,190.8z M183.5,200.1v-7.3h1.3v7.3H183.5z"/>
		<path class="st4" d="M192.2,199.9c-0.3,0.2-1.1,0.4-2.1,0.4c-2.2,0-3.6-1.5-3.6-3.7c0-2.2,1.5-3.9,3.9-3.9c0.8,0,1.5,0.2,1.8,0.4
			l-0.3,1c-0.3-0.2-0.8-0.3-1.5-0.3c-1.7,0-2.6,1.2-2.6,2.7c0,1.7,1.1,2.7,2.5,2.7c0.8,0,1.2-0.2,1.6-0.4L192.2,199.9z"/>
		<path class="st4" d="M197.8,200.1l-0.1-0.9h0c-0.4,0.6-1.2,1.1-2.2,1.1c-1.5,0-2.2-1-2.2-2.1c0-1.8,1.6-2.7,4.4-2.7v-0.2
			c0-0.6-0.2-1.7-1.6-1.7c-0.7,0-1.4,0.2-1.9,0.5l-0.3-0.9c0.6-0.4,1.5-0.6,2.4-0.6c2.2,0,2.8,1.5,2.8,3v2.7c0,0.6,0,1.2,0.1,1.7
			H197.8z M197.6,196.4c-1.4,0-3.1,0.2-3.1,1.6c0,0.9,0.6,1.3,1.2,1.3c0.9,0,1.5-0.6,1.8-1.2c0-0.1,0.1-0.3,0.1-0.4V196.4z"/>
		<path class="st4" d="M206.2,199.9c-0.3,0.2-1.1,0.4-2.1,0.4c-2.2,0-3.6-1.5-3.6-3.7c0-2.2,1.5-3.9,3.9-3.9c0.8,0,1.5,0.2,1.8,0.4
			l-0.3,1c-0.3-0.2-0.8-0.3-1.5-0.3c-1.7,0-2.6,1.2-2.6,2.7c0,1.7,1.1,2.7,2.5,2.7c0.8,0,1.2-0.2,1.6-0.4L206.2,199.9z"/>
		<path class="st4" d="M209.2,190.8c0,0.5-0.3,0.8-0.8,0.8c-0.5,0-0.8-0.4-0.8-0.8c0-0.5,0.3-0.8,0.8-0.8
			C208.9,190,209.2,190.4,209.2,190.8z M207.7,200.1v-7.3h1.3v7.3H207.7z"/>
		<path class="st4" d="M217.8,196.5c0,2.7-1.9,3.9-3.6,3.9c-2,0-3.5-1.4-3.5-3.7c0-2.4,1.6-3.9,3.6-3.9
			C216.4,192.7,217.8,194.2,217.8,196.5z M212,196.5c0,1.6,0.9,2.8,2.2,2.8c1.3,0,2.2-1.2,2.2-2.8c0-1.2-0.6-2.8-2.2-2.8
			C212.7,193.7,212,195.1,212,196.5z M216.2,189.7l-1.8,2.1h-0.9l1.3-2.1H216.2z"/>
		<path class="st4" d="M219.5,194.8c0-0.8,0-1.4-0.1-2h1.2l0.1,1.2h0c0.4-0.7,1.2-1.4,2.4-1.4c1,0,2.6,0.6,2.6,3.1v4.3h-1.3V196
			c0-1.2-0.4-2.1-1.7-2.1c-0.9,0-1.5,0.6-1.8,1.3c-0.1,0.2-0.1,0.4-0.1,0.6v4.4h-1.3V194.8z"/>
		<path class="st4" d="M231.7,196.8c0,1.8,1.2,2.5,2.5,2.5c0.9,0,1.5-0.2,2-0.4l0.2,0.9c-0.5,0.2-1.3,0.4-2.4,0.4
			c-2.2,0-3.6-1.5-3.6-3.7s1.3-3.9,3.4-3.9c2.4,0,3,2.1,3,3.4c0,0.3,0,0.5,0,0.6H231.7z M235.6,195.8c0-0.8-0.3-2.1-1.8-2.1
			c-1.3,0-1.9,1.2-2,2.1H235.6z"/>
		<path class="st4" d="M238.5,194.8c0-0.8,0-1.4-0.1-2h1.2l0.1,1.2h0c0.4-0.7,1.2-1.4,2.4-1.4c1,0,2.6,0.6,2.6,3.1v4.3h-1.3V196
			c0-1.2-0.4-2.1-1.7-2.1c-0.9,0-1.5,0.6-1.8,1.3c-0.1,0.2-0.1,0.4-0.1,0.6v4.4h-1.3V194.8z"/>
		<path class="st4" d="M256.3,189.5v8.8c0,0.6,0,1.4,0.1,1.9h-1.2l-0.1-1.3h0c-0.4,0.8-1.3,1.4-2.5,1.4c-1.8,0-3.1-1.5-3.1-3.7
			c0-2.4,1.5-3.9,3.3-3.9c1.1,0,1.9,0.5,2.2,1.1h0v-4.3H256.3z M254.9,195.8c0-0.2,0-0.4-0.1-0.6c-0.2-0.8-0.9-1.5-1.9-1.5
			c-1.4,0-2.2,1.2-2.2,2.8c0,1.5,0.7,2.7,2.1,2.7c0.9,0,1.7-0.6,1.9-1.6c0-0.2,0.1-0.4,0.1-0.6V195.8z"/>
		<path class="st4" d="M265,196.5c0,2.7-1.9,3.9-3.6,3.9c-2,0-3.5-1.4-3.5-3.7c0-2.4,1.6-3.9,3.6-3.9
			C263.6,192.7,265,194.2,265,196.5z M259.3,196.5c0,1.6,0.9,2.8,2.2,2.8c1.3,0,2.2-1.2,2.2-2.8c0-1.2-0.6-2.8-2.2-2.8
			C259.9,193.7,259.3,195.1,259.3,196.5z"/>
		<path class="st4" d="M266.5,198.8c0.4,0.3,1.1,0.5,1.7,0.5c1,0,1.4-0.5,1.4-1.1c0-0.6-0.4-1-1.3-1.3c-1.3-0.5-1.9-1.2-1.9-2.1
			c0-1.2,0.9-2.1,2.5-2.1c0.7,0,1.4,0.2,1.8,0.5l-0.3,1c-0.3-0.2-0.8-0.4-1.5-0.4c-0.8,0-1.2,0.4-1.2,1c0,0.6,0.4,0.9,1.4,1.2
			c1.3,0.5,1.9,1.1,1.9,2.2c0,1.3-1,2.2-2.7,2.2c-0.8,0-1.5-0.2-2-0.5L266.5,198.8z"/>
		<path class="st4" d="M275.8,195.3c0-0.9,0-1.7-0.1-2.4h1.2l0.1,1.2h0c0.5-0.9,1.4-1.4,2.6-1.4c1.8,0,3.1,1.5,3.1,3.7
			c0,2.6-1.6,3.9-3.3,3.9c-1,0-1.8-0.4-2.2-1.1h0v3.9h-1.3V195.3z M277.1,197.2c0,0.2,0,0.4,0.1,0.5c0.2,0.9,1,1.5,2,1.5
			c1.4,0,2.2-1.1,2.2-2.8c0-1.5-0.8-2.7-2.2-2.7c-0.9,0-1.7,0.6-2,1.6c0,0.2-0.1,0.4-0.1,0.5V197.2z"/>
		<path class="st4" d="M288.4,200.1l-0.1-0.9h0c-0.4,0.6-1.2,1.1-2.2,1.1c-1.5,0-2.2-1-2.2-2.1c0-1.8,1.6-2.7,4.4-2.7v-0.2
			c0-0.6-0.2-1.7-1.6-1.7c-0.7,0-1.4,0.2-1.9,0.5l-0.3-0.9c0.6-0.4,1.5-0.6,2.4-0.6c2.2,0,2.8,1.5,2.8,3v2.7c0,0.6,0,1.2,0.1,1.7
			H288.4z M288.2,196.4c-1.4,0-3.1,0.2-3.1,1.6c0,0.9,0.6,1.3,1.2,1.3c0.9,0,1.5-0.6,1.8-1.2c0-0.1,0.1-0.3,0.1-0.4V196.4z"/>
		<path class="st4" d="M291.4,198.8c0.4,0.3,1.1,0.5,1.7,0.5c1,0,1.4-0.5,1.4-1.1c0-0.6-0.4-1-1.3-1.3c-1.3-0.5-1.9-1.2-1.9-2.1
			c0-1.2,0.9-2.1,2.5-2.1c0.7,0,1.4,0.2,1.8,0.5l-0.3,1c-0.3-0.2-0.8-0.4-1.5-0.4c-0.8,0-1.2,0.4-1.2,1c0,0.6,0.4,0.9,1.4,1.2
			c1.3,0.5,1.9,1.1,1.9,2.2c0,1.3-1,2.2-2.7,2.2c-0.8,0-1.5-0.2-2-0.5L291.4,198.8z"/>
		<path class="st4" d="M304.1,196.5c0,2.7-1.9,3.9-3.6,3.9c-2,0-3.5-1.4-3.5-3.7c0-2.4,1.6-3.9,3.6-3.9
			C302.7,192.7,304.1,194.2,304.1,196.5z M298.3,196.5c0,1.6,0.9,2.8,2.2,2.8c1.3,0,2.2-1.2,2.2-2.8c0-1.2-0.6-2.8-2.2-2.8
			C299,193.7,298.3,195.1,298.3,196.5z"/>
		<path class="st4" d="M305.6,198.8c0.4,0.3,1.1,0.5,1.7,0.5c1,0,1.4-0.5,1.4-1.1c0-0.6-0.4-1-1.3-1.3c-1.3-0.5-1.9-1.2-1.9-2.1
			c0-1.2,0.9-2.1,2.5-2.1c0.7,0,1.4,0.2,1.8,0.5l-0.3,1c-0.3-0.2-0.8-0.4-1.5-0.4c-0.8,0-1.2,0.4-1.2,1c0,0.6,0.4,0.9,1.4,1.2
			c1.3,0.5,1.9,1.1,1.9,2.2c0,1.3-1,2.2-2.7,2.2c-0.8,0-1.5-0.2-2-0.5L305.6,198.8z"/>
		<path class="st4" d="M314.9,194.8c0-0.8,0-1.4-0.1-2h1.2l0.1,1.2h0c0.4-0.7,1.2-1.4,2.4-1.4c1,0,2.6,0.6,2.6,3.1v4.3h-1.3V196
			c0-1.2-0.4-2.1-1.7-2.1c-0.9,0-1.5,0.6-1.8,1.3c-0.1,0.2-0.1,0.4-0.1,0.6v4.4h-1.3V194.8z"/>
		<path class="st4" d="M327.2,200.1l-0.1-0.9h0c-0.4,0.6-1.2,1.1-2.2,1.1c-1.5,0-2.2-1-2.2-2.1c0-1.8,1.6-2.7,4.4-2.7v-0.2
			c0-0.6-0.2-1.7-1.6-1.7c-0.7,0-1.4,0.2-1.9,0.5l-0.3-0.9c0.6-0.4,1.5-0.6,2.4-0.6c2.2,0,2.8,1.5,2.8,3v2.7c0,0.6,0,1.2,0.1,1.7
			H327.2z M327,196.4c-1.4,0-3.1,0.2-3.1,1.6c0,0.9,0.6,1.3,1.2,1.3c0.9,0,1.5-0.6,1.8-1.2c0-0.1,0.1-0.3,0.1-0.4V196.4z"/>
		<path class="st4" d="M336.7,189.5v8.8c0,0.6,0,1.4,0.1,1.9h-1.2l-0.1-1.3h0c-0.4,0.8-1.3,1.4-2.5,1.4c-1.8,0-3.1-1.5-3.1-3.7
			c0-2.4,1.5-3.9,3.3-3.9c1.1,0,1.9,0.5,2.2,1.1h0v-4.3H336.7z M335.4,195.8c0-0.2,0-0.4-0.1-0.6c-0.2-0.8-0.9-1.5-1.9-1.5
			c-1.4,0-2.2,1.2-2.2,2.8c0,1.5,0.7,2.7,2.1,2.7c0.9,0,1.7-0.6,1.9-1.6c0-0.2,0.1-0.4,0.1-0.6V195.8z"/>
		<path class="st4" d="M340.4,190.8c0,0.5-0.3,0.8-0.8,0.8c-0.5,0-0.8-0.4-0.8-0.8c0-0.5,0.3-0.8,0.8-0.8
			C340,190,340.4,190.4,340.4,190.8z M338.9,200.1v-7.3h1.3v7.3H338.9z"/>
		<path class="st4" d="M343.1,196.8c0,1.8,1.2,2.5,2.5,2.5c0.9,0,1.5-0.2,2-0.4l0.2,0.9c-0.5,0.2-1.3,0.4-2.4,0.4
			c-2.2,0-3.6-1.5-3.6-3.7s1.3-3.9,3.4-3.9c2.4,0,3,2.1,3,3.4c0,0.3,0,0.5,0,0.6H343.1z M347,195.8c0-0.8-0.3-2.1-1.8-2.1
			c-1.3,0-1.9,1.2-2,2.1H347z"/>
		<path class="st4" d="M67.6,212.8c0-0.8,0-1.4-0.1-2h1.2l0.1,1.2h0c0.4-0.7,1.1-1.3,2.3-1.3c1,0,1.7,0.6,2.1,1.5h0
			c0.2-0.4,0.5-0.7,0.8-0.9c0.4-0.3,0.9-0.5,1.6-0.5c1,0,2.4,0.6,2.4,3.1v4.3h-1.3V214c0-1.4-0.5-2.2-1.6-2.2
			c-0.8,0-1.3,0.6-1.6,1.2c-0.1,0.2-0.1,0.4-0.1,0.7v4.5h-1.3v-4.3c0-1.2-0.5-2-1.5-2c-0.8,0-1.4,0.7-1.6,1.3
			c-0.1,0.2-0.1,0.4-0.1,0.6v4.4h-1.3V212.8z"/>
		<path class="st4" d="M84.1,218.1l-0.1-0.9h0c-0.4,0.6-1.2,1.1-2.2,1.1c-1.5,0-2.2-1-2.2-2.1c0-1.8,1.6-2.7,4.4-2.7v-0.2
			c0-0.6-0.2-1.7-1.6-1.7c-0.7,0-1.4,0.2-1.9,0.5l-0.3-0.9c0.6-0.4,1.5-0.6,2.4-0.6c2.2,0,2.8,1.5,2.8,3v2.7c0,0.6,0,1.2,0.1,1.7
			H84.1z M83.9,214.4c-1.4,0-3.1,0.2-3.1,1.6c0,0.9,0.6,1.3,1.2,1.3c0.9,0,1.5-0.6,1.8-1.2c0-0.1,0.1-0.3,0.1-0.4V214.4z
			 M84.6,207.7l-1.8,2.1h-0.9l1.3-2.1H84.6z"/>
		<path class="st4" d="M87.1,216.8c0.4,0.3,1.1,0.5,1.7,0.5c1,0,1.4-0.5,1.4-1.1c0-0.6-0.4-1-1.3-1.3c-1.3-0.5-1.9-1.2-1.9-2.1
			c0-1.2,0.9-2.1,2.5-2.1c0.7,0,1.4,0.2,1.8,0.5l-0.3,1c-0.3-0.2-0.8-0.4-1.5-0.4c-0.8,0-1.2,0.4-1.2,1c0,0.6,0.4,0.9,1.4,1.2
			c1.3,0.5,1.9,1.1,1.9,2.2c0,1.3-1,2.2-2.7,2.2c-0.8,0-1.5-0.2-2-0.5L87.1,216.8z"/>
		<path class="st4" d="M101.4,217L101.4,217c-0.4,0.7-1.2,1.3-2.4,1.3c-1.7,0-3.1-1.5-3.1-3.7c0-2.7,1.8-3.9,3.3-3.9
			c1.1,0,1.9,0.6,2.2,1.3h0l0-1.1h1.2c0,0.6,0,1.2,0,2v8.2h-1.3V217z M101.4,213.8c0-0.2,0-0.4-0.1-0.6c-0.2-0.8-0.9-1.5-1.9-1.5
			c-1.4,0-2.2,1.2-2.2,2.8c0,1.4,0.7,2.7,2.1,2.7c0.9,0,1.6-0.5,1.9-1.4c0.1-0.2,0.1-0.4,0.1-0.6V213.8z"/>
		<path class="st4" d="M110.9,216.2c0,0.8,0,1.4,0.1,2h-1.2l-0.1-1.2h0c-0.3,0.6-1.1,1.4-2.4,1.4c-1.1,0-2.5-0.6-2.5-3.2v-4.2h1.3v4
			c0,1.4,0.4,2.3,1.6,2.3c0.9,0,1.5-0.6,1.7-1.2c0.1-0.2,0.1-0.4,0.1-0.7v-4.5h1.3V216.2z"/>
		<path class="st4" d="M113.9,214.8c0,1.8,1.2,2.5,2.5,2.5c0.9,0,1.5-0.2,2-0.4l0.2,0.9c-0.5,0.2-1.3,0.4-2.4,0.4
			c-2.2,0-3.6-1.5-3.6-3.7s1.3-3.9,3.4-3.9c2.4,0,3,2.1,3,3.4c0,0.3,0,0.5,0,0.6H113.9z M117.7,213.8c0-0.8-0.3-2.1-1.8-2.1
			c-1.3,0-1.9,1.2-2,2.1H117.7z"/>
		<path class="st4" d="M125.4,208.8v2.1h1.9v1h-1.9v3.9c0,0.9,0.3,1.4,1,1.4c0.3,0,0.6,0,0.8-0.1l0.1,1c-0.3,0.1-0.7,0.2-1.2,0.2
			c-0.6,0-1.1-0.2-1.4-0.6c-0.4-0.4-0.5-1-0.5-1.9v-4H123v-1h1.1v-1.7L125.4,208.8z"/>
		<path class="st4" d="M134.9,216.2c0,0.8,0,1.4,0.1,2h-1.2l-0.1-1.2h0c-0.3,0.6-1.1,1.4-2.4,1.4c-1.1,0-2.5-0.6-2.5-3.2v-4.2h1.3v4
			c0,1.4,0.4,2.3,1.6,2.3c0.9,0,1.5-0.6,1.7-1.2c0.1-0.2,0.1-0.4,0.1-0.7v-4.5h1.3V216.2z M134,207.7l-1.8,2.1h-0.9l1.3-2.1H134z"/>
		<path class="st4" d="M140.2,213.3c0-0.9,0-1.7-0.1-2.4h1.2l0.1,1.2h0c0.5-0.9,1.4-1.4,2.6-1.4c1.8,0,3.1,1.5,3.1,3.7
			c0,2.6-1.6,3.9-3.3,3.9c-1,0-1.8-0.4-2.2-1.1h0v3.9h-1.3V213.3z M141.5,215.2c0,0.2,0,0.4,0.1,0.5c0.2,0.9,1,1.5,2,1.5
			c1.4,0,2.2-1.1,2.2-2.8c0-1.5-0.8-2.7-2.2-2.7c-0.9,0-1.7,0.6-2,1.6c0,0.2-0.1,0.4-0.1,0.5V215.2z"/>
		<path class="st4" d="M155.3,214.5c0,2.7-1.9,3.9-3.6,3.9c-2,0-3.5-1.4-3.5-3.7c0-2.4,1.6-3.9,3.6-3.9
			C153.9,210.7,155.3,212.2,155.3,214.5z M149.6,214.5c0,1.6,0.9,2.8,2.2,2.8c1.3,0,2.2-1.2,2.2-2.8c0-1.2-0.6-2.8-2.2-2.8
			C150.3,211.7,149.6,213.1,149.6,214.5z"/>
		<path class="st4" d="M163.3,207.5v8.8c0,0.6,0,1.4,0.1,1.9h-1.2l-0.1-1.3h0c-0.4,0.8-1.3,1.4-2.5,1.4c-1.8,0-3.1-1.5-3.1-3.7
			c0-2.4,1.5-3.9,3.3-3.9c1.1,0,1.9,0.5,2.2,1.1h0v-4.3H163.3z M162,213.8c0-0.2,0-0.4-0.1-0.6c-0.2-0.8-0.9-1.5-1.9-1.5
			c-1.4,0-2.2,1.2-2.2,2.8c0,1.5,0.7,2.7,2.1,2.7c0.9,0,1.7-0.6,1.9-1.6c0-0.2,0.1-0.4,0.1-0.6V213.8z"/>
		<path class="st4" d="M165.5,213.1c0-0.9,0-1.6-0.1-2.3h1.2l0,1.4h0.1c0.3-1,1.1-1.6,2-1.6c0.2,0,0.3,0,0.4,0v1.2
			c-0.1,0-0.3,0-0.5,0c-0.9,0-1.6,0.7-1.8,1.7c0,0.2-0.1,0.4-0.1,0.6v3.9h-1.3V213.1z"/>
		<path class="st4" d="M174.3,218.1l-0.1-0.9h0c-0.4,0.6-1.2,1.1-2.2,1.1c-1.5,0-2.2-1-2.2-2.1c0-1.8,1.6-2.7,4.4-2.7v-0.2
			c0-0.6-0.2-1.7-1.6-1.7c-0.7,0-1.4,0.2-1.9,0.5l-0.3-0.9c0.6-0.4,1.5-0.6,2.4-0.6c2.2,0,2.8,1.5,2.8,3v2.7c0,0.6,0,1.2,0.1,1.7
			H174.3z M174.1,214.4c-1.4,0-3.1,0.2-3.1,1.6c0,0.9,0.6,1.3,1.2,1.3c0.9,0,1.5-0.6,1.8-1.2c0-0.1,0.1-0.3,0.1-0.4V214.4z
			 M174.8,207.7l-1.8,2.1H172l1.3-2.1H174.8z"/>
		<path class="st4" d="M181.4,214.8c0,1.8,1.2,2.5,2.5,2.5c0.9,0,1.5-0.2,2-0.4l0.2,0.9c-0.5,0.2-1.3,0.4-2.4,0.4
			c-2.2,0-3.6-1.5-3.6-3.7s1.3-3.9,3.4-3.9c2.4,0,3,2.1,3,3.4c0,0.3,0,0.5,0,0.6H181.4z M185.3,213.8c0-0.8-0.3-2.1-1.8-2.1
			c-1.3,0-1.9,1.2-2,2.1H185.3z"/>
		<path class="st4" d="M188.2,212.8c0-0.8,0-1.4-0.1-2h1.2l0.1,1.2h0c0.4-0.7,1.2-1.4,2.4-1.4c1,0,2.6,0.6,2.6,3.1v4.3h-1.3V214
			c0-1.2-0.4-2.1-1.7-2.1c-0.9,0-1.5,0.6-1.8,1.3c-0.1,0.2-0.1,0.4-0.1,0.6v4.4h-1.3V212.8z"/>
		<path class="st4" d="M198.1,208.8v2.1h1.9v1h-1.9v3.9c0,0.9,0.3,1.4,1,1.4c0.3,0,0.6,0,0.8-0.1l0.1,1c-0.3,0.1-0.7,0.2-1.2,0.2
			c-0.6,0-1.1-0.2-1.4-0.6c-0.4-0.4-0.5-1-0.5-1.9v-4h-1.1v-1h1.1v-1.7L198.1,208.8z"/>
		<path class="st4" d="M201.5,213.1c0-0.9,0-1.6-0.1-2.3h1.2l0,1.4h0.1c0.3-1,1.1-1.6,2-1.6c0.2,0,0.3,0,0.4,0v1.2
			c-0.1,0-0.3,0-0.5,0c-0.9,0-1.6,0.7-1.8,1.7c0,0.2-0.1,0.4-0.1,0.6v3.9h-1.3V213.1z"/>
		<path class="st4" d="M210.3,218.1l-0.1-0.9h0c-0.4,0.6-1.2,1.1-2.2,1.1c-1.5,0-2.2-1-2.2-2.1c0-1.8,1.6-2.7,4.4-2.7v-0.2
			c0-0.6-0.2-1.7-1.6-1.7c-0.7,0-1.4,0.2-1.9,0.5l-0.3-0.9c0.6-0.4,1.5-0.6,2.4-0.6c2.2,0,2.8,1.5,2.8,3v2.7c0,0.6,0,1.2,0.1,1.7
			H210.3z M210.1,214.4c-1.4,0-3.1,0.2-3.1,1.6c0,0.9,0.6,1.3,1.2,1.3c0.9,0,1.5-0.6,1.8-1.2c0-0.1,0.1-0.3,0.1-0.4V214.4z"/>
		<path class="st4" d="M213.5,213.1c0-0.9,0-1.6-0.1-2.3h1.2l0,1.4h0.1c0.3-1,1.1-1.6,2-1.6c0.2,0,0.3,0,0.4,0v1.2
			c-0.1,0-0.3,0-0.5,0c-0.9,0-1.6,0.7-1.8,1.7c0,0.2-0.1,0.4-0.1,0.6v3.9h-1.3V213.1z"/>
		<path class="st4" d="M222.3,214.8c0,1.8,1.2,2.5,2.5,2.5c0.9,0,1.5-0.2,2-0.4l0.2,0.9c-0.5,0.2-1.3,0.4-2.4,0.4
			c-2.2,0-3.6-1.5-3.6-3.7s1.3-3.9,3.4-3.9c2.4,0,3,2.1,3,3.4c0,0.3,0,0.5,0,0.6H222.3z M226.2,213.8c0-0.8-0.3-2.1-1.8-2.1
			c-1.3,0-1.9,1.2-2,2.1H226.2z"/>
		<path class="st4" d="M229.1,212.8c0-0.8,0-1.4-0.1-2h1.2l0.1,1.2h0c0.4-0.7,1.2-1.4,2.4-1.4c1,0,2.6,0.6,2.6,3.1v4.3H234V214
			c0-1.2-0.4-2.1-1.7-2.1c-0.9,0-1.5,0.6-1.8,1.3c-0.1,0.2-0.1,0.4-0.1,0.6v4.4h-1.3V212.8z"/>
		<path class="st4" d="M242.2,208.8v2.1h1.9v1h-1.9v3.9c0,0.9,0.3,1.4,1,1.4c0.3,0,0.6,0,0.8-0.1l0.1,1c-0.3,0.1-0.7,0.2-1.2,0.2
			c-0.6,0-1.1-0.2-1.4-0.6c-0.4-0.4-0.5-1-0.5-1.9v-4h-1.1v-1h1.1v-1.7L242.2,208.8z"/>
		<path class="st4" d="M251.7,216.2c0,0.8,0,1.4,0.1,2h-1.2l-0.1-1.2h0c-0.3,0.6-1.1,1.4-2.4,1.4c-1.1,0-2.5-0.6-2.5-3.2v-4.2h1.3v4
			c0,1.4,0.4,2.3,1.6,2.3c0.9,0,1.5-0.6,1.7-1.2c0.1-0.2,0.1-0.4,0.1-0.7v-4.5h1.3V216.2z"/>
		<path class="st4" d="M262.2,217.9c-0.3,0.2-1.1,0.4-2.1,0.4c-2.2,0-3.6-1.5-3.6-3.7c0-2.2,1.5-3.9,3.9-3.9c0.8,0,1.5,0.2,1.8,0.4
			l-0.3,1c-0.3-0.2-0.8-0.3-1.5-0.3c-1.7,0-2.6,1.2-2.6,2.7c0,1.7,1.1,2.7,2.5,2.7c0.8,0,1.2-0.2,1.6-0.4L262.2,217.9z"/>
		<path class="st4" d="M269.8,216.2c0,0.8,0,1.4,0.1,2h-1.2l-0.1-1.2h0c-0.3,0.6-1.1,1.4-2.4,1.4c-1.1,0-2.5-0.6-2.5-3.2v-4.2h1.3v4
			c0,1.4,0.4,2.3,1.6,2.3c0.9,0,1.5-0.6,1.7-1.2c0.1-0.2,0.1-0.4,0.1-0.7v-4.5h1.3V216.2z"/>
		<path class="st4" d="M272.7,214.8c0,1.8,1.2,2.5,2.5,2.5c0.9,0,1.5-0.2,2-0.4l0.2,0.9c-0.5,0.2-1.3,0.4-2.4,0.4
			c-2.2,0-3.6-1.5-3.6-3.7s1.3-3.9,3.4-3.9c2.4,0,3,2.1,3,3.4c0,0.3,0,0.5,0,0.6H272.7z M276.6,213.8c0-0.8-0.3-2.1-1.8-2.1
			c-1.3,0-1.9,1.2-2,2.1H276.6z"/>
		<path class="st4" d="M279.5,212.8c0-0.8,0-1.4-0.1-2h1.2l0.1,1.2h0c0.4-0.7,1.2-1.4,2.4-1.4c1,0,2.6,0.6,2.6,3.1v4.3h-1.3V214
			c0-1.2-0.4-2.1-1.7-2.1c-0.9,0-1.5,0.6-1.8,1.3c-0.1,0.2-0.1,0.4-0.1,0.6v4.4h-1.3V212.8z"/>
		<path class="st4" d="M289.4,208.8v2.1h1.9v1h-1.9v3.9c0,0.9,0.3,1.4,1,1.4c0.3,0,0.6,0,0.8-0.1l0.1,1c-0.3,0.1-0.7,0.2-1.2,0.2
			c-0.6,0-1.1-0.2-1.4-0.6c-0.4-0.4-0.5-1-0.5-1.9v-4H287v-1h1.1v-1.7L289.4,208.8z"/>
		<path class="st4" d="M296.8,218.1l-0.1-0.9h0c-0.4,0.6-1.2,1.1-2.2,1.1c-1.5,0-2.2-1-2.2-2.1c0-1.8,1.6-2.7,4.4-2.7v-0.2
			c0-0.6-0.2-1.7-1.6-1.7c-0.7,0-1.4,0.2-1.9,0.5l-0.3-0.9c0.6-0.4,1.5-0.6,2.4-0.6c2.2,0,2.8,1.5,2.8,3v2.7c0,0.6,0,1.2,0.1,1.7
			H296.8z M296.6,214.4c-1.4,0-3.1,0.2-3.1,1.6c0,0.9,0.6,1.3,1.2,1.3c0.9,0,1.5-0.6,1.8-1.2c0-0.1,0.1-0.3,0.1-0.4V214.4z"/>
		<path class="st4" d="M299.7,217.4c0-0.6,0.4-0.9,0.9-0.9c0.5,0,0.9,0.4,0.9,0.9c0,0.5-0.3,0.9-0.9,0.9
			C300,218.3,299.7,217.9,299.7,217.4z"/>
	</g>
</g>
</svg>
