<?xml version="1.0" encoding="utf-8"?>
<!-- Generator: Adobe Illustrator 17.0.0, SVG Export Plug-In . SVG Version: 6.00 Build 0)  -->
<!DOCTYPE svg PUBLIC "-//W3C//DTD SVG 1.1//EN" "http://www.w3.org/Graphics/SVG/1.1/DTD/svg11.dtd">
<svg version="1.1" xmlns="http://www.w3.org/2000/svg" xmlns:xlink="http://www.w3.org/1999/xlink" x="0px" y="0px" width="368px"
	 height="246.2px" viewBox="0 0 368 246.2" style="enable-background:new 0 0 368 246.2;" xml:space="preserve">
<style type="text/css">
	.st0{display:none;}
	.st1{fill:#EDEDED;}
	.st2{fill:#F3D884;}
	.st3{fill:#D68430;}
	.st4{fill:#575756;}
</style>
<g id="Capa_2" class="st0">
</g>
<g id="Capa_1">
	<path class="st1" d="M202.3,8.2C198.4,3.2,191.7,0,184,0s-14.5,3.2-18.3,8.2H0v238h368V8.2H202.3z"/>
	<path class="st2" d="M184,22.3V95c-34-19-31.3-25.1-31.3-60.6C155.9,30.6,165,23.1,184,22.3z"/>
	<path class="st1" d="M184,28.2v60.9c-28.5-15.9-26.2-21-26.2-50.7C160.5,35.2,168,28.9,184,28.2z"/>
	<g>
		<path class="st4" d="M33.9,141.4h-3.9v3.6h4.4v1.1h-5.7V136h5.5v1.1h-4.2v3.2h3.9V141.4z"/>
		<path class="st4" d="M36,135.5h1.3v10.6H36V135.5z"/>
		<path class="st4" d="M47.9,145.9c-0.3,0.2-1.1,0.4-2.1,0.4c-2.2,0-3.6-1.5-3.6-3.7c0-2.2,1.5-3.9,3.9-3.9c0.8,0,1.5,0.2,1.8,0.4
			l-0.3,1c-0.3-0.2-0.8-0.3-1.5-0.3c-1.7,0-2.6,1.2-2.6,2.7c0,1.7,1.1,2.7,2.5,2.7c0.8,0,1.2-0.2,1.6-0.4L47.9,145.9z"/>
		<path class="st4" d="M53.4,146.1l-0.1-0.9h0c-0.4,0.6-1.2,1.1-2.2,1.1c-1.5,0-2.2-1-2.2-2.1c0-1.8,1.6-2.7,4.4-2.7v-0.2
			c0-0.6-0.2-1.7-1.6-1.7c-0.7,0-1.4,0.2-1.9,0.5l-0.3-0.9c0.6-0.4,1.5-0.6,2.4-0.6c2.2,0,2.8,1.5,2.8,3v2.7c0,0.6,0,1.2,0.1,1.7
			H53.4z M53.2,142.4c-1.4,0-3.1,0.2-3.1,1.6c0,0.9,0.6,1.3,1.2,1.3c0.9,0,1.5-0.6,1.8-1.2c0-0.1,0.1-0.3,0.1-0.4V142.4z"/>
		<path class="st4" d="M56.4,144.8c0.4,0.3,1.1,0.5,1.7,0.5c1,0,1.4-0.5,1.4-1.1c0-0.6-0.4-1-1.3-1.3c-1.3-0.5-1.9-1.2-1.9-2.1
			c0-1.2,0.9-2.1,2.5-2.1c0.7,0,1.4,0.2,1.8,0.5l-0.3,1c-0.3-0.2-0.8-0.4-1.5-0.4c-0.8,0-1.2,0.4-1.2,1c0,0.6,0.4,0.9,1.4,1.2
			c1.3,0.5,1.9,1.1,1.9,2.2c0,1.3-1,2.2-2.7,2.2c-0.8,0-1.5-0.2-2-0.5L56.4,144.8z"/>
		<path class="st4" d="M69.1,142.5c0,2.7-1.9,3.9-3.6,3.9c-2,0-3.5-1.4-3.5-3.7c0-2.4,1.6-3.9,3.6-3.9
			C67.7,138.7,69.1,140.2,69.1,142.5z M63.4,142.5c0,1.6,0.9,2.8,2.2,2.8c1.3,0,2.2-1.2,2.2-2.8c0-1.2-0.6-2.8-2.2-2.8
			C64.1,139.7,63.4,141.1,63.4,142.5z"/>
		<path class="st4" d="M74,140.8c0-0.8,0-1.4-0.1-2h1.2l0.1,1.2h0c0.4-0.7,1.1-1.3,2.3-1.3c1,0,1.7,0.6,2.1,1.5h0
			c0.2-0.4,0.5-0.7,0.8-0.9c0.4-0.3,0.9-0.5,1.6-0.5c1,0,2.4,0.6,2.4,3.1v4.3h-1.3V142c0-1.4-0.5-2.2-1.6-2.2
			c-0.8,0-1.3,0.6-1.6,1.2c-0.1,0.2-0.1,0.4-0.1,0.7v4.5h-1.3v-4.3c0-1.2-0.5-2-1.5-2c-0.8,0-1.4,0.7-1.6,1.3
			c-0.1,0.2-0.1,0.4-0.1,0.6v4.4H74V140.8z"/>
		<path class="st4" d="M90.5,146.1l-0.1-0.9h0c-0.4,0.6-1.2,1.1-2.2,1.1c-1.5,0-2.2-1-2.2-2.1c0-1.8,1.6-2.7,4.4-2.7v-0.2
			c0-0.6-0.2-1.7-1.6-1.7c-0.7,0-1.4,0.2-1.9,0.5l-0.3-0.9c0.6-0.4,1.5-0.6,2.4-0.6c2.2,0,2.8,1.5,2.8,3v2.7c0,0.6,0,1.2,0.1,1.7
			H90.5z M90.3,142.4c-1.4,0-3.1,0.2-3.1,1.6c0,0.9,0.6,1.3,1.2,1.3c0.9,0,1.5-0.6,1.8-1.2c0-0.1,0.1-0.3,0.1-0.4V142.4z M91,135.7
			l-1.8,2.1h-0.9l1.3-2.1H91z"/>
		<path class="st4" d="M93.5,144.8c0.4,0.3,1.1,0.5,1.7,0.5c1,0,1.4-0.5,1.4-1.1c0-0.6-0.4-1-1.3-1.3c-1.3-0.5-1.9-1.2-1.9-2.1
			c0-1.2,0.9-2.1,2.5-2.1c0.7,0,1.4,0.2,1.8,0.5l-0.3,1c-0.3-0.2-0.8-0.4-1.5-0.4c-0.8,0-1.2,0.4-1.2,1c0,0.6,0.4,0.9,1.4,1.2
			c1.3,0.5,1.9,1.1,1.9,2.2c0,1.3-1,2.2-2.7,2.2c-0.8,0-1.5-0.2-2-0.5L93.5,144.8z"/>
		<path class="st4" d="M108,145.9c-0.3,0.2-1.1,0.4-2.1,0.4c-2.2,0-3.6-1.5-3.6-3.7c0-2.2,1.5-3.9,3.9-3.9c0.8,0,1.5,0.2,1.8,0.4
			l-0.3,1c-0.3-0.2-0.8-0.3-1.5-0.3c-1.7,0-2.6,1.2-2.6,2.7c0,1.7,1.1,2.7,2.5,2.7c0.8,0,1.2-0.2,1.6-0.4L108,145.9z"/>
		<path class="st4" d="M109.6,135.5h1.3v10.6h-1.3V135.5z"/>
		<path class="st4" d="M117.1,146.1l-0.1-0.9h0c-0.4,0.6-1.2,1.1-2.2,1.1c-1.5,0-2.2-1-2.2-2.1c0-1.8,1.6-2.7,4.4-2.7v-0.2
			c0-0.6-0.2-1.7-1.6-1.7c-0.7,0-1.4,0.2-1.9,0.5l-0.3-0.9c0.6-0.4,1.5-0.6,2.4-0.6c2.2,0,2.8,1.5,2.8,3v2.7c0,0.6,0,1.2,0.1,1.7
			H117.1z M116.9,142.4c-1.4,0-3.1,0.2-3.1,1.6c0,0.9,0.6,1.3,1.2,1.3c0.9,0,1.5-0.6,1.8-1.2c0-0.1,0.1-0.3,0.1-0.4V142.4z"/>
		<path class="st4" d="M120.3,141.1c0-0.9,0-1.6-0.1-2.3h1.2l0,1.4h0.1c0.3-1,1.1-1.6,2-1.6c0.2,0,0.3,0,0.4,0v1.2
			c-0.1,0-0.3,0-0.5,0c-0.9,0-1.6,0.7-1.8,1.7c0,0.2-0.1,0.4-0.1,0.6v3.9h-1.3V141.1z"/>
		<path class="st4" d="M131.7,142.5c0,2.7-1.9,3.9-3.6,3.9c-2,0-3.5-1.4-3.5-3.7c0-2.4,1.6-3.9,3.6-3.9
			C130.2,138.7,131.7,140.2,131.7,142.5z M125.9,142.5c0,1.6,0.9,2.8,2.2,2.8c1.3,0,2.2-1.2,2.2-2.8c0-1.2-0.6-2.8-2.2-2.8
			C126.6,139.7,125.9,141.1,125.9,142.5z"/>
		<path class="st4" d="M136.5,141.3c0-0.9,0-1.7-0.1-2.4h1.2l0.1,1.2h0c0.5-0.9,1.4-1.4,2.6-1.4c1.8,0,3.1,1.5,3.1,3.7
			c0,2.6-1.6,3.9-3.3,3.9c-1,0-1.8-0.4-2.2-1.1h0v3.9h-1.3V141.3z M137.8,143.2c0,0.2,0,0.4,0.1,0.5c0.2,0.9,1,1.5,2,1.5
			c1.4,0,2.2-1.1,2.2-2.8c0-1.5-0.8-2.7-2.2-2.7c-0.9,0-1.7,0.6-2,1.6c0,0.2-0.1,0.4-0.1,0.5V143.2z"/>
		<path class="st4" d="M149.1,146.1l-0.1-0.9h0c-0.4,0.6-1.2,1.1-2.2,1.1c-1.5,0-2.2-1-2.2-2.1c0-1.8,1.6-2.7,4.4-2.7v-0.2
			c0-0.6-0.2-1.7-1.6-1.7c-0.7,0-1.4,0.2-1.9,0.5l-0.3-0.9c0.6-0.4,1.5-0.6,2.4-0.6c2.2,0,2.8,1.5,2.8,3v2.7c0,0.6,0,1.2,0.1,1.7
			H149.1z M148.9,142.4c-1.4,0-3.1,0.2-3.1,1.6c0,0.9,0.6,1.3,1.2,1.3c0.9,0,1.5-0.6,1.8-1.2c0-0.1,0.1-0.3,0.1-0.4V142.4z"/>
		<path class="st4" d="M152.3,141.1c0-0.9,0-1.6-0.1-2.3h1.2l0,1.4h0.1c0.3-1,1.1-1.6,2-1.6c0.2,0,0.3,0,0.4,0v1.2
			c-0.1,0-0.3,0-0.5,0c-0.9,0-1.6,0.7-1.8,1.7c0,0.2-0.1,0.4-0.1,0.6v3.9h-1.3V141.1z"/>
		<path class="st4" d="M161.1,146.1l-0.1-0.9h0c-0.4,0.6-1.2,1.1-2.2,1.1c-1.5,0-2.2-1-2.2-2.1c0-1.8,1.6-2.7,4.4-2.7v-0.2
			c0-0.6-0.2-1.7-1.6-1.7c-0.7,0-1.4,0.2-1.9,0.5l-0.3-0.9c0.6-0.4,1.5-0.6,2.4-0.6c2.2,0,2.8,1.5,2.8,3v2.7c0,0.6,0,1.2,0.1,1.7
			H161.1z M160.9,142.4c-1.4,0-3.1,0.2-3.1,1.6c0,0.9,0.6,1.3,1.2,1.3c0.9,0,1.5-0.6,1.8-1.2c0-0.1,0.1-0.3,0.1-0.4V142.4z"/>
		<path class="st4" d="M167.5,135.5h1.3v10.6h-1.3V135.5z"/>
		<path class="st4" d="M175.1,146.1l-0.1-0.9h0c-0.4,0.6-1.2,1.1-2.2,1.1c-1.5,0-2.2-1-2.2-2.1c0-1.8,1.6-2.7,4.4-2.7v-0.2
			c0-0.6-0.2-1.7-1.6-1.7c-0.7,0-1.4,0.2-1.9,0.5l-0.3-0.9c0.6-0.4,1.5-0.6,2.4-0.6c2.2,0,2.8,1.5,2.8,3v2.7c0,0.6,0,1.2,0.1,1.7
			H175.1z M174.9,142.4c-1.4,0-3.1,0.2-3.1,1.6c0,0.9,0.6,1.3,1.2,1.3c0.9,0,1.5-0.6,1.8-1.2c0-0.1,0.1-0.3,0.1-0.4V142.4z"/>
		<path class="st4" d="M181.5,141.3c0-0.9,0-1.7-0.1-2.4h1.2l0.1,1.2h0c0.5-0.9,1.4-1.4,2.6-1.4c1.8,0,3.1,1.5,3.1,3.7
			c0,2.6-1.6,3.9-3.3,3.9c-1,0-1.8-0.4-2.2-1.1h0v3.9h-1.3V141.3z M182.8,143.2c0,0.2,0,0.4,0.1,0.5c0.2,0.9,1,1.5,2,1.5
			c1.4,0,2.2-1.1,2.2-2.8c0-1.5-0.8-2.7-2.2-2.7c-0.9,0-1.7,0.6-2,1.6c0,0.2-0.1,0.4-0.1,0.5V143.2z"/>
		<path class="st4" d="M190,141.1c0-0.9,0-1.6-0.1-2.3h1.2l0,1.4h0.1c0.3-1,1.1-1.6,2-1.6c0.2,0,0.3,0,0.4,0v1.2c-0.1,0-0.3,0-0.5,0
			c-0.9,0-1.6,0.7-1.8,1.7c0,0.2-0.1,0.4-0.1,0.6v3.9H190V141.1z"/>
		<path class="st4" d="M201.3,142.5c0,2.7-1.9,3.9-3.6,3.9c-2,0-3.5-1.4-3.5-3.7c0-2.4,1.6-3.9,3.6-3.9
			C199.9,138.7,201.3,140.2,201.3,142.5z M195.6,142.5c0,1.6,0.9,2.8,2.2,2.8c1.3,0,2.2-1.2,2.2-2.8c0-1.2-0.6-2.8-2.2-2.8
			C196.2,139.7,195.6,141.1,195.6,142.5z"/>
		<path class="st4" d="M204.6,136.8v2.1h1.9v1h-1.9v3.9c0,0.9,0.3,1.4,1,1.4c0.3,0,0.6,0,0.8-0.1l0.1,1c-0.3,0.1-0.7,0.2-1.2,0.2
			c-0.6,0-1.1-0.2-1.4-0.6c-0.4-0.4-0.5-1-0.5-1.9v-4h-1.1v-1h1.1v-1.7L204.6,136.8z"/>
		<path class="st4" d="M208.6,142.8c0,1.8,1.2,2.5,2.5,2.5c0.9,0,1.5-0.2,2-0.4l0.2,0.9c-0.5,0.2-1.3,0.4-2.4,0.4
			c-2.2,0-3.6-1.5-3.6-3.7s1.3-3.9,3.4-3.9c2.4,0,3,2.1,3,3.4c0,0.3,0,0.5,0,0.6H208.6z M212.5,141.8c0-0.8-0.3-2.1-1.8-2.1
			c-1.3,0-1.9,1.2-2,2.1H212.5z"/>
		<path class="st4" d="M220.5,145.9c-0.3,0.2-1.1,0.4-2.1,0.4c-2.2,0-3.6-1.5-3.6-3.7c0-2.2,1.5-3.9,3.9-3.9c0.8,0,1.5,0.2,1.8,0.4
			l-0.3,1c-0.3-0.2-0.8-0.3-1.5-0.3c-1.7,0-2.6,1.2-2.6,2.7c0,1.7,1.1,2.7,2.5,2.7c0.8,0,1.2-0.2,1.6-0.4L220.5,145.9z"/>
		<path class="st4" d="M227.2,145.9c-0.3,0.2-1.1,0.4-2.1,0.4c-2.2,0-3.6-1.5-3.6-3.7c0-2.2,1.5-3.9,3.9-3.9c0.8,0,1.5,0.2,1.8,0.4
			l-0.3,1c-0.3-0.2-0.8-0.3-1.5-0.3c-1.7,0-2.6,1.2-2.6,2.7c0,1.7,1.1,2.7,2.5,2.7c0.8,0,1.2-0.2,1.6-0.4L227.2,145.9z"/>
		<path class="st4" d="M230.2,136.8c0,0.5-0.3,0.8-0.8,0.8c-0.5,0-0.8-0.4-0.8-0.8c0-0.5,0.3-0.8,0.8-0.8
			C229.9,136,230.2,136.4,230.2,136.8z M228.7,146.1v-7.3h1.3v7.3H228.7z"/>
		<path class="st4" d="M238.8,142.5c0,2.7-1.9,3.9-3.6,3.9c-2,0-3.5-1.4-3.5-3.7c0-2.4,1.6-3.9,3.6-3.9
			C237.4,138.7,238.8,140.2,238.8,142.5z M233,142.5c0,1.6,0.9,2.8,2.2,2.8c1.3,0,2.2-1.2,2.2-2.8c0-1.2-0.6-2.8-2.2-2.8
			C233.7,139.7,233,141.1,233,142.5z M237.2,135.7l-1.8,2.1h-0.9l1.3-2.1H237.2z"/>
		<path class="st4" d="M240.5,140.8c0-0.8,0-1.4-0.1-2h1.2l0.1,1.2h0c0.4-0.7,1.2-1.4,2.4-1.4c1,0,2.6,0.6,2.6,3.1v4.3h-1.3V142
			c0-1.2-0.4-2.1-1.7-2.1c-0.9,0-1.5,0.6-1.8,1.3c-0.1,0.2-0.1,0.4-0.1,0.6v4.4h-1.3V140.8z"/>
		<path class="st4" d="M258.5,142.5c0,2.7-1.9,3.9-3.6,3.9c-2,0-3.5-1.4-3.5-3.7c0-2.4,1.6-3.9,3.6-3.9
			C257.1,138.7,258.5,140.2,258.5,142.5z M252.8,142.5c0,1.6,0.9,2.8,2.2,2.8c1.3,0,2.2-1.2,2.2-2.8c0-1.2-0.6-2.8-2.2-2.8
			C253.5,139.7,252.8,141.1,252.8,142.5z"/>
		<path class="st4" d="M260.3,146.1v-6.3h-1v-1h1v-0.3c0-1,0.2-2,0.8-2.5c0.5-0.5,1.2-0.7,1.8-0.7c0.5,0,0.9,0.1,1.1,0.2l-0.2,1
			c-0.2-0.1-0.5-0.2-0.8-0.2c-1.1,0-1.4,1-1.4,2.1v0.4h1.8v1h-1.8v6.3H260.3z"/>
		<path class="st4" d="M264.6,141.1c0-0.9,0-1.6-0.1-2.3h1.2l0,1.4h0.1c0.3-1,1.1-1.6,2-1.6c0.2,0,0.3,0,0.4,0v1.2
			c-0.1,0-0.3,0-0.5,0c-0.9,0-1.6,0.7-1.8,1.7c0,0.2-0.1,0.4-0.1,0.6v3.9h-1.3V141.1z"/>
		<path class="st4" d="M270.1,142.8c0,1.8,1.2,2.5,2.5,2.5c0.9,0,1.5-0.2,2-0.4l0.2,0.9c-0.5,0.2-1.3,0.4-2.4,0.4
			c-2.2,0-3.6-1.5-3.6-3.7s1.3-3.9,3.4-3.9c2.4,0,3,2.1,3,3.4c0,0.3,0,0.5,0,0.6H270.1z M273.9,141.8c0-0.8-0.3-2.1-1.8-2.1
			c-1.3,0-1.9,1.2-2,2.1H273.9z"/>
		<path class="st4" d="M282,145.9c-0.3,0.2-1.1,0.4-2.1,0.4c-2.2,0-3.6-1.5-3.6-3.7c0-2.2,1.5-3.9,3.9-3.9c0.8,0,1.5,0.2,1.8,0.4
			l-0.3,1c-0.3-0.2-0.8-0.3-1.5-0.3c-1.7,0-2.6,1.2-2.6,2.7c0,1.7,1.1,2.7,2.5,2.7c0.8,0,1.2-0.2,1.6-0.4L282,145.9z"/>
		<path class="st4" d="M285,136.8c0,0.5-0.3,0.8-0.8,0.8c-0.5,0-0.8-0.4-0.8-0.8c0-0.5,0.3-0.8,0.8-0.8
			C284.7,136,285,136.4,285,136.8z M283.6,146.1v-7.3h1.3v7.3H283.6z"/>
		<path class="st4" d="M293.4,135.5v8.8c0,0.6,0,1.4,0.1,1.9h-1.2l-0.1-1.3h0c-0.4,0.8-1.3,1.4-2.5,1.4c-1.8,0-3.1-1.5-3.1-3.7
			c0-2.4,1.5-3.9,3.3-3.9c1.1,0,1.9,0.5,2.2,1.1h0v-4.3H293.4z M292,141.8c0-0.2,0-0.4-0.1-0.6c-0.2-0.8-0.9-1.5-1.9-1.5
			c-1.4,0-2.2,1.2-2.2,2.8c0,1.5,0.7,2.7,2.1,2.7c0.9,0,1.7-0.6,1.9-1.6c0-0.2,0.1-0.4,0.1-0.6V141.8z"/>
		<path class="st4" d="M299.6,146.1l-0.1-0.9h0c-0.4,0.6-1.2,1.1-2.2,1.1c-1.5,0-2.2-1-2.2-2.1c0-1.8,1.6-2.7,4.4-2.7v-0.2
			c0-0.6-0.2-1.7-1.6-1.7c-0.7,0-1.4,0.2-1.9,0.5l-0.3-0.9c0.6-0.4,1.5-0.6,2.4-0.6c2.2,0,2.8,1.5,2.8,3v2.7c0,0.6,0,1.2,0.1,1.7
			H299.6z M299.4,142.4c-1.4,0-3.1,0.2-3.1,1.6c0,0.9,0.6,1.3,1.2,1.3c0.9,0,1.5-0.6,1.8-1.2c0-0.1,0.1-0.3,0.1-0.4V142.4z"/>
		<path class="st4" d="M306,141.3c0-0.9,0-1.7-0.1-2.4h1.2l0.1,1.2h0c0.5-0.9,1.4-1.4,2.6-1.4c1.8,0,3.1,1.5,3.1,3.7
			c0,2.6-1.6,3.9-3.3,3.9c-1,0-1.8-0.4-2.2-1.1h0v3.9H306V141.3z M307.3,143.2c0,0.2,0,0.4,0.1,0.5c0.2,0.9,1,1.5,2,1.5
			c1.4,0,2.2-1.1,2.2-2.8c0-1.5-0.8-2.7-2.2-2.7c-0.9,0-1.7,0.6-2,1.6c0,0.2-0.1,0.4-0.1,0.5V143.2z"/>
		<path class="st4" d="M321.1,142.5c0,2.7-1.9,3.9-3.6,3.9c-2,0-3.5-1.4-3.5-3.7c0-2.4,1.6-3.9,3.6-3.9
			C319.6,138.7,321.1,140.2,321.1,142.5z M315.3,142.5c0,1.6,0.9,2.8,2.2,2.8c1.3,0,2.2-1.2,2.2-2.8c0-1.2-0.6-2.8-2.2-2.8
			C316,139.7,315.3,141.1,315.3,142.5z"/>
		<path class="st4" d="M322.7,141.1c0-0.9,0-1.6-0.1-2.3h1.2l0,1.4h0.1c0.3-1,1.1-1.6,2-1.6c0.2,0,0.3,0,0.4,0v1.2
			c-0.1,0-0.3,0-0.5,0c-0.9,0-1.6,0.7-1.8,1.7c0,0.2-0.1,0.4-0.1,0.6v3.9h-1.3V141.1z"/>
		<path class="st4" d="M330.8,135.5h1.3v10.6h-1.3V135.5z"/>
		<path class="st4" d="M338.4,146.1l-0.1-0.9h0c-0.4,0.6-1.2,1.1-2.2,1.1c-1.5,0-2.2-1-2.2-2.1c0-1.8,1.6-2.7,4.4-2.7v-0.2
			c0-0.6-0.2-1.7-1.6-1.7c-0.7,0-1.4,0.2-1.9,0.5l-0.3-0.9c0.6-0.4,1.5-0.6,2.4-0.6c2.2,0,2.8,1.5,2.8,3v2.7c0,0.6,0,1.2,0.1,1.7
			H338.4z M338.2,142.4c-1.4,0-3.1,0.2-3.1,1.6c0,0.9,0.6,1.3,1.2,1.3c0.9,0,1.5-0.6,1.8-1.2c0-0.1,0.1-0.3,0.1-0.4V142.4z"/>
		<path class="st4" d="M26.6,164.1l-0.1-0.9h0c-0.4,0.6-1.2,1.1-2.2,1.1c-1.5,0-2.2-1-2.2-2.1c0-1.8,1.6-2.7,4.4-2.7v-0.2
			c0-0.6-0.2-1.7-1.6-1.7c-0.7,0-1.4,0.2-1.9,0.5l-0.3-0.9c0.6-0.4,1.5-0.6,2.4-0.6c2.2,0,2.8,1.5,2.8,3v2.7c0,0.6,0,1.2,0.1,1.7
			H26.6z M26.4,160.4c-1.4,0-3.1,0.2-3.1,1.6c0,0.9,0.6,1.3,1.2,1.3c0.9,0,1.5-0.6,1.8-1.2c0-0.1,0.1-0.3,0.1-0.4V160.4z"/>
		<path class="st4" d="M35.9,162.2c0,0.8,0,1.4,0.1,2h-1.2l-0.1-1.2h0c-0.3,0.6-1.1,1.4-2.4,1.4c-1.1,0-2.5-0.6-2.5-3.2v-4.2h1.3v4
			c0,1.4,0.4,2.3,1.6,2.3c0.9,0,1.5-0.6,1.7-1.2c0.1-0.2,0.1-0.4,0.1-0.7v-4.5h1.3V162.2z"/>
		<path class="st4" d="M39.7,154.8v2.1h1.9v1h-1.9v3.9c0,0.9,0.3,1.4,1,1.4c0.3,0,0.6,0,0.8-0.1l0.1,1c-0.3,0.1-0.7,0.2-1.2,0.2
			c-0.6,0-1.1-0.2-1.4-0.6c-0.4-0.4-0.5-1-0.5-1.9v-4h-1.1v-1h1.1v-1.7L39.7,154.8z"/>
		<path class="st4" d="M43.7,160.8c0,1.8,1.2,2.5,2.5,2.5c0.9,0,1.5-0.2,2-0.4l0.2,0.9c-0.5,0.2-1.3,0.4-2.4,0.4
			c-2.2,0-3.6-1.5-3.6-3.7s1.3-3.9,3.4-3.9c2.4,0,3,2.1,3,3.4c0,0.3,0,0.5,0,0.6H43.7z M47.6,159.8c0-0.8-0.3-2.1-1.8-2.1
			c-1.3,0-1.9,1.2-2,2.1H47.6z"/>
		<path class="st4" d="M50.5,158.8c0-0.8,0-1.4-0.1-2h1.2l0.1,1.2h0c0.4-0.7,1.2-1.4,2.4-1.4c1,0,2.6,0.6,2.6,3.1v4.3h-1.3V160
			c0-1.2-0.4-2.1-1.7-2.1c-0.9,0-1.5,0.6-1.8,1.3c-0.1,0.2-0.1,0.4-0.1,0.6v4.4h-1.3V158.8z"/>
		<path class="st4" d="M60.4,154.8v2.1h1.9v1h-1.9v3.9c0,0.9,0.3,1.4,1,1.4c0.3,0,0.6,0,0.8-0.1l0.1,1c-0.3,0.1-0.7,0.2-1.2,0.2
			c-0.6,0-1.1-0.2-1.4-0.6c-0.4-0.4-0.5-1-0.5-1.9v-4h-1.1v-1h1.1v-1.7L60.4,154.8z"/>
		<path class="st4" d="M65.2,154.8c0,0.5-0.3,0.8-0.8,0.8c-0.5,0-0.8-0.4-0.8-0.8c0-0.5,0.3-0.8,0.8-0.8
			C64.9,154,65.2,154.4,65.2,154.8z M63.7,164.1v-7.3H65v7.3H63.7z"/>
		<path class="st4" d="M72.4,163.9c-0.3,0.2-1.1,0.4-2.1,0.4c-2.2,0-3.6-1.5-3.6-3.7c0-2.2,1.5-3.9,3.9-3.9c0.8,0,1.5,0.2,1.8,0.4
			l-0.3,1c-0.3-0.2-0.8-0.3-1.5-0.3c-1.7,0-2.6,1.2-2.6,2.7c0,1.7,1.1,2.7,2.5,2.7c0.8,0,1.2-0.2,1.6-0.4L72.4,163.9z"/>
		<path class="st4" d="M78,164.1l-0.1-0.9h0c-0.4,0.6-1.2,1.1-2.2,1.1c-1.5,0-2.2-1-2.2-2.1c0-1.8,1.6-2.7,4.4-2.7v-0.2
			c0-0.6-0.2-1.7-1.6-1.7c-0.7,0-1.4,0.2-1.9,0.5l-0.3-0.9c0.6-0.4,1.5-0.6,2.4-0.6c2.2,0,2.8,1.5,2.8,3v2.7c0,0.6,0,1.2,0.1,1.7H78
			z M77.8,160.4c-1.4,0-3.1,0.2-3.1,1.6c0,0.9,0.6,1.3,1.2,1.3c0.9,0,1.5-0.6,1.8-1.2c0-0.1,0.1-0.3,0.1-0.4V160.4z"/>
		<path class="st4" d="M86.4,163.9c-0.3,0.2-1.1,0.4-2.1,0.4c-2.2,0-3.6-1.5-3.6-3.7c0-2.2,1.5-3.9,3.9-3.9c0.8,0,1.5,0.2,1.8,0.4
			l-0.3,1c-0.3-0.2-0.8-0.3-1.5-0.3c-1.7,0-2.6,1.2-2.6,2.7c0,1.7,1.1,2.7,2.5,2.7c0.8,0,1.2-0.2,1.6-0.4L86.4,163.9z"/>
		<path class="st4" d="M89.4,154.8c0,0.5-0.3,0.8-0.8,0.8c-0.5,0-0.8-0.4-0.8-0.8c0-0.5,0.3-0.8,0.8-0.8
			C89.1,154,89.4,154.4,89.4,154.8z M87.9,164.1v-7.3h1.3v7.3H87.9z"/>
		<path class="st4" d="M98,160.5c0,2.7-1.9,3.9-3.6,3.9c-2,0-3.5-1.4-3.5-3.7c0-2.4,1.6-3.9,3.6-3.9C96.6,156.7,98,158.2,98,160.5z
			 M92.2,160.5c0,1.6,0.9,2.8,2.2,2.8c1.3,0,2.2-1.2,2.2-2.8c0-1.2-0.6-2.8-2.2-2.8C92.9,157.7,92.2,159.1,92.2,160.5z M96.4,153.7
			l-1.8,2.1h-0.9l1.3-2.1H96.4z"/>
		<path class="st4" d="M99.7,158.8c0-0.8,0-1.4-0.1-2h1.2l0.1,1.2h0c0.4-0.7,1.2-1.4,2.4-1.4c1,0,2.6,0.6,2.6,3.1v4.3h-1.3V160
			c0-1.2-0.4-2.1-1.7-2.1c-0.9,0-1.5,0.6-1.8,1.3c-0.1,0.2-0.1,0.4-0.1,0.6v4.4h-1.3V158.8z"/>
		<path class="st4" d="M117.4,153.5v8.8c0,0.6,0,1.4,0.1,1.9h-1.2l-0.1-1.3h0c-0.4,0.8-1.3,1.4-2.5,1.4c-1.8,0-3.1-1.5-3.1-3.7
			c0-2.4,1.5-3.9,3.3-3.9c1.1,0,1.9,0.5,2.2,1.1h0v-4.3H117.4z M116.1,159.8c0-0.2,0-0.4-0.1-0.6c-0.2-0.8-0.9-1.5-1.9-1.5
			c-1.4,0-2.2,1.2-2.2,2.8c0,1.5,0.7,2.7,2.1,2.7c0.9,0,1.7-0.6,1.9-1.6c0-0.2,0.1-0.4,0.1-0.6V159.8z"/>
		<path class="st4" d="M120.4,160.8c0,1.8,1.2,2.5,2.5,2.5c0.9,0,1.5-0.2,2-0.4l0.2,0.9c-0.5,0.2-1.3,0.4-2.4,0.4
			c-2.2,0-3.6-1.5-3.6-3.7s1.3-3.9,3.4-3.9c2.4,0,3,2.1,3,3.4c0,0.3,0,0.5,0,0.6H120.4z M124.2,159.8c0-0.8-0.3-2.1-1.8-2.1
			c-1.3,0-1.9,1.2-2,2.1H124.2z"/>
		<path class="st4" d="M136.6,153.5v8.8c0,0.6,0,1.4,0.1,1.9h-1.2l-0.1-1.3h0c-0.4,0.8-1.3,1.4-2.5,1.4c-1.8,0-3.1-1.5-3.1-3.7
			c0-2.4,1.5-3.9,3.3-3.9c1.1,0,1.9,0.5,2.2,1.1h0v-4.3H136.6z M135.3,159.8c0-0.2,0-0.4-0.1-0.6c-0.2-0.8-0.9-1.5-1.9-1.5
			c-1.4,0-2.2,1.2-2.2,2.8c0,1.5,0.7,2.7,2.1,2.7c0.9,0,1.7-0.6,1.9-1.6c0-0.2,0.1-0.4,0.1-0.6V159.8z"/>
		<path class="st4" d="M145.3,160.5c0,2.7-1.9,3.9-3.6,3.9c-2,0-3.5-1.4-3.5-3.7c0-2.4,1.6-3.9,3.6-3.9
			C143.9,156.7,145.3,158.2,145.3,160.5z M139.6,160.5c0,1.6,0.9,2.8,2.2,2.8c1.3,0,2.2-1.2,2.2-2.8c0-1.2-0.6-2.8-2.2-2.8
			C140.3,157.7,139.6,159.1,139.6,160.5z"/>
		<path class="st4" d="M146.8,162.8c0.4,0.3,1.1,0.5,1.7,0.5c1,0,1.4-0.5,1.4-1.1c0-0.6-0.4-1-1.3-1.3c-1.3-0.5-1.9-1.2-1.9-2.1
			c0-1.2,0.9-2.1,2.5-2.1c0.7,0,1.4,0.2,1.8,0.5l-0.3,1c-0.3-0.2-0.8-0.4-1.5-0.4c-0.8,0-1.2,0.4-1.2,1c0,0.6,0.4,0.9,1.4,1.2
			c1.3,0.5,1.9,1.1,1.9,2.2c0,1.3-1,2.2-2.7,2.2c-0.8,0-1.5-0.2-2-0.5L146.8,162.8z"/>
		<path class="st4" d="M156.3,164.1v-6.3h-1v-1h1v-0.3c0-1,0.2-2,0.8-2.5c0.5-0.5,1.2-0.7,1.8-0.7c0.5,0,0.9,0.1,1.1,0.2l-0.2,1
			c-0.2-0.1-0.5-0.2-0.8-0.2c-1.1,0-1.4,1-1.4,2.1v0.4h1.8v1h-1.8v6.3H156.3z"/>
		<path class="st4" d="M164.5,164.1l-0.1-0.9h0c-0.4,0.6-1.2,1.1-2.2,1.1c-1.5,0-2.2-1-2.2-2.1c0-1.8,1.6-2.7,4.4-2.7v-0.2
			c0-0.6-0.2-1.7-1.6-1.7c-0.7,0-1.4,0.2-1.9,0.5l-0.3-0.9c0.6-0.4,1.5-0.6,2.4-0.6c2.2,0,2.8,1.5,2.8,3v2.7c0,0.6,0,1.2,0.1,1.7
			H164.5z M164.3,160.4c-1.4,0-3.1,0.2-3.1,1.6c0,0.9,0.6,1.3,1.2,1.3c0.9,0,1.5-0.6,1.8-1.2c0-0.1,0.1-0.3,0.1-0.4V160.4z"/>
		<path class="st4" d="M172.9,163.9c-0.3,0.2-1.1,0.4-2.1,0.4c-2.2,0-3.6-1.5-3.6-3.7c0-2.2,1.5-3.9,3.9-3.9c0.8,0,1.5,0.2,1.8,0.4
			l-0.3,1c-0.3-0.2-0.8-0.3-1.5-0.3c-1.7,0-2.6,1.2-2.6,2.7c0,1.7,1.1,2.7,2.5,2.7c0.8,0,1.2-0.2,1.6-0.4L172.9,163.9z"/>
		<path class="st4" d="M176.2,154.8v2.1h1.9v1h-1.9v3.9c0,0.9,0.3,1.4,1,1.4c0.3,0,0.6,0,0.8-0.1l0.1,1c-0.3,0.1-0.7,0.2-1.2,0.2
			c-0.6,0-1.1-0.2-1.4-0.6c-0.4-0.4-0.5-1-0.5-1.9v-4h-1.1v-1h1.1v-1.7L176.2,154.8z"/>
		<path class="st4" d="M186.1,160.5c0,2.7-1.9,3.9-3.6,3.9c-2,0-3.5-1.4-3.5-3.7c0-2.4,1.6-3.9,3.6-3.9
			C184.7,156.7,186.1,158.2,186.1,160.5z M180.3,160.5c0,1.6,0.9,2.8,2.2,2.8c1.3,0,2.2-1.2,2.2-2.8c0-1.2-0.6-2.8-2.2-2.8
			C181,157.7,180.3,159.1,180.3,160.5z"/>
		<path class="st4" d="M187.8,159.1c0-0.9,0-1.6-0.1-2.3h1.2l0,1.4h0.1c0.3-1,1.1-1.6,2-1.6c0.2,0,0.3,0,0.4,0v1.2
			c-0.1,0-0.3,0-0.5,0c-0.9,0-1.6,0.7-1.8,1.7c0,0.2-0.1,0.4-0.1,0.6v3.9h-1.3V159.1z"/>
		<path class="st4" d="M193.3,160.8c0,1.8,1.2,2.5,2.5,2.5c0.9,0,1.5-0.2,2-0.4l0.2,0.9c-0.5,0.2-1.3,0.4-2.4,0.4
			c-2.2,0-3.6-1.5-3.6-3.7s1.3-3.9,3.4-3.9c2.4,0,3,2.1,3,3.4c0,0.3,0,0.5,0,0.6H193.3z M197.1,159.8c0-0.8-0.3-2.1-1.8-2.1
			c-1.3,0-1.9,1.2-2,2.1H197.1z"/>
		<path class="st4" d="M199.9,162.8c0.4,0.3,1.1,0.5,1.7,0.5c1,0,1.4-0.5,1.4-1.1c0-0.6-0.4-1-1.3-1.3c-1.3-0.5-1.9-1.2-1.9-2.1
			c0-1.2,0.9-2.1,2.5-2.1c0.7,0,1.4,0.2,1.8,0.5l-0.3,1c-0.3-0.2-0.8-0.4-1.5-0.4c-0.8,0-1.2,0.4-1.2,1c0,0.6,0.4,0.9,1.4,1.2
			c1.3,0.5,1.9,1.1,1.9,2.2c0,1.3-1,2.2-2.7,2.2c-0.8,0-1.5-0.2-2-0.5L199.9,162.8z"/>
		<path class="st4" d="M209.7,156.9l1.4,4.1c0.2,0.7,0.4,1.3,0.6,1.9h0c0.2-0.6,0.4-1.2,0.6-1.9l1.4-4.1h1.4l-2.8,7.3H211l-2.8-7.3
			H209.7z"/>
		<path class="st4" d="M217.8,154.8c0,0.5-0.3,0.8-0.8,0.8c-0.5,0-0.8-0.4-0.8-0.8c0-0.5,0.3-0.8,0.8-0.8
			C217.5,154,217.8,154.4,217.8,154.8z M216.4,164.1v-7.3h1.3v7.3H216.4z"/>
		<path class="st4" d="M220.6,160.8c0,1.8,1.2,2.5,2.5,2.5c0.9,0,1.5-0.2,2-0.4l0.2,0.9c-0.5,0.2-1.3,0.4-2.4,0.4
			c-2.2,0-3.6-1.5-3.6-3.7s1.3-3.9,3.4-3.9c2.4,0,3,2.1,3,3.4c0,0.3,0,0.5,0,0.6H220.6z M224.5,159.8c0-0.8-0.3-2.1-1.8-2.1
			c-1.3,0-1.9,1.2-2,2.1H224.5z"/>
		<path class="st4" d="M227.4,158.8c0-0.8,0-1.4-0.1-2h1.2l0.1,1.2h0c0.4-0.7,1.2-1.4,2.4-1.4c1,0,2.6,0.6,2.6,3.1v4.3h-1.3V160
			c0-1.2-0.4-2.1-1.7-2.1c-0.9,0-1.5,0.6-1.8,1.3c-0.1,0.2-0.1,0.4-0.1,0.6v4.4h-1.3V158.8z"/>
		<path class="st4" d="M236.4,160.8c0,1.8,1.2,2.5,2.5,2.5c0.9,0,1.5-0.2,2-0.4l0.2,0.9c-0.5,0.2-1.3,0.4-2.4,0.4
			c-2.2,0-3.6-1.5-3.6-3.7s1.3-3.9,3.4-3.9c2.4,0,3,2.1,3,3.4c0,0.3,0,0.5,0,0.6H236.4z M240.3,159.8c0-0.8-0.3-2.1-1.8-2.1
			c-1.3,0-1.9,1.2-2,2.1H240.3z"/>
		<path class="st4" d="M251.6,163.9c-0.3,0.2-1.1,0.4-2.1,0.4c-2.2,0-3.6-1.5-3.6-3.7c0-2.2,1.5-3.9,3.9-3.9c0.8,0,1.5,0.2,1.8,0.4
			l-0.3,1c-0.3-0.2-0.8-0.3-1.5-0.3c-1.7,0-2.6,1.2-2.6,2.7c0,1.7,1.1,2.7,2.5,2.7c0.8,0,1.2-0.2,1.6-0.4L251.6,163.9z"/>
		<path class="st4" d="M259.6,160.5c0,2.7-1.9,3.9-3.6,3.9c-2,0-3.5-1.4-3.5-3.7c0-2.4,1.6-3.9,3.6-3.9
			C258.2,156.7,259.6,158.2,259.6,160.5z M253.8,160.5c0,1.6,0.9,2.8,2.2,2.8c1.3,0,2.2-1.2,2.2-2.8c0-1.2-0.6-2.8-2.2-2.8
			C254.5,157.7,253.8,159.1,253.8,160.5z"/>
		<path class="st4" d="M261.3,158.8c0-0.8,0-1.4-0.1-2h1.2l0.1,1.2h0c0.4-0.7,1.2-1.4,2.4-1.4c1,0,2.6,0.6,2.6,3.1v4.3h-1.3V160
			c0-1.2-0.4-2.1-1.7-2.1c-0.9,0-1.5,0.6-1.8,1.3c-0.1,0.2-0.1,0.4-0.1,0.6v4.4h-1.3V158.8z"/>
		<path class="st4" d="M272.8,153.5h1.3v10.6h-1.3V153.5z"/>
		<path class="st4" d="M282.9,160.5c0,2.7-1.9,3.9-3.6,3.9c-2,0-3.5-1.4-3.5-3.7c0-2.4,1.6-3.9,3.6-3.9
			C281.5,156.7,282.9,158.2,282.9,160.5z M277.1,160.5c0,1.6,0.9,2.8,2.2,2.8c1.3,0,2.2-1.2,2.2-2.8c0-1.2-0.6-2.8-2.2-2.8
			C277.8,157.7,277.1,159.1,277.1,160.5z"/>
		<path class="st4" d="M284.4,162.8c0.4,0.3,1.1,0.5,1.7,0.5c1,0,1.4-0.5,1.4-1.1c0-0.6-0.4-1-1.3-1.3c-1.3-0.5-1.9-1.2-1.9-2.1
			c0-1.2,0.9-2.1,2.5-2.1c0.7,0,1.4,0.2,1.8,0.5l-0.3,1c-0.3-0.2-0.8-0.4-1.5-0.4c-0.8,0-1.2,0.4-1.2,1c0,0.6,0.4,0.9,1.4,1.2
			c1.3,0.5,1.9,1.1,1.9,2.2c0,1.3-1,2.2-2.7,2.2c-0.8,0-1.5-0.2-2-0.5L284.4,162.8z"/>
		<path class="st4" d="M293.5,162.8c0.4,0.3,1.1,0.5,1.7,0.5c1,0,1.4-0.5,1.4-1.1c0-0.6-0.4-1-1.3-1.3c-1.3-0.5-1.9-1.2-1.9-2.1
			c0-1.2,0.9-2.1,2.5-2.1c0.7,0,1.4,0.2,1.8,0.5l-0.3,1c-0.3-0.2-0.8-0.4-1.5-0.4c-0.8,0-1.2,0.4-1.2,1c0,0.6,0.4,0.9,1.4,1.2
			c1.3,0.5,1.9,1.1,1.9,2.2c0,1.3-1,2.2-2.7,2.2c-0.8,0-1.5-0.2-2-0.5L293.5,162.8z"/>
		<path class="st4" d="M300.3,160.8c0,1.8,1.2,2.5,2.5,2.5c0.9,0,1.5-0.2,2-0.4l0.2,0.9c-0.5,0.2-1.3,0.4-2.4,0.4
			c-2.2,0-3.6-1.5-3.6-3.7s1.3-3.9,3.4-3.9c2.4,0,3,2.1,3,3.4c0,0.3,0,0.5,0,0.6H300.3z M304.2,159.8c0-0.8-0.3-2.1-1.8-2.1
			c-1.3,0-1.9,1.2-2,2.1H304.2z"/>
		<path class="st4" d="M307.1,159.1c0-0.9,0-1.6-0.1-2.3h1.2l0,1.4h0.1c0.3-1,1.1-1.6,2-1.6c0.2,0,0.3,0,0.4,0v1.2
			c-0.1,0-0.3,0-0.5,0c-0.9,0-1.6,0.7-1.8,1.7c0,0.2-0.1,0.4-0.1,0.6v3.9h-1.3V159.1z"/>
		<path class="st4" d="M312.9,156.9l1.4,4.1c0.2,0.7,0.4,1.3,0.6,1.9h0c0.2-0.6,0.4-1.2,0.6-1.9l1.4-4.1h1.4l-2.8,7.3h-1.3l-2.8-7.3
			H312.9z"/>
		<path class="st4" d="M321.1,154.8c0,0.5-0.3,0.8-0.8,0.8c-0.5,0-0.8-0.4-0.8-0.8c0-0.5,0.3-0.8,0.8-0.8
			C320.8,154,321.1,154.4,321.1,154.8z M319.6,164.1v-7.3h1.3v7.3H319.6z"/>
		<path class="st4" d="M328.3,163.9c-0.3,0.2-1.1,0.4-2.1,0.4c-2.2,0-3.6-1.5-3.6-3.7c0-2.2,1.5-3.9,3.9-3.9c0.8,0,1.5,0.2,1.8,0.4
			l-0.3,1c-0.3-0.2-0.8-0.3-1.5-0.3c-1.7,0-2.6,1.2-2.6,2.7c0,1.7,1.1,2.7,2.5,2.7c0.8,0,1.2-0.2,1.6-0.4L328.3,163.9z"/>
		<path class="st4" d="M331.3,154.8c0,0.5-0.3,0.8-0.8,0.8c-0.5,0-0.8-0.4-0.8-0.8c0-0.5,0.3-0.8,0.8-0.8
			C331,154,331.3,154.4,331.3,154.8z M329.9,164.1v-7.3h1.3v7.3H329.9z"/>
		<path class="st4" d="M339.9,160.5c0,2.7-1.9,3.9-3.6,3.9c-2,0-3.5-1.4-3.5-3.7c0-2.4,1.6-3.9,3.6-3.9
			C338.5,156.7,339.9,158.2,339.9,160.5z M334.2,160.5c0,1.6,0.9,2.8,2.2,2.8c1.3,0,2.2-1.2,2.2-2.8c0-1.2-0.6-2.8-2.2-2.8
			C334.8,157.7,334.2,159.1,334.2,160.5z"/>
		<path class="st4" d="M341.4,162.8c0.4,0.3,1.1,0.5,1.7,0.5c1,0,1.4-0.5,1.4-1.1c0-0.6-0.4-1-1.3-1.3c-1.3-0.5-1.9-1.2-1.9-2.1
			c0-1.2,0.9-2.1,2.5-2.1c0.7,0,1.4,0.2,1.8,0.5l-0.3,1c-0.3-0.2-0.8-0.4-1.5-0.4c-0.8,0-1.2,0.4-1.2,1c0,0.6,0.4,0.9,1.4,1.2
			c1.3,0.5,1.9,1.1,1.9,2.2c0,1.3-1,2.2-2.7,2.2c-0.8,0-1.5-0.2-2-0.5L341.4,162.8z"/>
		<path class="st4" d="M42.3,178.8c0,1.8,1.2,2.5,2.5,2.5c0.9,0,1.5-0.2,2-0.4l0.2,0.9c-0.5,0.2-1.3,0.4-2.4,0.4
			c-2.2,0-3.6-1.5-3.6-3.7s1.3-3.9,3.4-3.9c2.4,0,3,2.1,3,3.4c0,0.3,0,0.5,0,0.6H42.3z M46.1,177.8c0-0.8-0.3-2.1-1.8-2.1
			c-1.3,0-1.9,1.2-2,2.1H46.1z"/>
		<path class="st4" d="M49,176.8c0-0.8,0-1.4-0.1-2h1.2l0.1,1.2h0c0.4-0.7,1.2-1.4,2.4-1.4c1,0,2.6,0.6,2.6,3.1v4.3h-1.3V178
			c0-1.2-0.4-2.1-1.7-2.1c-0.9,0-1.5,0.6-1.8,1.3c-0.1,0.2-0.1,0.4-0.1,0.6v4.4H49V176.8z"/>
		<path class="st4" d="M60.5,171.5h1.3v10.6h-1.3V171.5z"/>
		<path class="st4" d="M68.1,182.1l-0.1-0.9h0c-0.4,0.6-1.2,1.1-2.2,1.1c-1.5,0-2.2-1-2.2-2.1c0-1.8,1.6-2.7,4.4-2.7v-0.2
			c0-0.6-0.2-1.7-1.6-1.7c-0.7,0-1.4,0.2-1.9,0.5l-0.3-0.9c0.6-0.4,1.5-0.6,2.4-0.6c2.2,0,2.8,1.5,2.8,3v2.7c0,0.6,0,1.2,0.1,1.7
			H68.1z M67.9,178.4c-1.4,0-3.1,0.2-3.1,1.6c0,0.9,0.6,1.3,1.2,1.3c0.9,0,1.5-0.6,1.8-1.2c0-0.1,0.1-0.3,0.1-0.4V178.4z"/>
		<path class="st4" d="M74.5,176.8c0-0.8,0-1.4-0.1-2h1.2l0.1,1.2h0c0.4-0.7,1.2-1.4,2.4-1.4c1,0,2.6,0.6,2.6,3.1v4.3h-1.3V178
			c0-1.2-0.4-2.1-1.7-2.1c-0.9,0-1.5,0.6-1.8,1.3c-0.1,0.2-0.1,0.4-0.1,0.6v4.4h-1.3V176.8z"/>
		<path class="st4" d="M88.9,180.2c0,0.8,0,1.4,0.1,2h-1.2l-0.1-1.2h0c-0.3,0.6-1.1,1.4-2.4,1.4c-1.1,0-2.5-0.6-2.5-3.2v-4.2h1.3v4
			c0,1.4,0.4,2.3,1.6,2.3c0.9,0,1.5-0.6,1.7-1.2c0.1-0.2,0.1-0.4,0.1-0.7v-4.5h1.3V180.2z"/>
		<path class="st4" d="M91,182.1c0-0.5,0.1-1.2,0.1-1.9v-8.8h1.3v4.6h0c0.5-0.8,1.3-1.3,2.5-1.3c1.8,0,3.1,1.5,3.1,3.7
			c0,2.6-1.6,3.9-3.3,3.9c-1,0-1.9-0.4-2.4-1.4h0l-0.1,1.2H91z M92.4,179.2c0,0.2,0,0.3,0.1,0.5c0.3,0.9,1,1.5,2,1.5
			c1.4,0,2.2-1.1,2.2-2.8c0-1.5-0.8-2.7-2.2-2.7c-0.9,0-1.7,0.6-2,1.6c0,0.1-0.1,0.3-0.1,0.5V179.2z"/>
		<path class="st4" d="M100.4,178.8c0,1.8,1.2,2.5,2.5,2.5c0.9,0,1.5-0.2,2-0.4l0.2,0.9c-0.5,0.2-1.3,0.4-2.4,0.4
			c-2.2,0-3.6-1.5-3.6-3.7s1.3-3.9,3.4-3.9c2.4,0,3,2.1,3,3.4c0,0.3,0,0.5,0,0.6H100.4z M104.2,177.8c0-0.8-0.3-2.1-1.8-2.1
			c-1.3,0-1.9,1.2-2,2.1H104.2z"/>
		<path class="st4" d="M115.3,181L115.3,181c-0.4,0.7-1.2,1.3-2.4,1.3c-1.7,0-3.1-1.5-3.1-3.7c0-2.7,1.8-3.9,3.3-3.9
			c1.1,0,1.9,0.6,2.2,1.3h0l0-1.1h1.2c0,0.6,0,1.2,0,2v8.2h-1.3V181z M115.3,177.8c0-0.2,0-0.4-0.1-0.6c-0.2-0.8-0.9-1.5-1.9-1.5
			c-1.4,0-2.2,1.2-2.2,2.8c0,1.4,0.7,2.7,2.1,2.7c0.9,0,1.6-0.5,1.9-1.4c0.1-0.2,0.1-0.4,0.1-0.6V177.8z"/>
		<path class="st4" d="M124.8,180.2c0,0.8,0,1.4,0.1,2h-1.2l-0.1-1.2h0c-0.3,0.6-1.1,1.4-2.4,1.4c-1.1,0-2.5-0.6-2.5-3.2v-4.2h1.3v4
			c0,1.4,0.4,2.3,1.6,2.3c0.9,0,1.5-0.6,1.7-1.2c0.1-0.2,0.1-0.4,0.1-0.7v-4.5h1.3V180.2z"/>
		<path class="st4" d="M127.8,178.8c0,1.8,1.2,2.5,2.5,2.5c0.9,0,1.5-0.2,2-0.4l0.2,0.9c-0.5,0.2-1.3,0.4-2.4,0.4
			c-2.2,0-3.6-1.5-3.6-3.7s1.3-3.9,3.4-3.9c2.4,0,3,2.1,3,3.4c0,0.3,0,0.5,0,0.6H127.8z M131.6,177.8c0-0.8-0.3-2.1-1.8-2.1
			c-1.3,0-1.9,1.2-2,2.1H131.6z"/>
		<path class="st4" d="M137.7,176.8c0-0.8,0-1.4-0.1-2h1.2l0.1,1.2h0c0.4-0.7,1.1-1.3,2.3-1.3c1,0,1.7,0.6,2.1,1.5h0
			c0.2-0.4,0.5-0.7,0.8-0.9c0.4-0.3,0.9-0.5,1.6-0.5c1,0,2.4,0.6,2.4,3.1v4.3h-1.3V178c0-1.4-0.5-2.2-1.6-2.2
			c-0.8,0-1.3,0.6-1.6,1.2c-0.1,0.2-0.1,0.4-0.1,0.7v4.5h-1.3v-4.3c0-1.2-0.5-2-1.5-2c-0.8,0-1.4,0.7-1.6,1.3
			c-0.1,0.2-0.1,0.4-0.1,0.6v4.4h-1.3V176.8z"/>
		<path class="st4" d="M154.2,182.1l-0.1-0.9h0c-0.4,0.6-1.2,1.1-2.2,1.1c-1.5,0-2.2-1-2.2-2.1c0-1.8,1.6-2.7,4.4-2.7v-0.2
			c0-0.6-0.2-1.7-1.6-1.7c-0.7,0-1.4,0.2-1.9,0.5l-0.3-0.9c0.6-0.4,1.5-0.6,2.4-0.6c2.2,0,2.8,1.5,2.8,3v2.7c0,0.6,0,1.2,0.1,1.7
			H154.2z M154.1,178.4c-1.4,0-3.1,0.2-3.1,1.6c0,0.9,0.6,1.3,1.2,1.3c0.9,0,1.5-0.6,1.8-1.2c0-0.1,0.1-0.3,0.1-0.4V178.4z
			 M154.7,171.7l-1.8,2.1h-0.9l1.3-2.1H154.7z"/>
		<path class="st4" d="M157.3,180.8c0.4,0.3,1.1,0.5,1.7,0.5c1,0,1.4-0.5,1.4-1.1c0-0.6-0.4-1-1.3-1.3c-1.3-0.5-1.9-1.2-1.9-2.1
			c0-1.2,0.9-2.1,2.5-2.1c0.7,0,1.4,0.2,1.8,0.5l-0.3,1c-0.3-0.2-0.8-0.4-1.5-0.4c-0.8,0-1.2,0.4-1.2,1c0,0.6,0.4,0.9,1.4,1.2
			c1.3,0.5,1.9,1.1,1.9,2.2c0,1.3-1,2.2-2.7,2.2c-0.8,0-1.5-0.2-2-0.5L157.3,180.8z"/>
		<path class="st4" d="M166.6,177.3c0-0.9,0-1.7-0.1-2.4h1.2l0.1,1.2h0c0.5-0.9,1.4-1.4,2.6-1.4c1.8,0,3.1,1.5,3.1,3.7
			c0,2.6-1.6,3.9-3.3,3.9c-1,0-1.8-0.4-2.2-1.1h0v3.9h-1.3V177.3z M167.9,179.2c0,0.2,0,0.4,0.1,0.5c0.2,0.9,1,1.5,2,1.5
			c1.4,0,2.2-1.1,2.2-2.8c0-1.5-0.8-2.7-2.2-2.7c-0.9,0-1.7,0.6-2,1.6c0,0.2-0.1,0.4-0.1,0.5V179.2z"/>
		<path class="st4" d="M175.8,178.8c0,1.8,1.2,2.5,2.5,2.5c0.9,0,1.5-0.2,2-0.4l0.2,0.9c-0.5,0.2-1.3,0.4-2.4,0.4
			c-2.2,0-3.6-1.5-3.6-3.7s1.3-3.9,3.4-3.9c2.4,0,3,2.1,3,3.4c0,0.3,0,0.5,0,0.6H175.8z M179.7,177.8c0-0.8-0.3-2.1-1.8-2.1
			c-1.3,0-1.9,1.2-2,2.1H179.7z"/>
		<path class="st4" d="M187.6,181L187.6,181c-0.4,0.7-1.2,1.3-2.4,1.3c-1.7,0-3.1-1.5-3.1-3.7c0-2.7,1.8-3.9,3.3-3.9
			c1.1,0,1.9,0.6,2.2,1.3h0l0-1.1h1.2c0,0.6,0,1.2,0,2v8.2h-1.3V181z M187.6,177.8c0-0.2,0-0.4-0.1-0.6c-0.2-0.8-0.9-1.5-1.9-1.5
			c-1.4,0-2.2,1.2-2.2,2.8c0,1.4,0.7,2.7,2.1,2.7c0.9,0,1.6-0.5,1.9-1.4c0.1-0.2,0.1-0.4,0.1-0.6V177.8z"/>
		<path class="st4" d="M197.1,180.2c0,0.8,0,1.4,0.1,2H196L196,181h0c-0.3,0.6-1.1,1.4-2.4,1.4c-1.1,0-2.5-0.6-2.5-3.2v-4.2h1.3v4
			c0,1.4,0.4,2.3,1.6,2.3c0.9,0,1.5-0.6,1.7-1.2c0.1-0.2,0.1-0.4,0.1-0.7v-4.5h1.3V180.2z"/>
		<path class="st4" d="M200.1,178.8c0,1.8,1.2,2.5,2.5,2.5c0.9,0,1.5-0.2,2-0.4l0.2,0.9c-0.5,0.2-1.3,0.4-2.4,0.4
			c-2.2,0-3.6-1.5-3.6-3.7s1.3-3.9,3.4-3.9c2.4,0,3,2.1,3,3.4c0,0.3,0,0.5,0,0.6H200.1z M203.9,177.8c0-0.8-0.3-2.1-1.8-2.1
			c-1.3,0-1.9,1.2-2,2.1H203.9z"/>
		<path class="st4" d="M206.9,176.8c0-0.8,0-1.4-0.1-2h1.2l0.1,1.2h0c0.4-0.7,1.2-1.4,2.4-1.4c1,0,2.6,0.6,2.6,3.1v4.3h-1.3V178
			c0-1.2-0.4-2.1-1.7-2.1c-0.9,0-1.5,0.6-1.8,1.3c-0.1,0.2-0.1,0.4-0.1,0.6v4.4h-1.3V176.8z M208.1,173.6c0-1,0.4-1.6,1-1.6
			c0.3,0,0.6,0.1,0.9,0.3c0.2,0.1,0.5,0.3,0.6,0.3c0.2,0,0.4-0.1,0.4-0.6h0.7c0,1-0.3,1.5-1,1.5c-0.3,0-0.6-0.1-0.9-0.3
			c-0.3-0.2-0.5-0.3-0.6-0.3c-0.2,0-0.4,0.3-0.4,0.7H208.1z"/>
		<path class="st4" d="M219.2,182.1l-0.1-0.9h0c-0.4,0.6-1.2,1.1-2.2,1.1c-1.5,0-2.2-1-2.2-2.1c0-1.8,1.6-2.7,4.4-2.7v-0.2
			c0-0.6-0.2-1.7-1.6-1.7c-0.7,0-1.4,0.2-1.9,0.5l-0.3-0.9c0.6-0.4,1.5-0.6,2.4-0.6c2.2,0,2.8,1.5,2.8,3v2.7c0,0.6,0,1.2,0.1,1.7
			H219.2z M219,178.4c-1.4,0-3.1,0.2-3.1,1.6c0,0.9,0.6,1.3,1.2,1.3c0.9,0,1.5-0.6,1.8-1.2c0-0.1,0.1-0.3,0.1-0.4V178.4z"/>
		<path class="st4" d="M222.2,180.8c0.4,0.3,1.1,0.5,1.7,0.5c1,0,1.4-0.5,1.4-1.1c0-0.6-0.4-1-1.3-1.3c-1.3-0.5-1.9-1.2-1.9-2.1
			c0-1.2,0.9-2.1,2.5-2.1c0.7,0,1.4,0.2,1.8,0.5l-0.3,1c-0.3-0.2-0.8-0.4-1.5-0.4c-0.8,0-1.2,0.4-1.2,1c0,0.6,0.4,0.9,1.4,1.2
			c1.3,0.5,1.9,1.1,1.9,2.2c0,1.3-1,2.2-2.7,2.2c-0.8,0-1.5-0.2-2-0.5L222.2,180.8z"/>
		<path class="st4" d="M232.3,178.8c0,1.8,1.2,2.5,2.5,2.5c0.9,0,1.5-0.2,2-0.4l0.2,0.9c-0.5,0.2-1.3,0.4-2.4,0.4
			c-2.2,0-3.6-1.5-3.6-3.7s1.3-3.9,3.4-3.9c2.4,0,3,2.1,3,3.4c0,0.3,0,0.5,0,0.6H232.3z M236.1,177.8c0-0.8-0.3-2.1-1.8-2.1
			c-1.3,0-1.9,1.2-2,2.1H236.1z"/>
		<path class="st4" d="M239,176.8c0-0.8,0-1.4-0.1-2h1.2l0.1,1.2h0c0.4-0.7,1.1-1.3,2.3-1.3c1,0,1.7,0.6,2.1,1.5h0
			c0.2-0.4,0.5-0.7,0.8-0.9c0.4-0.3,0.9-0.5,1.6-0.5c1,0,2.4,0.6,2.4,3.1v4.3h-1.3V178c0-1.4-0.5-2.2-1.6-2.2
			c-0.8,0-1.3,0.6-1.6,1.2c-0.1,0.2-0.1,0.4-0.1,0.7v4.5h-1.3v-4.3c0-1.2-0.5-2-1.5-2c-0.8,0-1.4,0.7-1.6,1.3
			c-0.1,0.2-0.1,0.4-0.1,0.6v4.4H239V176.8z"/>
		<path class="st4" d="M251.6,177.3c0-0.9,0-1.7-0.1-2.4h1.2l0.1,1.2h0c0.5-0.9,1.4-1.4,2.6-1.4c1.8,0,3.1,1.5,3.1,3.7
			c0,2.6-1.6,3.9-3.3,3.9c-1,0-1.8-0.4-2.2-1.1h0v3.9h-1.3V177.3z M252.9,179.2c0,0.2,0,0.4,0.1,0.5c0.2,0.9,1,1.5,2,1.5
			c1.4,0,2.2-1.1,2.2-2.8c0-1.5-0.8-2.7-2.2-2.7c-0.9,0-1.7,0.6-2,1.6c0,0.2-0.1,0.4-0.1,0.5V179.2z"/>
		<path class="st4" d="M260.1,177.1c0-0.9,0-1.6-0.1-2.3h1.2l0,1.4h0.1c0.3-1,1.1-1.6,2-1.6c0.2,0,0.3,0,0.4,0v1.2
			c-0.1,0-0.3,0-0.5,0c-0.9,0-1.6,0.7-1.8,1.7c0,0.2-0.1,0.4-0.1,0.6v3.9h-1.3V177.1z"/>
		<path class="st4" d="M265.6,178.8c0,1.8,1.2,2.5,2.5,2.5c0.9,0,1.5-0.2,2-0.4l0.2,0.9c-0.5,0.2-1.3,0.4-2.4,0.4
			c-2.2,0-3.6-1.5-3.6-3.7s1.3-3.9,3.4-3.9c2.4,0,3,2.1,3,3.4c0,0.3,0,0.5,0,0.6H265.6z M269.4,177.8c0-0.8-0.3-2.1-1.8-2.1
			c-1.3,0-1.9,1.2-2,2.1H269.4z"/>
		<path class="st4" d="M272.2,180.8c0.4,0.3,1.1,0.5,1.7,0.5c1,0,1.4-0.5,1.4-1.1c0-0.6-0.4-1-1.3-1.3c-1.3-0.5-1.9-1.2-1.9-2.1
			c0-1.2,0.9-2.1,2.5-2.1c0.7,0,1.4,0.2,1.8,0.5l-0.3,1c-0.3-0.2-0.8-0.4-1.5-0.4c-0.8,0-1.2,0.4-1.2,1c0,0.6,0.4,0.9,1.4,1.2
			c1.3,0.5,1.9,1.1,1.9,2.2c0,1.3-1,2.2-2.7,2.2c-0.8,0-1.5-0.2-2-0.5L272.2,180.8z"/>
		<path class="st4" d="M282.3,182.1l-0.1-0.9h0c-0.4,0.6-1.2,1.1-2.2,1.1c-1.5,0-2.2-1-2.2-2.1c0-1.8,1.6-2.7,4.4-2.7v-0.2
			c0-0.6-0.2-1.7-1.6-1.7c-0.7,0-1.4,0.2-1.9,0.5l-0.3-0.9c0.6-0.4,1.5-0.6,2.4-0.6c2.2,0,2.8,1.5,2.8,3v2.7c0,0.6,0,1.2,0.1,1.7
			H282.3z M282.1,178.4c-1.4,0-3.1,0.2-3.1,1.6c0,0.9,0.6,1.3,1.2,1.3c0.9,0,1.5-0.6,1.8-1.2c0-0.1,0.1-0.3,0.1-0.4V178.4z"/>
		<path class="st4" d="M285.3,180.8c0.4,0.3,1.1,0.5,1.7,0.5c1,0,1.4-0.5,1.4-1.1c0-0.6-0.4-1-1.3-1.3c-1.3-0.5-1.9-1.2-1.9-2.1
			c0-1.2,0.9-2.1,2.5-2.1c0.7,0,1.4,0.2,1.8,0.5l-0.3,1c-0.3-0.2-0.8-0.4-1.5-0.4c-0.8,0-1.2,0.4-1.2,1c0,0.6,0.4,0.9,1.4,1.2
			c1.3,0.5,1.9,1.1,1.9,2.2c0,1.3-1,2.2-2.7,2.2c-0.8,0-1.5-0.2-2-0.5L285.3,180.8z"/>
		<path class="st4" d="M295.4,178.8c0,1.8,1.2,2.5,2.5,2.5c0.9,0,1.5-0.2,2-0.4l0.2,0.9c-0.5,0.2-1.3,0.4-2.4,0.4
			c-2.2,0-3.6-1.5-3.6-3.7s1.3-3.9,3.4-3.9c2.4,0,3,2.1,3,3.4c0,0.3,0,0.5,0,0.6H295.4z M299.3,177.8c0-0.8-0.3-2.1-1.8-2.1
			c-1.3,0-1.9,1.2-2,2.1H299.3z"/>
		<path class="st4" d="M302,180.8c0.4,0.3,1.1,0.5,1.7,0.5c1,0,1.4-0.5,1.4-1.1c0-0.6-0.4-1-1.3-1.3c-1.3-0.5-1.9-1.2-1.9-2.1
			c0-1.2,0.9-2.1,2.5-2.1c0.7,0,1.4,0.2,1.8,0.5l-0.3,1c-0.3-0.2-0.8-0.4-1.5-0.4c-0.8,0-1.2,0.4-1.2,1c0,0.6,0.4,0.9,1.4,1.2
			c1.3,0.5,1.9,1.1,1.9,2.2c0,1.3-1,2.2-2.7,2.2c-0.8,0-1.5-0.2-2-0.5L302,180.8z"/>
		<path class="st4" d="M309.7,172.8v2.1h1.9v1h-1.9v3.9c0,0.9,0.3,1.4,1,1.4c0.3,0,0.6,0,0.8-0.1l0.1,1c-0.3,0.1-0.7,0.2-1.2,0.2
			c-0.6,0-1.1-0.2-1.4-0.6c-0.4-0.4-0.5-1-0.5-1.9v-4h-1.1v-1h1.1v-1.7L309.7,172.8z"/>
		<path class="st4" d="M317.1,182.1l-0.1-0.9h0c-0.4,0.6-1.2,1.1-2.2,1.1c-1.5,0-2.2-1-2.2-2.1c0-1.8,1.6-2.7,4.4-2.7v-0.2
			c0-0.6-0.2-1.7-1.6-1.7c-0.7,0-1.4,0.2-1.9,0.5l-0.3-0.9c0.6-0.4,1.5-0.6,2.4-0.6c2.2,0,2.8,1.5,2.8,3v2.7c0,0.6,0,1.2,0.1,1.7
			H317.1z M316.9,178.4c-1.4,0-3.1,0.2-3.1,1.6c0,0.9,0.6,1.3,1.2,1.3c0.9,0,1.5-0.6,1.8-1.2c0-0.1,0.1-0.3,0.1-0.4V178.4z
			 M317.6,171.7l-1.8,2.1h-0.9l1.3-2.1H317.6z"/>
		<path class="st4" d="M320.3,176.8c0-0.8,0-1.4-0.1-2h1.2l0.1,1.2h0c0.4-0.7,1.2-1.4,2.4-1.4c1,0,2.6,0.6,2.6,3.1v4.3h-1.3V178
			c0-1.2-0.4-2.1-1.7-2.1c-0.9,0-1.5,0.6-1.8,1.3c-0.1,0.2-0.1,0.4-0.1,0.6v4.4h-1.3V176.8z"/>
		<path class="st4" d="M28.3,198.2c0,0.8,0,1.4,0.1,2h-1.2l-0.1-1.2h0c-0.3,0.6-1.1,1.4-2.4,1.4c-1.1,0-2.5-0.6-2.5-3.2v-4.2h1.3v4
			c0,1.4,0.4,2.3,1.6,2.3c0.9,0,1.5-0.6,1.7-1.2c0.1-0.2,0.1-0.4,0.1-0.7v-4.5h1.3V198.2z"/>
		<path class="st4" d="M32.1,190.8v2.1H34v1h-1.9v3.9c0,0.9,0.3,1.4,1,1.4c0.3,0,0.6,0,0.8-0.1l0.1,1c-0.3,0.1-0.7,0.2-1.2,0.2
			c-0.6,0-1.1-0.2-1.4-0.6c-0.4-0.4-0.5-1-0.5-1.9v-4h-1.1v-1h1.1v-1.7L32.1,190.8z"/>
		<path class="st4" d="M37,190.8c0,0.5-0.3,0.8-0.8,0.8c-0.5,0-0.8-0.4-0.8-0.8c0-0.5,0.3-0.8,0.8-0.8C36.6,190,37,190.4,37,190.8z
			 M35.5,200.1v-7.3h1.3v7.3H35.5z"/>
		<path class="st4" d="M39,189.5h1.3v10.6H39V189.5z"/>
		<path class="st4" d="M44,190.8c0,0.5-0.3,0.8-0.8,0.8c-0.5,0-0.8-0.4-0.8-0.8c0-0.5,0.3-0.8,0.8-0.8C43.7,190,44,190.4,44,190.8z
			 M42.5,200.1v-7.3h1.3v7.3H42.5z"/>
		<path class="st4" d="M45.2,199.4l3.3-4.3c0.3-0.4,0.6-0.7,0.9-1.1v0h-3.9v-1.1h5.5l0,0.8l-3.2,4.2c-0.3,0.4-0.6,0.8-0.9,1.1v0h4.2
			v1h-5.9V199.4z"/>
		<path class="st4" d="M56.5,200.1l-0.1-0.9h0c-0.4,0.6-1.2,1.1-2.2,1.1c-1.5,0-2.2-1-2.2-2.1c0-1.8,1.6-2.7,4.4-2.7v-0.2
			c0-0.6-0.2-1.7-1.6-1.7c-0.7,0-1.4,0.2-1.9,0.5l-0.3-0.9c0.6-0.4,1.5-0.6,2.4-0.6c2.2,0,2.8,1.5,2.8,3v2.7c0,0.6,0,1.2,0.1,1.7
			H56.5z M56.3,196.4c-1.4,0-3.1,0.2-3.1,1.6c0,0.9,0.6,1.3,1.2,1.3c0.9,0,1.5-0.6,1.8-1.2c0-0.1,0.1-0.3,0.1-0.4V196.4z"/>
		<path class="st4" d="M59.7,194.8c0-0.8,0-1.4-0.1-2h1.2l0.1,1.2h0c0.4-0.7,1.2-1.4,2.4-1.4c1,0,2.6,0.6,2.6,3.1v4.3h-1.3V196
			c0-1.2-0.4-2.1-1.7-2.1c-0.9,0-1.5,0.6-1.8,1.3c-0.1,0.2-0.1,0.4-0.1,0.6v4.4h-1.3V194.8z"/>
		<path class="st4" d="M74.3,189.5v8.8c0,0.6,0,1.4,0.1,1.9h-1.2l-0.1-1.3h0c-0.4,0.8-1.3,1.4-2.5,1.4c-1.8,0-3.1-1.5-3.1-3.7
			c0-2.4,1.5-3.9,3.3-3.9c1.1,0,1.9,0.5,2.2,1.1h0v-4.3H74.3z M73,195.8c0-0.2,0-0.4-0.1-0.6c-0.2-0.8-0.9-1.5-1.9-1.5
			c-1.4,0-2.2,1.2-2.2,2.8c0,1.5,0.7,2.7,2.1,2.7c0.9,0,1.7-0.6,1.9-1.6c0-0.2,0.1-0.4,0.1-0.6V195.8z"/>
		<path class="st4" d="M83.1,196.5c0,2.7-1.9,3.9-3.6,3.9c-2,0-3.5-1.4-3.5-3.7c0-2.4,1.6-3.9,3.6-3.9
			C81.6,192.7,83.1,194.2,83.1,196.5z M77.3,196.5c0,1.6,0.9,2.8,2.2,2.8c1.3,0,2.2-1.2,2.2-2.8c0-1.2-0.6-2.8-2.2-2.8
			C78,193.7,77.3,195.1,77.3,196.5z"/>
		<path class="st4" d="M87.9,195.3c0-0.9,0-1.7-0.1-2.4H89l0.1,1.2h0c0.5-0.9,1.4-1.4,2.6-1.4c1.8,0,3.1,1.5,3.1,3.7
			c0,2.6-1.6,3.9-3.3,3.9c-1,0-1.8-0.4-2.2-1.1h0v3.9h-1.3V195.3z M89.2,197.2c0,0.2,0,0.4,0.1,0.5c0.2,0.9,1,1.5,2,1.5
			c1.4,0,2.2-1.1,2.2-2.8c0-1.5-0.8-2.7-2.2-2.7c-0.9,0-1.7,0.6-2,1.6c0,0.2-0.1,0.4-0.1,0.5V197.2z"/>
		<path class="st4" d="M100.5,200.1l-0.1-0.9h0c-0.4,0.6-1.2,1.1-2.2,1.1c-1.5,0-2.2-1-2.2-2.1c0-1.8,1.6-2.7,4.4-2.7v-0.2
			c0-0.6-0.2-1.7-1.6-1.7c-0.7,0-1.4,0.2-1.9,0.5l-0.3-0.9c0.6-0.4,1.5-0.6,2.4-0.6c2.2,0,2.8,1.5,2.8,3v2.7c0,0.6,0,1.2,0.1,1.7
			H100.5z M100.3,196.4c-1.4,0-3.1,0.2-3.1,1.6c0,0.9,0.6,1.3,1.2,1.3c0.9,0,1.5-0.6,1.8-1.2c0-0.1,0.1-0.3,0.1-0.4V196.4z"/>
		<path class="st4" d="M103.7,195.1c0-0.9,0-1.6-0.1-2.3h1.2l0,1.4h0.1c0.3-1,1.1-1.6,2-1.6c0.2,0,0.3,0,0.4,0v1.2
			c-0.1,0-0.3,0-0.5,0c-0.9,0-1.6,0.7-1.8,1.7c0,0.2-0.1,0.4-0.1,0.6v3.9h-1.3V195.1z"/>
		<path class="st4" d="M112.5,200.1l-0.1-0.9h0c-0.4,0.6-1.2,1.1-2.2,1.1c-1.5,0-2.2-1-2.2-2.1c0-1.8,1.6-2.7,4.4-2.7v-0.2
			c0-0.6-0.2-1.7-1.6-1.7c-0.7,0-1.4,0.2-1.9,0.5l-0.3-0.9c0.6-0.4,1.5-0.6,2.4-0.6c2.2,0,2.8,1.5,2.8,3v2.7c0,0.6,0,1.2,0.1,1.7
			H112.5z M112.3,196.4c-1.4,0-3.1,0.2-3.1,1.6c0,0.9,0.6,1.3,1.2,1.3c0.9,0,1.5-0.6,1.8-1.2c0-0.1,0.1-0.3,0.1-0.4V196.4z"/>
		<path class="st4" d="M119.4,192.9l1.4,4.1c0.2,0.7,0.4,1.3,0.6,1.9h0c0.2-0.6,0.4-1.2,0.6-1.9l1.4-4.1h1.4l-2.8,7.3h-1.3l-2.8-7.3
			H119.4z"/>
		<path class="st4" d="M130.1,200.1l-0.1-0.9h0c-0.4,0.6-1.2,1.1-2.2,1.1c-1.5,0-2.2-1-2.2-2.1c0-1.8,1.6-2.7,4.4-2.7v-0.2
			c0-0.6-0.2-1.7-1.6-1.7c-0.7,0-1.4,0.2-1.9,0.5l-0.3-0.9c0.6-0.4,1.5-0.6,2.4-0.6c2.2,0,2.8,1.5,2.8,3v2.7c0,0.6,0,1.2,0.1,1.7
			H130.1z M129.9,196.4c-1.4,0-3.1,0.2-3.1,1.6c0,0.9,0.6,1.3,1.2,1.3c0.9,0,1.5-0.6,1.8-1.2c0-0.1,0.1-0.3,0.1-0.4V196.4z"/>
		<path class="st4" d="M133.3,195.1c0-0.9,0-1.6-0.1-2.3h1.2l0,1.4h0.1c0.3-1,1.1-1.6,2-1.6c0.2,0,0.3,0,0.4,0v1.2
			c-0.1,0-0.3,0-0.5,0c-0.9,0-1.6,0.7-1.8,1.7c0,0.2-0.1,0.4-0.1,0.6v3.9h-1.3V195.1z"/>
		<path class="st4" d="M139.7,190.8c0,0.5-0.3,0.8-0.8,0.8c-0.5,0-0.8-0.4-0.8-0.8c0-0.5,0.3-0.8,0.8-0.8
			C139.4,190,139.7,190.4,139.7,190.8z M138.3,200.1v-7.3h1.3v7.3H138.3z"/>
		<path class="st4" d="M145.8,200.1l-0.1-0.9h0c-0.4,0.6-1.2,1.1-2.2,1.1c-1.5,0-2.2-1-2.2-2.1c0-1.8,1.6-2.7,4.4-2.7v-0.2
			c0-0.6-0.2-1.7-1.6-1.7c-0.7,0-1.4,0.2-1.9,0.5l-0.3-0.9c0.6-0.4,1.5-0.6,2.4-0.6c2.2,0,2.8,1.5,2.8,3v2.7c0,0.6,0,1.2,0.1,1.7
			H145.8z M145.6,196.4c-1.4,0-3.1,0.2-3.1,1.6c0,0.9,0.6,1.3,1.2,1.3c0.9,0,1.5-0.6,1.8-1.2c0-0.1,0.1-0.3,0.1-0.4V196.4z"/>
		<path class="st4" d="M148.8,198.8c0.4,0.3,1.1,0.5,1.7,0.5c1,0,1.4-0.5,1.4-1.1c0-0.6-0.4-1-1.3-1.3c-1.3-0.5-1.9-1.2-1.9-2.1
			c0-1.2,0.9-2.1,2.5-2.1c0.7,0,1.4,0.2,1.8,0.5l-0.3,1c-0.3-0.2-0.8-0.4-1.5-0.4c-0.8,0-1.2,0.4-1.2,1c0,0.6,0.4,0.9,1.4,1.2
			c1.3,0.5,1.9,1.1,1.9,2.2c0,1.3-1,2.2-2.7,2.2c-0.8,0-1.5-0.2-2-0.5L148.8,198.8z"/>
		<path class="st4" d="M158.2,200.1v-6.3h-1v-1h1v-0.3c0-1,0.2-2,0.8-2.5c0.5-0.5,1.2-0.7,1.8-0.7c0.5,0,0.9,0.1,1.1,0.2l-0.2,1
			c-0.2-0.1-0.5-0.2-0.8-0.2c-1.1,0-1.4,1-1.4,2.1v0.4h1.8v1h-1.8v6.3H158.2z"/>
		<path class="st4" d="M168.6,198.2c0,0.8,0,1.4,0.1,2h-1.2l-0.1-1.2h0c-0.3,0.6-1.1,1.4-2.4,1.4c-1.1,0-2.5-0.6-2.5-3.2v-4.2h1.3v4
			c0,1.4,0.4,2.3,1.6,2.3c0.9,0,1.5-0.6,1.7-1.2c0.1-0.2,0.1-0.4,0.1-0.7v-4.5h1.3V198.2z"/>
		<path class="st4" d="M170.8,194.8c0-0.8,0-1.4-0.1-2h1.2l0.1,1.2h0c0.4-0.7,1.2-1.4,2.4-1.4c1,0,2.6,0.6,2.6,3.1v4.3h-1.3V196
			c0-1.2-0.4-2.1-1.7-2.1c-0.9,0-1.5,0.6-1.8,1.3c-0.1,0.2-0.1,0.4-0.1,0.6v4.4h-1.3V194.8z"/>
		<path class="st4" d="M184.3,199.9c-0.3,0.2-1.1,0.4-2.1,0.4c-2.2,0-3.6-1.5-3.6-3.7c0-2.2,1.5-3.9,3.9-3.9c0.8,0,1.5,0.2,1.8,0.4
			l-0.3,1c-0.3-0.2-0.8-0.3-1.5-0.3c-1.7,0-2.6,1.2-2.6,2.7c0,1.7,1.1,2.7,2.5,2.7c0.8,0,1.2-0.2,1.6-0.4L184.3,199.9z"/>
		<path class="st4" d="M187.3,190.8c0,0.5-0.3,0.8-0.8,0.8c-0.5,0-0.8-0.4-0.8-0.8c0-0.5,0.3-0.8,0.8-0.8
			C187,190,187.3,190.4,187.3,190.8z M185.8,200.1v-7.3h1.3v7.3H185.8z"/>
		<path class="st4" d="M195.9,196.5c0,2.7-1.9,3.9-3.6,3.9c-2,0-3.5-1.4-3.5-3.7c0-2.4,1.6-3.9,3.6-3.9
			C194.5,192.7,195.9,194.2,195.9,196.5z M190.1,196.5c0,1.6,0.9,2.8,2.2,2.8c1.3,0,2.2-1.2,2.2-2.8c0-1.2-0.6-2.8-2.2-2.8
			C190.8,193.7,190.1,195.1,190.1,196.5z"/>
		<path class="st4" d="M197.5,194.8c0-0.8,0-1.4-0.1-2h1.2l0.1,1.2h0c0.4-0.7,1.2-1.4,2.4-1.4c1,0,2.6,0.6,2.6,3.1v4.3h-1.3V196
			c0-1.2-0.4-2.1-1.7-2.1c-0.9,0-1.5,0.6-1.8,1.3c-0.1,0.2-0.1,0.4-0.1,0.6v4.4h-1.3V194.8z"/>
		<path class="st4" d="M206.6,196.8c0,1.8,1.2,2.5,2.5,2.5c0.9,0,1.5-0.2,2-0.4l0.2,0.9c-0.5,0.2-1.3,0.4-2.4,0.4
			c-2.2,0-3.6-1.5-3.6-3.7s1.3-3.9,3.4-3.9c2.4,0,3,2.1,3,3.4c0,0.3,0,0.5,0,0.6H206.6z M210.5,195.8c0-0.8-0.3-2.1-1.8-2.1
			c-1.3,0-1.9,1.2-2,2.1H210.5z"/>
		<path class="st4" d="M213.2,198.8c0.4,0.3,1.1,0.5,1.7,0.5c1,0,1.4-0.5,1.4-1.1c0-0.6-0.4-1-1.3-1.3c-1.3-0.5-1.9-1.2-1.9-2.1
			c0-1.2,0.9-2.1,2.5-2.1c0.7,0,1.4,0.2,1.8,0.5l-0.3,1c-0.3-0.2-0.8-0.4-1.5-0.4c-0.8,0-1.2,0.4-1.2,1c0,0.6,0.4,0.9,1.4,1.2
			c1.3,0.5,1.9,1.1,1.9,2.2c0,1.3-1,2.2-2.7,2.2c-0.8,0-1.5-0.2-2-0.5L213.2,198.8z"/>
		<path class="st4" d="M229.1,196.5c0,2.7-1.9,3.9-3.6,3.9c-2,0-3.5-1.4-3.5-3.7c0-2.4,1.6-3.9,3.6-3.9
			C227.7,192.7,229.1,194.2,229.1,196.5z M223.3,196.5c0,1.6,0.9,2.8,2.2,2.8c1.3,0,2.2-1.2,2.2-2.8c0-1.2-0.6-2.8-2.2-2.8
			C224,193.7,223.3,195.1,223.3,196.5z"/>
		<path class="st4" d="M230.7,195.1c0-0.9,0-1.6-0.1-2.3h1.2l0,1.4h0.1c0.3-1,1.1-1.6,2-1.6c0.2,0,0.3,0,0.4,0v1.2
			c-0.1,0-0.3,0-0.5,0c-0.9,0-1.6,0.7-1.8,1.7c0,0.2-0.1,0.4-0.1,0.6v3.9h-1.3V195.1z"/>
		<path class="st4" d="M237.2,190.8c0,0.5-0.3,0.8-0.8,0.8c-0.5,0-0.8-0.4-0.8-0.8c0-0.5,0.3-0.8,0.8-0.8
			C236.9,190,237.2,190.4,237.2,190.8z M235.7,200.1v-7.3h1.3v7.3H235.7z"/>
		<path class="st4" d="M240,196.8c0,1.8,1.2,2.5,2.5,2.5c0.9,0,1.5-0.2,2-0.4l0.2,0.9c-0.5,0.2-1.3,0.4-2.4,0.4
			c-2.2,0-3.6-1.5-3.6-3.7s1.3-3.9,3.4-3.9c2.4,0,3,2.1,3,3.4c0,0.3,0,0.5,0,0.6H240z M243.8,195.8c0-0.8-0.3-2.1-1.8-2.1
			c-1.3,0-1.9,1.2-2,2.1H243.8z"/>
		<path class="st4" d="M246.7,194.8c0-0.8,0-1.4-0.1-2h1.2l0.1,1.2h0c0.4-0.7,1.2-1.4,2.4-1.4c1,0,2.6,0.6,2.6,3.1v4.3h-1.3V196
			c0-1.2-0.4-2.1-1.7-2.1c-0.9,0-1.5,0.6-1.8,1.3c-0.1,0.2-0.1,0.4-0.1,0.6v4.4h-1.3V194.8z"/>
		<path class="st4" d="M256.6,190.8v2.1h1.9v1h-1.9v3.9c0,0.9,0.3,1.4,1,1.4c0.3,0,0.6,0,0.8-0.1l0.1,1c-0.3,0.1-0.7,0.2-1.2,0.2
			c-0.6,0-1.1-0.2-1.4-0.6c-0.4-0.4-0.5-1-0.5-1.9v-4h-1.1v-1h1.1v-1.7L256.6,190.8z"/>
		<path class="st4" d="M264,200.1l-0.1-0.9h0c-0.4,0.6-1.2,1.1-2.2,1.1c-1.5,0-2.2-1-2.2-2.1c0-1.8,1.6-2.7,4.4-2.7v-0.2
			c0-0.6-0.2-1.7-1.6-1.7c-0.7,0-1.4,0.2-1.9,0.5l-0.3-0.9c0.6-0.4,1.5-0.6,2.4-0.6c2.2,0,2.8,1.5,2.8,3v2.7c0,0.6,0,1.2,0.1,1.7
			H264z M263.8,196.4c-1.4,0-3.1,0.2-3.1,1.6c0,0.9,0.6,1.3,1.2,1.3c0.9,0,1.5-0.6,1.8-1.2c0-0.1,0.1-0.3,0.1-0.4V196.4z"/>
		<path class="st4" d="M273.5,189.5v8.8c0,0.6,0,1.4,0.1,1.9h-1.2l-0.1-1.3h0c-0.4,0.8-1.3,1.4-2.5,1.4c-1.8,0-3.1-1.5-3.1-3.7
			c0-2.4,1.5-3.9,3.3-3.9c1.1,0,1.9,0.5,2.2,1.1h0v-4.3H273.5z M272.1,195.8c0-0.2,0-0.4-0.1-0.6c-0.2-0.8-0.9-1.5-1.9-1.5
			c-1.4,0-2.2,1.2-2.2,2.8c0,1.5,0.7,2.7,2.1,2.7c0.9,0,1.7-0.6,1.9-1.6c0-0.2,0.1-0.4,0.1-0.6V195.8z"/>
		<path class="st4" d="M279.7,200.1l-0.1-0.9h0c-0.4,0.6-1.2,1.1-2.2,1.1c-1.5,0-2.2-1-2.2-2.1c0-1.8,1.6-2.7,4.4-2.7v-0.2
			c0-0.6-0.2-1.7-1.6-1.7c-0.7,0-1.4,0.2-1.9,0.5l-0.3-0.9c0.6-0.4,1.5-0.6,2.4-0.6c2.2,0,2.8,1.5,2.8,3v2.7c0,0.6,0,1.2,0.1,1.7
			H279.7z M279.5,196.4c-1.4,0-3.1,0.2-3.1,1.6c0,0.9,0.6,1.3,1.2,1.3c0.9,0,1.5-0.6,1.8-1.2c0-0.1,0.1-0.3,0.1-0.4V196.4z"/>
		<path class="st4" d="M282.7,198.8c0.4,0.3,1.1,0.5,1.7,0.5c1,0,1.4-0.5,1.4-1.1c0-0.6-0.4-1-1.3-1.3c-1.3-0.5-1.9-1.2-1.9-2.1
			c0-1.2,0.9-2.1,2.5-2.1c0.7,0,1.4,0.2,1.8,0.5l-0.3,1c-0.3-0.2-0.8-0.4-1.5-0.4c-0.8,0-1.2,0.4-1.2,1c0,0.6,0.4,0.9,1.4,1.2
			c1.3,0.5,1.9,1.1,1.9,2.2c0,1.3-1,2.2-2.7,2.2c-0.8,0-1.5-0.2-2-0.5L282.7,198.8z"/>
		<path class="st4" d="M296,200.1l-0.1-0.9h0c-0.4,0.6-1.2,1.1-2.2,1.1c-1.5,0-2.2-1-2.2-2.1c0-1.8,1.6-2.7,4.4-2.7v-0.2
			c0-0.6-0.2-1.7-1.6-1.7c-0.7,0-1.4,0.2-1.9,0.5l-0.3-0.9c0.6-0.4,1.5-0.6,2.4-0.6c2.2,0,2.8,1.5,2.8,3v2.7c0,0.6,0,1.2,0.1,1.7
			H296z M295.8,196.4c-1.4,0-3.1,0.2-3.1,1.6c0,0.9,0.6,1.3,1.2,1.3c0.9,0,1.5-0.6,1.8-1.2c0-0.1,0.1-0.3,0.1-0.4V196.4z"/>
		<path class="st4" d="M299.2,189.5h1.3v10.6h-1.3V189.5z"/>
		<path class="st4" d="M311.1,199.9c-0.3,0.2-1.1,0.4-2.1,0.4c-2.2,0-3.6-1.5-3.6-3.7c0-2.2,1.5-3.9,3.9-3.9c0.8,0,1.5,0.2,1.8,0.4
			l-0.3,1c-0.3-0.2-0.8-0.3-1.5-0.3c-1.7,0-2.6,1.2-2.6,2.7c0,1.7,1.1,2.7,2.5,2.7c0.8,0,1.2-0.2,1.6-0.4L311.1,199.9z"/>
		<path class="st4" d="M312.7,189.5h1.3v10.6h-1.3V189.5z"/>
		<path class="st4" d="M317.7,190.8c0,0.5-0.3,0.8-0.8,0.8c-0.5,0-0.8-0.4-0.8-0.8c0-0.5,0.3-0.8,0.8-0.8
			C317.4,190,317.7,190.4,317.7,190.8z M316.2,200.1v-7.3h1.3v7.3H316.2z"/>
		<path class="st4" d="M320.5,196.8c0,1.8,1.2,2.5,2.5,2.5c0.9,0,1.5-0.2,2-0.4l0.2,0.9c-0.5,0.2-1.3,0.4-2.4,0.4
			c-2.2,0-3.6-1.5-3.6-3.7s1.3-3.9,3.4-3.9c2.4,0,3,2.1,3,3.4c0,0.3,0,0.5,0,0.6H320.5z M324.3,195.8c0-0.8-0.3-2.1-1.8-2.1
			c-1.3,0-1.9,1.2-2,2.1H324.3z"/>
		<path class="st4" d="M327.2,194.8c0-0.8,0-1.4-0.1-2h1.2l0.1,1.2h0c0.4-0.7,1.2-1.4,2.4-1.4c1,0,2.6,0.6,2.6,3.1v4.3h-1.3V196
			c0-1.2-0.4-2.1-1.7-2.1c-0.9,0-1.5,0.6-1.8,1.3c-0.1,0.2-0.1,0.4-0.1,0.6v4.4h-1.3V194.8z"/>
		<path class="st4" d="M337.1,190.8v2.1h1.9v1h-1.9v3.9c0,0.9,0.3,1.4,1,1.4c0.3,0,0.6,0,0.8-0.1l0.1,1c-0.3,0.1-0.7,0.2-1.2,0.2
			c-0.6,0-1.1-0.2-1.4-0.6c-0.4-0.4-0.5-1-0.5-1.9v-4h-1.1v-1h1.1v-1.7L337.1,190.8z"/>
		<path class="st4" d="M341.1,196.8c0,1.8,1.2,2.5,2.5,2.5c0.9,0,1.5-0.2,2-0.4l0.2,0.9c-0.5,0.2-1.3,0.4-2.4,0.4
			c-2.2,0-3.6-1.5-3.6-3.7s1.3-3.9,3.4-3.9c2.4,0,3,2.1,3,3.4c0,0.3,0,0.5,0,0.6H341.1z M345,195.8c0-0.8-0.3-2.1-1.8-2.1
			c-1.3,0-1.9,1.2-2,2.1H345z"/>
		<path class="st4" d="M131.3,210.9l1.6,4.3c0.2,0.5,0.3,1,0.5,1.5h0c0.1-0.4,0.3-1,0.5-1.5l1.4-4.3h1.4l-2,5.2
			c-0.9,2.5-1.6,3.8-2.5,4.5c-0.6,0.6-1.3,0.8-1.6,0.9l-0.3-1.1c0.3-0.1,0.8-0.3,1.2-0.6c0.4-0.3,0.8-0.8,1.1-1.5
			c0.1-0.1,0.1-0.2,0.1-0.3c0-0.1,0-0.2-0.1-0.3l-2.7-6.7H131.3z"/>
		<path class="st4" d="M145.1,218.1l-0.1-0.9h0c-0.4,0.6-1.2,1.1-2.2,1.1c-1.5,0-2.2-1-2.2-2.1c0-1.8,1.6-2.7,4.4-2.7v-0.2
			c0-0.6-0.2-1.7-1.6-1.7c-0.7,0-1.4,0.2-1.9,0.5l-0.3-0.9c0.6-0.4,1.5-0.6,2.4-0.6c2.2,0,2.8,1.5,2.8,3v2.7c0,0.6,0,1.2,0.1,1.7
			H145.1z M144.9,214.4c-1.4,0-3.1,0.2-3.1,1.6c0,0.9,0.6,1.3,1.2,1.3c0.9,0,1.5-0.6,1.8-1.2c0-0.1,0.1-0.3,0.1-0.4V214.4z"/>
		<path class="st4" d="M154.6,207.5v8.8c0,0.6,0,1.4,0.1,1.9h-1.2l-0.1-1.3h0c-0.4,0.8-1.3,1.4-2.5,1.4c-1.8,0-3.1-1.5-3.1-3.7
			c0-2.4,1.5-3.9,3.3-3.9c1.1,0,1.9,0.5,2.2,1.1h0v-4.3H154.6z M153.3,213.8c0-0.2,0-0.4-0.1-0.6c-0.2-0.8-0.9-1.5-1.9-1.5
			c-1.4,0-2.2,1.2-2.2,2.8c0,1.5,0.7,2.7,2.1,2.7c0.9,0,1.7-0.6,1.9-1.6c0-0.2,0.1-0.4,0.1-0.6V213.8z"/>
		<path class="st4" d="M156.8,212.8c0-0.8,0-1.4-0.1-2h1.2l0.1,1.2h0c0.4-0.7,1.1-1.3,2.3-1.3c1,0,1.7,0.6,2.1,1.5h0
			c0.2-0.4,0.5-0.7,0.8-0.9c0.4-0.3,0.9-0.5,1.6-0.5c1,0,2.4,0.6,2.4,3.1v4.3h-1.3V214c0-1.4-0.5-2.2-1.6-2.2
			c-0.8,0-1.3,0.6-1.6,1.2c-0.1,0.2-0.1,0.4-0.1,0.7v4.5h-1.3v-4.3c0-1.2-0.5-2-1.5-2c-0.8,0-1.4,0.7-1.6,1.3
			c-0.1,0.2-0.1,0.4-0.1,0.6v4.4h-1.3V212.8z"/>
		<path class="st4" d="M170.8,208.8c0,0.5-0.3,0.8-0.8,0.8c-0.5,0-0.8-0.4-0.8-0.8c0-0.5,0.3-0.8,0.8-0.8
			C170.5,208,170.8,208.4,170.8,208.8z M169.3,218.1v-7.3h1.3v7.3H169.3z"/>
		<path class="st4" d="M172.8,212.8c0-0.8,0-1.4-0.1-2h1.2l0.1,1.2h0c0.4-0.7,1.2-1.4,2.4-1.4c1,0,2.6,0.6,2.6,3.1v4.3h-1.3V214
			c0-1.2-0.4-2.1-1.7-2.1c-0.9,0-1.5,0.6-1.8,1.3c-0.1,0.2-0.1,0.4-0.1,0.6v4.4h-1.3V212.8z"/>
		<path class="st4" d="M182.6,208.8c0,0.5-0.3,0.8-0.8,0.8c-0.5,0-0.8-0.4-0.8-0.8c0-0.5,0.3-0.8,0.8-0.8
			C182.3,208,182.6,208.4,182.6,208.8z M181.1,218.1v-7.3h1.3v7.3H181.1z"/>
		<path class="st4" d="M184.5,216.8c0.4,0.3,1.1,0.5,1.7,0.5c1,0,1.4-0.5,1.4-1.1c0-0.6-0.4-1-1.3-1.3c-1.3-0.5-1.9-1.2-1.9-2.1
			c0-1.2,0.9-2.1,2.5-2.1c0.7,0,1.4,0.2,1.8,0.5l-0.3,1c-0.3-0.2-0.8-0.4-1.5-0.4c-0.8,0-1.2,0.4-1.2,1c0,0.6,0.4,0.9,1.4,1.2
			c1.3,0.5,1.9,1.1,1.9,2.2c0,1.3-1,2.2-2.7,2.2c-0.8,0-1.5-0.2-2-0.5L184.5,216.8z"/>
		<path class="st4" d="M192.2,208.8v2.1h1.9v1h-1.9v3.9c0,0.9,0.3,1.4,1,1.4c0.3,0,0.6,0,0.8-0.1l0.1,1c-0.3,0.1-0.7,0.2-1.2,0.2
			c-0.6,0-1.1-0.2-1.4-0.6c-0.4-0.4-0.5-1-0.5-1.9v-4h-1.1v-1h1.1v-1.7L192.2,208.8z"/>
		<path class="st4" d="M195.6,213.1c0-0.9,0-1.6-0.1-2.3h1.2l0,1.4h0.1c0.3-1,1.1-1.6,2-1.6c0.2,0,0.3,0,0.4,0v1.2
			c-0.1,0-0.3,0-0.5,0c-0.9,0-1.6,0.7-1.8,1.7c0,0.2-0.1,0.4-0.1,0.6v3.9h-1.3V213.1z"/>
		<path class="st4" d="M204.4,218.1l-0.1-0.9h0c-0.4,0.6-1.2,1.1-2.2,1.1c-1.5,0-2.2-1-2.2-2.1c0-1.8,1.6-2.7,4.4-2.7v-0.2
			c0-0.6-0.2-1.7-1.6-1.7c-0.7,0-1.4,0.2-1.9,0.5l-0.3-0.9c0.6-0.4,1.5-0.6,2.4-0.6c2.2,0,2.8,1.5,2.8,3v2.7c0,0.6,0,1.2,0.1,1.7
			H204.4z M204.2,214.4c-1.4,0-3.1,0.2-3.1,1.6c0,0.9,0.6,1.3,1.2,1.3c0.9,0,1.5-0.6,1.8-1.2c0-0.1,0.1-0.3,0.1-0.4V214.4z"/>
		<path class="st4" d="M209.1,208.8v2.1h1.9v1h-1.9v3.9c0,0.9,0.3,1.4,1,1.4c0.3,0,0.6,0,0.8-0.1l0.1,1c-0.3,0.1-0.7,0.2-1.2,0.2
			c-0.6,0-1.1-0.2-1.4-0.6c-0.4-0.4-0.5-1-0.5-1.9v-4h-1.1v-1h1.1v-1.7L209.1,208.8z"/>
		<path class="st4" d="M214,208.8c0,0.5-0.3,0.8-0.8,0.8c-0.5,0-0.8-0.4-0.8-0.8c0-0.5,0.3-0.8,0.8-0.8
			C213.7,208,214,208.4,214,208.8z M212.5,218.1v-7.3h1.3v7.3H212.5z"/>
		<path class="st4" d="M216.5,210.9l1.4,4.1c0.2,0.7,0.4,1.3,0.6,1.9h0c0.2-0.6,0.4-1.2,0.6-1.9l1.4-4.1h1.4l-2.8,7.3h-1.3l-2.8-7.3
			H216.5z"/>
		<path class="st4" d="M227.2,218.1l-0.1-0.9h0c-0.4,0.6-1.2,1.1-2.2,1.1c-1.5,0-2.2-1-2.2-2.1c0-1.8,1.6-2.7,4.4-2.7v-0.2
			c0-0.6-0.2-1.7-1.6-1.7c-0.7,0-1.4,0.2-1.9,0.5l-0.3-0.9c0.6-0.4,1.5-0.6,2.4-0.6c2.2,0,2.8,1.5,2.8,3v2.7c0,0.6,0,1.2,0.1,1.7
			H227.2z M227,214.4c-1.4,0-3.1,0.2-3.1,1.6c0,0.9,0.6,1.3,1.2,1.3c0.9,0,1.5-0.6,1.8-1.2c0-0.1,0.1-0.3,0.1-0.4V214.4z"/>
		<path class="st4" d="M230.2,216.8c0.4,0.3,1.1,0.5,1.7,0.5c1,0,1.4-0.5,1.4-1.1c0-0.6-0.4-1-1.3-1.3c-1.3-0.5-1.9-1.2-1.9-2.1
			c0-1.2,0.9-2.1,2.5-2.1c0.7,0,1.4,0.2,1.8,0.5l-0.3,1c-0.3-0.2-0.8-0.4-1.5-0.4c-0.8,0-1.2,0.4-1.2,1c0,0.6,0.4,0.9,1.4,1.2
			c1.3,0.5,1.9,1.1,1.9,2.2c0,1.3-1,2.2-2.7,2.2c-0.8,0-1.5-0.2-2-0.5L230.2,216.8z"/>
		<path class="st4" d="M235.9,217.4c0-0.6,0.4-0.9,0.9-0.9c0.5,0,0.9,0.4,0.9,0.9c0,0.5-0.3,0.9-0.9,0.9
			C236.2,218.3,235.9,217.9,235.9,217.4z"/>
	</g>
	<path class="st3" d="M184,22.3V95c34-19,31.3-25.1,31.3-60.6C212,30.6,203,23.1,184,22.3z"/>
	<path class="st1" d="M184,28.2v60.9c28.5-15.9,26.2-21,26.2-50.7C207.5,35.2,199.9,28.9,184,28.2z"/>
</g>
</svg>
