<?xml version="1.0" encoding="utf-8"?>
<!-- Generator: Adobe Illustrator 17.0.0, SVG Export Plug-In . SVG Version: 6.00 Build 0)  -->
<!DOCTYPE svg PUBLIC "-//W3C//DTD SVG 1.1//EN" "http://www.w3.org/Graphics/SVG/1.1/DTD/svg11.dtd">
<svg version="1.1" xmlns="http://www.w3.org/2000/svg" xmlns:xlink="http://www.w3.org/1999/xlink" x="0px" y="0px" width="368px"
	 height="246.2px" viewBox="0 0 368 246.2" style="enable-background:new 0 0 368 246.2;" xml:space="preserve">
<style type="text/css">
	.st0{display:none;}
	.st1{fill:#EDEDED;}
	.st2{fill:#F3D884;}
	.st3{fill:#D68430;}
	.st4{fill:#575756;}
</style>
<g id="Capa_2" class="st0">
</g>
<g id="Capa_1">
	<path class="st1" d="M202.3,8.2C198.4,3.2,191.7,0,184,0s-14.5,3.2-18.3,8.2H0v238h368V8.2H202.3z"/>
	<g>
		<path class="st2" d="M184,22.3V95c-34-19-31.3-25.1-31.3-60.6C155.9,30.6,165,23.1,184,22.3z"/>
		<path class="st3" d="M184,22.3V95c34-19,31.3-25.1,31.3-60.6C212,30.6,203,23.1,184,22.3z"/>
		<path class="st1" d="M184,28.2v60.9c-28.5-15.9-26.2-21-26.2-50.7C160.5,35.2,168,28.9,184,28.2z"/>
	</g>
	<g>
		<path class="st4" d="M30.9,136.2c0.8-0.1,1.7-0.2,2.8-0.2c1.9,0,3.2,0.4,4.1,1.3c0.9,0.8,1.4,2,1.4,3.6c0,1.6-0.5,3-1.5,3.9
			c-0.9,0.9-2.5,1.5-4.5,1.5c-0.9,0-1.7,0-2.4-0.1V136.2z M32.2,145.1c0.3,0.1,0.8,0.1,1.3,0.1c2.8,0,4.3-1.6,4.3-4.3
			c0-2.4-1.3-3.9-4.1-3.9c-0.7,0-1.2,0.1-1.5,0.1V145.1z"/>
		<path class="st4" d="M44.8,146.1l-0.1-0.9h0c-0.4,0.6-1.2,1.1-2.2,1.1c-1.5,0-2.2-1-2.2-2.1c0-1.8,1.6-2.7,4.4-2.7v-0.2
			c0-0.6-0.2-1.7-1.6-1.7c-0.7,0-1.4,0.2-1.9,0.5l-0.3-0.9c0.6-0.4,1.5-0.6,2.4-0.6c2.2,0,2.8,1.5,2.8,3v2.7c0,0.6,0,1.2,0.1,1.7
			H44.8z M44.6,142.4c-1.4,0-3.1,0.2-3.1,1.6c0,0.9,0.6,1.3,1.2,1.3c0.9,0,1.5-0.6,1.8-1.2c0-0.1,0.1-0.3,0.1-0.4V142.4z"/>
		<path class="st4" d="M54.3,135.5v8.8c0,0.6,0,1.4,0.1,1.9h-1.2l-0.1-1.3h0c-0.4,0.8-1.3,1.4-2.5,1.4c-1.8,0-3.1-1.5-3.1-3.7
			c0-2.4,1.5-3.9,3.3-3.9c1.1,0,1.9,0.5,2.2,1.1h0v-4.3H54.3z M53,141.8c0-0.2,0-0.4-0.1-0.6c-0.2-0.8-0.9-1.5-1.9-1.5
			c-1.4,0-2.2,1.2-2.2,2.8c0,1.5,0.7,2.7,2.1,2.7c0.9,0,1.7-0.6,1.9-1.6c0-0.2,0.1-0.4,0.1-0.6V141.8z"/>
		<path class="st4" d="M63.1,142.5c0,2.7-1.9,3.9-3.6,3.9c-2,0-3.5-1.4-3.5-3.7c0-2.4,1.6-3.9,3.6-3.9
			C61.6,138.7,63.1,140.2,63.1,142.5z M57.3,142.5c0,1.6,0.9,2.8,2.2,2.8c1.3,0,2.2-1.2,2.2-2.8c0-1.2-0.6-2.8-2.2-2.8
			C58,139.7,57.3,141.1,57.3,142.5z"/>
		<path class="st4" d="M72.9,145L72.9,145c-0.4,0.7-1.2,1.3-2.4,1.3c-1.7,0-3.1-1.5-3.1-3.7c0-2.7,1.8-3.9,3.3-3.9
			c1.1,0,1.9,0.6,2.2,1.3h0l0-1.1h1.2c0,0.6,0,1.2,0,2v8.2h-1.3V145z M72.9,141.8c0-0.2,0-0.4-0.1-0.6c-0.2-0.8-0.9-1.5-1.9-1.5
			c-1.4,0-2.2,1.2-2.2,2.8c0,1.4,0.7,2.7,2.1,2.7c0.9,0,1.6-0.5,1.9-1.4c0.1-0.2,0.1-0.4,0.1-0.6V141.8z"/>
		<path class="st4" d="M82.4,144.2c0,0.8,0,1.4,0.1,2h-1.2l-0.1-1.2h0c-0.3,0.6-1.1,1.4-2.4,1.4c-1.1,0-2.5-0.6-2.5-3.2v-4.2h1.3v4
			c0,1.4,0.4,2.3,1.6,2.3c0.9,0,1.5-0.6,1.7-1.2c0.1-0.2,0.1-0.4,0.1-0.7v-4.5h1.3V144.2z"/>
		<path class="st4" d="M85.3,142.8c0,1.8,1.2,2.5,2.5,2.5c0.9,0,1.5-0.2,2-0.4l0.2,0.9c-0.5,0.2-1.3,0.4-2.4,0.4
			c-2.2,0-3.6-1.5-3.6-3.7s1.3-3.9,3.4-3.9c2.4,0,3,2.1,3,3.4c0,0.3,0,0.5,0,0.6H85.3z M89.2,141.8c0-0.8-0.3-2.1-1.8-2.1
			c-1.3,0-1.9,1.2-2,2.1H89.2z"/>
		<path class="st4" d="M95.1,144.8c0.4,0.3,1.1,0.5,1.7,0.5c1,0,1.4-0.5,1.4-1.1c0-0.6-0.4-1-1.3-1.3c-1.3-0.5-1.9-1.2-1.9-2.1
			c0-1.2,0.9-2.1,2.5-2.1c0.7,0,1.4,0.2,1.8,0.5l-0.3,1c-0.3-0.2-0.8-0.4-1.5-0.4c-0.8,0-1.2,0.4-1.2,1c0,0.6,0.4,0.9,1.4,1.2
			c1.3,0.5,1.9,1.1,1.9,2.2c0,1.3-1,2.2-2.7,2.2c-0.8,0-1.5-0.2-2-0.5L95.1,144.8z"/>
		<path class="st4" d="M102,142.8c0,1.8,1.2,2.5,2.5,2.5c0.9,0,1.5-0.2,2-0.4l0.2,0.9c-0.5,0.2-1.3,0.4-2.4,0.4
			c-2.2,0-3.6-1.5-3.6-3.7s1.3-3.9,3.4-3.9c2.4,0,3,2.1,3,3.4c0,0.3,0,0.5,0,0.6H102z M105.9,141.8c0-0.8-0.3-2.1-1.8-2.1
			c-1.3,0-1.9,1.2-2,2.1H105.9z"/>
		<path class="st4" d="M111.9,141.1c0-0.9,0-1.6-0.1-2.3h1.2l0,1.4h0.1c0.3-1,1.1-1.6,2-1.6c0.2,0,0.3,0,0.4,0v1.2
			c-0.1,0-0.3,0-0.5,0c-0.9,0-1.6,0.7-1.8,1.7c0,0.2-0.1,0.4-0.1,0.6v3.9h-1.3V141.1z"/>
		<path class="st4" d="M117.4,142.8c0,1.8,1.2,2.5,2.5,2.5c0.9,0,1.5-0.2,2-0.4l0.2,0.9c-0.5,0.2-1.3,0.4-2.4,0.4
			c-2.2,0-3.6-1.5-3.6-3.7s1.3-3.9,3.4-3.9c2.4,0,3,2.1,3,3.4c0,0.3,0,0.5,0,0.6H117.4z M121.3,141.8c0-0.8-0.3-2.1-1.8-2.1
			c-1.3,0-1.9,1.2-2,2.1H121.3z"/>
		<path class="st4" d="M129.2,145L129.2,145c-0.4,0.7-1.2,1.3-2.4,1.3c-1.7,0-3.1-1.5-3.1-3.7c0-2.7,1.8-3.9,3.3-3.9
			c1.1,0,1.9,0.6,2.2,1.3h0l0-1.1h1.2c0,0.6,0,1.2,0,2v8.2h-1.3V145z M129.2,141.8c0-0.2,0-0.4-0.1-0.6c-0.2-0.8-0.9-1.5-1.9-1.5
			c-1.4,0-2.2,1.2-2.2,2.8c0,1.4,0.7,2.7,2.1,2.7c0.9,0,1.6-0.5,1.9-1.4c0.1-0.2,0.1-0.4,0.1-0.6V141.8z"/>
		<path class="st4" d="M138.7,144.2c0,0.8,0,1.4,0.1,2h-1.2l-0.1-1.2h0c-0.3,0.6-1.1,1.4-2.4,1.4c-1.1,0-2.5-0.6-2.5-3.2v-4.2h1.3v4
			c0,1.4,0.4,2.3,1.6,2.3c0.9,0,1.5-0.6,1.7-1.2c0.1-0.2,0.1-0.4,0.1-0.7v-4.5h1.3V144.2z"/>
		<path class="st4" d="M142.4,136.8c0,0.5-0.3,0.8-0.8,0.8c-0.5,0-0.8-0.4-0.8-0.8c0-0.5,0.3-0.8,0.8-0.8
			C142.1,136,142.4,136.4,142.4,136.8z M140.9,146.1v-7.3h1.3v7.3H140.9z"/>
		<path class="st4" d="M145.2,142.8c0,1.8,1.2,2.5,2.5,2.5c0.9,0,1.5-0.2,2-0.4l0.2,0.9c-0.5,0.2-1.3,0.4-2.4,0.4
			c-2.2,0-3.6-1.5-3.6-3.7s1.3-3.9,3.4-3.9c2.4,0,3,2.1,3,3.4c0,0.3,0,0.5,0,0.6H145.2z M149,141.8c0-0.8-0.3-2.1-1.8-2.1
			c-1.3,0-1.9,1.2-2,2.1H149z"/>
		<path class="st4" d="M151.9,141.1c0-0.9,0-1.6-0.1-2.3h1.2l0,1.4h0.1c0.3-1,1.1-1.6,2-1.6c0.2,0,0.3,0,0.4,0v1.2
			c-0.1,0-0.3,0-0.5,0c-0.9,0-1.6,0.7-1.8,1.7c0,0.2-0.1,0.4-0.1,0.6v3.9h-1.3V141.1z"/>
		<path class="st4" d="M157.4,142.8c0,1.8,1.2,2.5,2.5,2.5c0.9,0,1.5-0.2,2-0.4l0.2,0.9c-0.5,0.2-1.3,0.4-2.4,0.4
			c-2.2,0-3.6-1.5-3.6-3.7s1.3-3.9,3.4-3.9c2.4,0,3,2.1,3,3.4c0,0.3,0,0.5,0,0.6H157.4z M161.3,141.8c0-0.8-0.3-2.1-1.8-2.1
			c-1.3,0-1.9,1.2-2,2.1H161.3z"/>
		<path class="st4" d="M164.2,140.8c0-0.8,0-1.4-0.1-2h1.2l0.1,1.2h0c0.4-0.7,1.2-1.4,2.4-1.4c1,0,2.6,0.6,2.6,3.1v4.3h-1.3V142
			c0-1.2-0.4-2.1-1.7-2.1c-0.9,0-1.5,0.6-1.8,1.3c-0.1,0.2-0.1,0.4-0.1,0.6v4.4h-1.3V140.8z"/>
		<path class="st4" d="M182,135.5v8.8c0,0.6,0,1.4,0.1,1.9h-1.2l-0.1-1.3h0c-0.4,0.8-1.3,1.4-2.5,1.4c-1.8,0-3.1-1.5-3.1-3.7
			c0-2.4,1.5-3.9,3.3-3.9c1.1,0,1.9,0.5,2.2,1.1h0v-4.3H182z M180.7,141.8c0-0.2,0-0.4-0.1-0.6c-0.2-0.8-0.9-1.5-1.9-1.5
			c-1.4,0-2.2,1.2-2.2,2.8c0,1.5,0.7,2.7,2.1,2.7c0.9,0,1.7-0.6,1.9-1.6c0-0.2,0.1-0.4,0.1-0.6V141.8z"/>
		<path class="st4" d="M190.8,142.5c0,2.7-1.9,3.9-3.6,3.9c-2,0-3.5-1.4-3.5-3.7c0-2.4,1.6-3.9,3.6-3.9
			C189.3,138.7,190.8,140.2,190.8,142.5z M185,142.5c0,1.6,0.9,2.8,2.2,2.8c1.3,0,2.2-1.2,2.2-2.8c0-1.2-0.6-2.8-2.2-2.8
			C185.7,139.7,185,141.1,185,142.5z"/>
		<path class="st4" d="M192.2,144.8c0.4,0.3,1.1,0.5,1.7,0.5c1,0,1.4-0.5,1.4-1.1c0-0.6-0.4-1-1.3-1.3c-1.3-0.5-1.9-1.2-1.9-2.1
			c0-1.2,0.9-2.1,2.5-2.1c0.7,0,1.4,0.2,1.8,0.5l-0.3,1c-0.3-0.2-0.8-0.4-1.5-0.4c-0.8,0-1.2,0.4-1.2,1c0,0.6,0.4,0.9,1.4,1.2
			c1.3,0.5,1.9,1.1,1.9,2.2c0,1.3-1,2.2-2.7,2.2c-0.8,0-1.5-0.2-2-0.5L192.2,144.8z"/>
		<path class="st4" d="M202.3,142.8c0,1.8,1.2,2.5,2.5,2.5c0.9,0,1.5-0.2,2-0.4l0.2,0.9c-0.5,0.2-1.3,0.4-2.4,0.4
			c-2.2,0-3.6-1.5-3.6-3.7s1.3-3.9,3.4-3.9c2.4,0,3,2.1,3,3.4c0,0.3,0,0.5,0,0.6H202.3z M206.1,141.8c0-0.8-0.3-2.1-1.8-2.1
			c-1.3,0-1.9,1.2-2,2.1H206.1z"/>
		<path class="st4" d="M209.1,135.5h1.3v10.6h-1.3V135.5z"/>
		<path class="st4" d="M213.3,142.8c0,1.8,1.2,2.5,2.5,2.5c0.9,0,1.5-0.2,2-0.4l0.2,0.9c-0.5,0.2-1.3,0.4-2.4,0.4
			c-2.2,0-3.6-1.5-3.6-3.7s1.3-3.9,3.4-3.9c2.4,0,3,2.1,3,3.4c0,0.3,0,0.5,0,0.6H213.3z M217.2,141.8c0-0.8-0.3-2.1-1.8-2.1
			c-1.3,0-1.9,1.2-2,2.1H217.2z"/>
		<path class="st4" d="M220.1,140.8c0-0.8,0-1.4-0.1-2h1.2l0.1,1.2h0c0.4-0.7,1.1-1.3,2.3-1.3c1,0,1.7,0.6,2.1,1.5h0
			c0.2-0.4,0.5-0.7,0.8-0.9c0.4-0.3,0.9-0.5,1.6-0.5c1,0,2.4,0.6,2.4,3.1v4.3h-1.3V142c0-1.4-0.5-2.2-1.6-2.2
			c-0.8,0-1.3,0.6-1.6,1.2c-0.1,0.2-0.1,0.4-0.1,0.7v4.5h-1.3v-4.3c0-1.2-0.5-2-1.5-2c-0.8,0-1.4,0.7-1.6,1.3
			c-0.1,0.2-0.1,0.4-0.1,0.6v4.4h-1.3V140.8z"/>
		<path class="st4" d="M233.4,142.8c0,1.8,1.2,2.5,2.5,2.5c0.9,0,1.5-0.2,2-0.4l0.2,0.9c-0.5,0.2-1.3,0.4-2.4,0.4
			c-2.2,0-3.6-1.5-3.6-3.7s1.3-3.9,3.4-3.9c2.4,0,3,2.1,3,3.4c0,0.3,0,0.5,0,0.6H233.4z M237.2,141.8c0-0.8-0.3-2.1-1.8-2.1
			c-1.3,0-1.9,1.2-2,2.1H237.2z"/>
		<path class="st4" d="M240.1,140.8c0-0.8,0-1.4-0.1-2h1.2l0.1,1.2h0c0.4-0.7,1.2-1.4,2.4-1.4c1,0,2.6,0.6,2.6,3.1v4.3H245V142
			c0-1.2-0.4-2.1-1.7-2.1c-0.9,0-1.5,0.6-1.8,1.3c-0.1,0.2-0.1,0.4-0.1,0.6v4.4h-1.3V140.8z"/>
		<path class="st4" d="M250,136.8v2.1h1.9v1H250v3.9c0,0.9,0.3,1.4,1,1.4c0.3,0,0.6,0,0.8-0.1l0.1,1c-0.3,0.1-0.7,0.2-1.2,0.2
			c-0.6,0-1.1-0.2-1.4-0.6c-0.4-0.4-0.5-1-0.5-1.9v-4h-1.1v-1h1.1v-1.7L250,136.8z"/>
		<path class="st4" d="M259.8,142.5c0,2.7-1.9,3.9-3.6,3.9c-2,0-3.5-1.4-3.5-3.7c0-2.4,1.6-3.9,3.6-3.9
			C258.4,138.7,259.8,140.2,259.8,142.5z M254.1,142.5c0,1.6,0.9,2.8,2.2,2.8c1.3,0,2.2-1.2,2.2-2.8c0-1.2-0.6-2.8-2.2-2.8
			C254.8,139.7,254.1,141.1,254.1,142.5z"/>
		<path class="st4" d="M261.3,144.8c0.4,0.3,1.1,0.5,1.7,0.5c1,0,1.4-0.5,1.4-1.1c0-0.6-0.4-1-1.3-1.3c-1.3-0.5-1.9-1.2-1.9-2.1
			c0-1.2,0.9-2.1,2.5-2.1c0.7,0,1.4,0.2,1.8,0.5l-0.3,1c-0.3-0.2-0.8-0.4-1.5-0.4c-0.8,0-1.2,0.4-1.2,1c0,0.6,0.4,0.9,1.4,1.2
			c1.3,0.5,1.9,1.1,1.9,2.2c0,1.3-1,2.2-2.7,2.2c-0.8,0-1.5-0.2-2-0.5L261.3,144.8z"/>
		<path class="st4" d="M270.6,141.3c0-0.9,0-1.7-0.1-2.4h1.2l0.1,1.2h0c0.5-0.9,1.4-1.4,2.6-1.4c1.8,0,3.1,1.5,3.1,3.7
			c0,2.6-1.6,3.9-3.3,3.9c-1,0-1.8-0.4-2.2-1.1h0v3.9h-1.3V141.3z M271.9,143.2c0,0.2,0,0.4,0.1,0.5c0.2,0.9,1,1.5,2,1.5
			c1.4,0,2.2-1.1,2.2-2.8c0-1.5-0.8-2.7-2.2-2.7c-0.9,0-1.7,0.6-2,1.6c0,0.2-0.1,0.4-0.1,0.5V143.2z"/>
		<path class="st4" d="M283.2,146.1l-0.1-0.9h0c-0.4,0.6-1.2,1.1-2.2,1.1c-1.5,0-2.2-1-2.2-2.1c0-1.8,1.6-2.7,4.4-2.7v-0.2
			c0-0.6-0.2-1.7-1.6-1.7c-0.7,0-1.4,0.2-1.9,0.5l-0.3-0.9c0.6-0.4,1.5-0.6,2.4-0.6c2.2,0,2.8,1.5,2.8,3v2.7c0,0.6,0,1.2,0.1,1.7
			H283.2z M283,142.4c-1.4,0-3.1,0.2-3.1,1.6c0,0.9,0.6,1.3,1.2,1.3c0.9,0,1.5-0.6,1.8-1.2c0-0.1,0.1-0.3,0.1-0.4V142.4z"/>
		<path class="st4" d="M286.4,141.1c0-0.9,0-1.6-0.1-2.3h1.2l0,1.4h0.1c0.3-1,1.1-1.6,2-1.6c0.2,0,0.3,0,0.4,0v1.2
			c-0.1,0-0.3,0-0.5,0c-0.9,0-1.6,0.7-1.8,1.7c0,0.2-0.1,0.4-0.1,0.6v3.9h-1.3V141.1z"/>
		<path class="st4" d="M295.2,146.1l-0.1-0.9h0c-0.4,0.6-1.2,1.1-2.2,1.1c-1.5,0-2.2-1-2.2-2.1c0-1.8,1.6-2.7,4.4-2.7v-0.2
			c0-0.6-0.2-1.7-1.6-1.7c-0.7,0-1.4,0.2-1.9,0.5l-0.3-0.9c0.6-0.4,1.5-0.6,2.4-0.6c2.2,0,2.8,1.5,2.8,3v2.7c0,0.6,0,1.2,0.1,1.7
			H295.2z M295,142.4c-1.4,0-3.1,0.2-3.1,1.6c0,0.9,0.6,1.3,1.2,1.3c0.9,0,1.5-0.6,1.8-1.2c0-0.1,0.1-0.3,0.1-0.4V142.4z"/>
		<path class="st4" d="M303.1,136.8c0,0.5-0.3,0.8-0.8,0.8c-0.5,0-0.8-0.4-0.8-0.8c0-0.5,0.3-0.8,0.8-0.8
			C302.8,136,303.1,136.4,303.1,136.8z M301.6,146.1v-7.3h1.3v7.3H301.6z"/>
		<path class="st4" d="M305.1,140.8c0-0.8,0-1.4-0.1-2h1.2l0.1,1.2h0c0.4-0.7,1.2-1.4,2.4-1.4c1,0,2.6,0.6,2.6,3.1v4.3H310V142
			c0-1.2-0.4-2.1-1.7-2.1c-0.9,0-1.5,0.6-1.8,1.3c-0.1,0.2-0.1,0.4-0.1,0.6v4.4h-1.3V140.8z"/>
		<path class="st4" d="M314.9,136.8c0,0.5-0.3,0.8-0.8,0.8c-0.5,0-0.8-0.4-0.8-0.8c0-0.5,0.3-0.8,0.8-0.8
			C314.6,136,314.9,136.4,314.9,136.8z M313.5,146.1v-7.3h1.3v7.3H313.5z"/>
		<path class="st4" d="M322.1,145.9c-0.3,0.2-1.1,0.4-2.1,0.4c-2.2,0-3.6-1.5-3.6-3.7c0-2.2,1.5-3.9,3.9-3.9c0.8,0,1.5,0.2,1.8,0.4
			l-0.3,1c-0.3-0.2-0.8-0.3-1.5-0.3c-1.7,0-2.6,1.2-2.6,2.7c0,1.7,1.1,2.7,2.5,2.7c0.8,0,1.2-0.2,1.6-0.4L322.1,145.9z"/>
		<path class="st4" d="M325.2,136.8c0,0.5-0.3,0.8-0.8,0.8c-0.5,0-0.8-0.4-0.8-0.8c0-0.5,0.3-0.8,0.8-0.8
			C324.8,136,325.2,136.4,325.2,136.8z M323.7,146.1v-7.3h1.3v7.3H323.7z"/>
		<path class="st4" d="M331.2,146.1l-0.1-0.9h0c-0.4,0.6-1.2,1.1-2.2,1.1c-1.5,0-2.2-1-2.2-2.1c0-1.8,1.6-2.7,4.4-2.7v-0.2
			c0-0.6-0.2-1.7-1.6-1.7c-0.7,0-1.4,0.2-1.9,0.5l-0.3-0.9c0.6-0.4,1.5-0.6,2.4-0.6c2.2,0,2.8,1.5,2.8,3v2.7c0,0.6,0,1.2,0.1,1.7
			H331.2z M331,142.4c-1.4,0-3.1,0.2-3.1,1.6c0,0.9,0.6,1.3,1.2,1.3c0.9,0,1.5-0.6,1.8-1.2c0-0.1,0.1-0.3,0.1-0.4V142.4z"/>
		<path class="st4" d="M334.4,141.1c0-0.9,0-1.6-0.1-2.3h1.2l0,1.4h0.1c0.3-1,1.1-1.6,2-1.6c0.2,0,0.3,0,0.4,0v1.2
			c-0.1,0-0.3,0-0.5,0c-0.9,0-1.6,0.7-1.8,1.7c0,0.2-0.1,0.4-0.1,0.6v3.9h-1.3V141.1z"/>
		<path class="st4" d="M28,162.8c0.4,0.3,1.1,0.5,1.7,0.5c1,0,1.4-0.5,1.4-1.1c0-0.6-0.4-1-1.4-1.3c-1.3-0.5-1.9-1.2-1.9-2.1
			c0-1.2,0.9-2.1,2.5-2.1c0.7,0,1.4,0.2,1.8,0.5l-0.3,1c-0.3-0.2-0.8-0.4-1.5-0.4c-0.8,0-1.2,0.4-1.2,1c0,0.6,0.4,0.9,1.4,1.2
			c1.3,0.5,1.9,1.1,1.9,2.2c0,1.3-1,2.2-2.7,2.2c-0.8,0-1.5-0.2-2-0.5L28,162.8z"/>
		<path class="st4" d="M34.8,160.8c0,1.8,1.2,2.5,2.5,2.5c0.9,0,1.5-0.2,2-0.4l0.2,0.9c-0.5,0.2-1.3,0.4-2.4,0.4
			c-2.2,0-3.6-1.5-3.6-3.7s1.3-3.9,3.4-3.9c2.4,0,3,2.1,3,3.4c0,0.3,0,0.5,0,0.6H34.8z M38.7,159.8c0-0.8-0.3-2.1-1.8-2.1
			c-1.3,0-1.9,1.2-2,2.1H38.7z"/>
		<path class="st4" d="M41.4,162.8c0.4,0.3,1.1,0.5,1.7,0.5c1,0,1.4-0.5,1.4-1.1c0-0.6-0.4-1-1.3-1.3c-1.3-0.5-1.9-1.2-1.9-2.1
			c0-1.2,0.9-2.1,2.5-2.1c0.7,0,1.4,0.2,1.8,0.5l-0.3,1c-0.3-0.2-0.8-0.4-1.5-0.4c-0.8,0-1.2,0.4-1.2,1c0,0.6,0.4,0.9,1.4,1.2
			c1.3,0.5,1.9,1.1,1.9,2.2c0,1.3-1,2.2-2.7,2.2c-0.8,0-1.5-0.2-2-0.5L41.4,162.8z"/>
		<path class="st4" d="M49,154.8c0,0.5-0.3,0.8-0.8,0.8c-0.5,0-0.8-0.4-0.8-0.8c0-0.5,0.3-0.8,0.8-0.8C48.7,154,49,154.4,49,154.8z
			 M47.6,164.1v-7.3h1.3v7.3H47.6z"/>
		<path class="st4" d="M57.6,160.5c0,2.7-1.9,3.9-3.6,3.9c-2,0-3.5-1.4-3.5-3.7c0-2.4,1.6-3.9,3.6-3.9
			C56.2,156.7,57.6,158.2,57.6,160.5z M51.9,160.5c0,1.6,0.9,2.8,2.2,2.8c1.3,0,2.2-1.2,2.2-2.8c0-1.2-0.6-2.8-2.2-2.8
			C52.5,157.7,51.9,159.1,51.9,160.5z M56.1,153.7l-1.8,2.1h-0.9l1.3-2.1H56.1z"/>
		<path class="st4" d="M59.3,158.8c0-0.8,0-1.4-0.1-2h1.2l0.1,1.2h0c0.4-0.7,1.2-1.4,2.4-1.4c1,0,2.6,0.6,2.6,3.1v4.3h-1.3V160
			c0-1.2-0.4-2.1-1.7-2.1c-0.9,0-1.5,0.6-1.8,1.3c-0.1,0.2-0.1,0.4-0.1,0.6v4.4h-1.3V158.8z"/>
		<path class="st4" d="M71.5,160.8c0,1.8,1.2,2.5,2.5,2.5c0.9,0,1.5-0.2,2-0.4l0.2,0.9c-0.5,0.2-1.3,0.4-2.4,0.4
			c-2.2,0-3.6-1.5-3.6-3.7s1.3-3.9,3.4-3.9c2.4,0,3,2.1,3,3.4c0,0.3,0,0.5,0,0.6H71.5z M75.4,159.8c0-0.8-0.3-2.1-1.8-2.1
			c-1.3,0-1.9,1.2-2,2.1H75.4z"/>
		<path class="st4" d="M78.3,158.8c0-0.8,0-1.4-0.1-2h1.2l0.1,1.2h0c0.4-0.7,1.2-1.4,2.4-1.4c1,0,2.6,0.6,2.6,3.1v4.3h-1.3V160
			c0-1.2-0.4-2.1-1.7-2.1c-0.9,0-1.5,0.6-1.8,1.3c-0.1,0.2-0.1,0.4-0.1,0.6v4.4h-1.3V158.8z"/>
		<path class="st4" d="M95.9,162.2c0,0.8,0,1.4,0.1,2h-1.2l-0.1-1.2h0c-0.3,0.6-1.1,1.4-2.4,1.4c-1.1,0-2.5-0.6-2.5-3.2v-4.2h1.3v4
			c0,1.4,0.4,2.3,1.6,2.3c0.9,0,1.5-0.6,1.7-1.2c0.1-0.2,0.1-0.4,0.1-0.7v-4.5h1.3V162.2z"/>
		<path class="st4" d="M98.1,158.8c0-0.8,0-1.4-0.1-2h1.2l0.1,1.2h0c0.4-0.7,1.2-1.4,2.4-1.4c1,0,2.6,0.6,2.6,3.1v4.3h-1.3V160
			c0-1.2-0.4-2.1-1.7-2.1c-0.9,0-1.5,0.6-1.8,1.3c-0.1,0.2-0.1,0.4-0.1,0.6v4.4h-1.3V158.8z"/>
		<path class="st4" d="M109.4,162.8c0.4,0.3,1.1,0.5,1.7,0.5c1,0,1.4-0.5,1.4-1.1c0-0.6-0.4-1-1.3-1.3c-1.3-0.5-1.9-1.2-1.9-2.1
			c0-1.2,0.9-2.1,2.5-2.1c0.7,0,1.4,0.2,1.8,0.5l-0.3,1c-0.3-0.2-0.8-0.4-1.5-0.4c-0.8,0-1.2,0.4-1.2,1c0,0.6,0.4,0.9,1.4,1.2
			c1.3,0.5,1.9,1.1,1.9,2.2c0,1.3-1,2.2-2.7,2.2c-0.8,0-1.5-0.2-2-0.5L109.4,162.8z"/>
		<path class="st4" d="M117,154.8c0,0.5-0.3,0.8-0.8,0.8c-0.5,0-0.8-0.4-0.8-0.8c0-0.5,0.3-0.8,0.8-0.8
			C116.7,154,117,154.4,117,154.8z M115.5,164.1v-7.3h1.3v7.3H115.5z"/>
		<path class="st4" d="M120.6,154.8v2.1h1.9v1h-1.9v3.9c0,0.9,0.3,1.4,1,1.4c0.3,0,0.6,0,0.8-0.1l0.1,1c-0.3,0.1-0.7,0.2-1.2,0.2
			c-0.6,0-1.1-0.2-1.4-0.6c-0.4-0.4-0.5-1-0.5-1.9v-4h-1.1v-1h1.1v-1.7L120.6,154.8z"/>
		<path class="st4" d="M125.5,154.8c0,0.5-0.3,0.8-0.8,0.8c-0.5,0-0.8-0.4-0.8-0.8c0-0.5,0.3-0.8,0.8-0.8
			C125.2,154,125.5,154.4,125.5,154.8z M124,164.1v-7.3h1.3v7.3H124z"/>
		<path class="st4" d="M134.1,160.5c0,2.7-1.9,3.9-3.6,3.9c-2,0-3.5-1.4-3.5-3.7c0-2.4,1.6-3.9,3.6-3.9
			C132.7,156.7,134.1,158.2,134.1,160.5z M128.3,160.5c0,1.6,0.9,2.8,2.2,2.8c1.3,0,2.2-1.2,2.2-2.8c0-1.2-0.6-2.8-2.2-2.8
			C129,157.7,128.3,159.1,128.3,160.5z"/>
		<path class="st4" d="M141.8,153.7c-1.1,1.5-1.9,3.4-1.9,6.1c0,2.7,0.8,4.6,1.9,6.1h-1c-0.9-1.2-2-3.2-2-6.1c0-3,1-4.9,2-6.1H141.8
			z"/>
		<path class="st4" d="M143.9,160.8c0,1.8,1.2,2.5,2.5,2.5c0.9,0,1.5-0.2,2-0.4l0.2,0.9c-0.5,0.2-1.3,0.4-2.4,0.4
			c-2.2,0-3.6-1.5-3.6-3.7s1.3-3.9,3.4-3.9c2.4,0,3,2.1,3,3.4c0,0.3,0,0.5,0,0.6H143.9z M147.8,159.8c0-0.8-0.3-2.1-1.8-2.1
			c-1.3,0-1.9,1.2-2,2.1H147.8z"/>
		<path class="st4" d="M150.7,158.8c0-0.8,0-1.4-0.1-2h1.2l0.1,1.2h0c0.4-0.7,1.2-1.4,2.4-1.4c1,0,2.6,0.6,2.6,3.1v4.3h-1.3V160
			c0-1.2-0.4-2.1-1.7-2.1c-0.9,0-1.5,0.6-1.8,1.3c-0.1,0.2-0.1,0.4-0.1,0.6v4.4h-1.3V158.8z"/>
		<path class="st4" d="M162.2,153.5h1.3v10.6h-1.3V153.5z"/>
		<path class="st4" d="M171.8,162.2c0,0.8,0,1.4,0.1,2h-1.2l-0.1-1.2h0c-0.3,0.6-1.1,1.4-2.4,1.4c-1.1,0-2.5-0.6-2.5-3.2v-4.2h1.3v4
			c0,1.4,0.4,2.3,1.6,2.3c0.9,0,1.5-0.6,1.7-1.2c0.1-0.2,0.1-0.4,0.1-0.7v-4.5h1.3V162.2z"/>
		<path class="st4" d="M180.3,156.9c0,0.5-0.1,1.1-0.1,2v4.2c0,1.7-0.3,2.7-1,3.3c-0.7,0.7-1.7,0.9-2.6,0.9c-0.9,0-1.8-0.2-2.4-0.6
			l0.3-1c0.5,0.3,1.2,0.6,2.1,0.6c1.3,0,2.3-0.7,2.3-2.5v-0.8h0c-0.4,0.7-1.2,1.2-2.3,1.2c-1.8,0-3.1-1.5-3.1-3.5
			c0-2.5,1.6-3.9,3.3-3.9c1.3,0,2,0.7,2.3,1.3h0l0.1-1.1H180.3z M178.9,159.7c0-0.2,0-0.4-0.1-0.6c-0.2-0.8-0.9-1.4-1.8-1.4
			c-1.3,0-2.2,1.1-2.2,2.7c0,1.4,0.7,2.6,2.1,2.6c0.8,0,1.5-0.5,1.8-1.3c0.1-0.2,0.1-0.5,0.1-0.7V159.7z"/>
		<path class="st4" d="M186.4,164.1l-0.1-0.9h0c-0.4,0.6-1.2,1.1-2.2,1.1c-1.5,0-2.2-1-2.2-2.1c0-1.8,1.6-2.7,4.4-2.7v-0.2
			c0-0.6-0.2-1.7-1.6-1.7c-0.7,0-1.4,0.2-1.9,0.5l-0.3-0.9c0.6-0.4,1.5-0.6,2.4-0.6c2.2,0,2.8,1.5,2.8,3v2.7c0,0.6,0,1.2,0.1,1.7
			H186.4z M186.2,160.4c-1.4,0-3.1,0.2-3.1,1.6c0,0.9,0.6,1.3,1.2,1.3c0.9,0,1.5-0.6,1.8-1.2c0-0.1,0.1-0.3,0.1-0.4V160.4z"/>
		<path class="st4" d="M189.6,159.1c0-0.9,0-1.6-0.1-2.3h1.2l0,1.4h0.1c0.3-1,1.1-1.6,2-1.6c0.2,0,0.3,0,0.4,0v1.2
			c-0.1,0-0.3,0-0.5,0c-0.9,0-1.6,0.7-1.8,1.7c0,0.2-0.1,0.4-0.1,0.6v3.9h-1.3V159.1z"/>
		<path class="st4" d="M204,153.5v8.8c0,0.6,0,1.4,0.1,1.9h-1.2l-0.1-1.3h0c-0.4,0.8-1.3,1.4-2.5,1.4c-1.8,0-3.1-1.5-3.1-3.7
			c0-2.4,1.5-3.9,3.3-3.9c1.1,0,1.9,0.5,2.2,1.1h0v-4.3H204z M202.7,159.8c0-0.2,0-0.4-0.1-0.6c-0.2-0.8-0.9-1.5-1.9-1.5
			c-1.4,0-2.2,1.2-2.2,2.8c0,1.5,0.7,2.7,2.1,2.7c0.9,0,1.7-0.6,1.9-1.6c0-0.2,0.1-0.4,0.1-0.6V159.8z"/>
		<path class="st4" d="M206.9,160.8c0,1.8,1.2,2.5,2.5,2.5c0.9,0,1.5-0.2,2-0.4l0.2,0.9c-0.5,0.2-1.3,0.4-2.4,0.4
			c-2.2,0-3.6-1.5-3.6-3.7s1.3-3.9,3.4-3.9c2.4,0,3,2.1,3,3.4c0,0.3,0,0.5,0,0.6H206.9z M210.8,159.8c0-0.8-0.3-2.1-1.8-2.1
			c-1.3,0-1.9,1.2-2,2.1H210.8z"/>
		<path class="st4" d="M222.9,162.2c0,0.8,0,1.4,0.1,2h-1.2l-0.1-1.2h0c-0.3,0.6-1.1,1.4-2.4,1.4c-1.1,0-2.5-0.6-2.5-3.2v-4.2h1.3v4
			c0,1.4,0.4,2.3,1.6,2.3c0.9,0,1.5-0.6,1.7-1.2c0.1-0.2,0.1-0.4,0.1-0.7v-4.5h1.3V162.2z"/>
		<path class="st4" d="M225.1,158.8c0-0.8,0-1.4-0.1-2h1.2l0.1,1.2h0c0.4-0.7,1.2-1.4,2.4-1.4c1,0,2.6,0.6,2.6,3.1v4.3H230V160
			c0-1.2-0.4-2.1-1.7-2.1c-0.9,0-1.5,0.6-1.8,1.3c-0.1,0.2-0.1,0.4-0.1,0.6v4.4h-1.3V158.8z"/>
		<path class="st4" d="M240,160.5c0,2.7-1.9,3.9-3.6,3.9c-2,0-3.5-1.4-3.5-3.7c0-2.4,1.6-3.9,3.6-3.9
			C238.6,156.7,240,158.2,240,160.5z M234.3,160.5c0,1.6,0.9,2.8,2.2,2.8c1.3,0,2.2-1.2,2.2-2.8c0-1.2-0.6-2.8-2.2-2.8
			C234.9,157.7,234.3,159.1,234.3,160.5z"/>
		<path class="st4" d="M240.9,166c1.1-1.5,1.9-3.4,1.9-6.1c0-2.7-0.8-4.6-1.9-6.1h1c1,1.2,2,3.1,2,6.1c0,2.9-1,4.8-2,6.1H240.9z"/>
		<path class="st4" d="M245.1,166c0.3-0.9,0.7-2.5,0.9-3.6l1.5-0.2c-0.3,1.3-1,2.9-1.4,3.6L245.1,166z"/>
		<path class="st4" d="M252.7,156.9l1.6,4.3c0.2,0.5,0.3,1,0.5,1.5h0c0.1-0.4,0.3-1,0.5-1.5l1.4-4.3h1.4l-2,5.2
			c-0.9,2.5-1.6,3.8-2.5,4.5c-0.6,0.6-1.3,0.8-1.6,0.9l-0.3-1.1c0.3-0.1,0.8-0.3,1.2-0.6c0.4-0.3,0.8-0.8,1.1-1.5
			c0.1-0.1,0.1-0.2,0.1-0.3c0-0.1,0-0.2-0.1-0.3l-2.7-6.7H252.7z"/>
		<path class="st4" d="M268.7,153.5v8.8c0,0.6,0,1.4,0.1,1.9h-1.2l-0.1-1.3h0c-0.4,0.8-1.3,1.4-2.5,1.4c-1.8,0-3.1-1.5-3.1-3.7
			c0-2.4,1.5-3.9,3.3-3.9c1.1,0,1.9,0.5,2.2,1.1h0v-4.3H268.7z M267.4,159.8c0-0.2,0-0.4-0.1-0.6c-0.2-0.8-0.9-1.5-1.9-1.5
			c-1.4,0-2.2,1.2-2.2,2.8c0,1.5,0.7,2.7,2.1,2.7c0.9,0,1.7-0.6,1.9-1.6c0-0.2,0.1-0.4,0.1-0.6V159.8z"/>
		<path class="st4" d="M274.9,164.1l-0.1-0.9h0c-0.4,0.6-1.2,1.1-2.2,1.1c-1.5,0-2.2-1-2.2-2.1c0-1.8,1.6-2.7,4.4-2.7v-0.2
			c0-0.6-0.2-1.7-1.6-1.7c-0.7,0-1.4,0.2-1.9,0.5l-0.3-0.9c0.6-0.4,1.5-0.6,2.4-0.6c2.2,0,2.8,1.5,2.8,3v2.7c0,0.6,0,1.2,0.1,1.7
			H274.9z M274.7,160.4c-1.4,0-3.1,0.2-3.1,1.6c0,0.9,0.6,1.3,1.2,1.3c0.9,0,1.5-0.6,1.8-1.2c0-0.1,0.1-0.3,0.1-0.4V160.4z"/>
		<path class="st4" d="M284.4,153.5v8.8c0,0.6,0,1.4,0.1,1.9h-1.2l-0.1-1.3h0c-0.4,0.8-1.3,1.4-2.5,1.4c-1.8,0-3.1-1.5-3.1-3.7
			c0-2.4,1.5-3.9,3.3-3.9c1.1,0,1.9,0.5,2.2,1.1h0v-4.3H284.4z M283.1,159.8c0-0.2,0-0.4-0.1-0.6c-0.2-0.8-0.9-1.5-1.9-1.5
			c-1.4,0-2.2,1.2-2.2,2.8c0,1.5,0.7,2.7,2.1,2.7c0.9,0,1.7-0.6,1.9-1.6c0-0.2,0.1-0.4,0.1-0.6V159.8z"/>
		<path class="st4" d="M293.2,160.5c0,2.7-1.9,3.9-3.6,3.9c-2,0-3.5-1.4-3.5-3.7c0-2.4,1.6-3.9,3.6-3.9
			C291.7,156.7,293.2,158.2,293.2,160.5z M287.4,160.5c0,1.6,0.9,2.8,2.2,2.8c1.3,0,2.2-1.2,2.2-2.8c0-1.2-0.6-2.8-2.2-2.8
			C288.1,157.7,287.4,159.1,287.4,160.5z"/>
		<path class="st4" d="M302.9,163L302.9,163c-0.4,0.7-1.2,1.3-2.4,1.3c-1.7,0-3.1-1.5-3.1-3.7c0-2.7,1.8-3.9,3.3-3.9
			c1.1,0,1.9,0.6,2.2,1.3h0l0-1.1h1.2c0,0.6,0,1.2,0,2v8.2h-1.3V163z M302.9,159.8c0-0.2,0-0.4-0.1-0.6c-0.2-0.8-0.9-1.5-1.9-1.5
			c-1.4,0-2.2,1.2-2.2,2.8c0,1.4,0.7,2.7,2.1,2.7c0.9,0,1.6-0.5,1.9-1.4c0.1-0.2,0.1-0.4,0.1-0.6V159.8z"/>
		<path class="st4" d="M312.5,162.2c0,0.8,0,1.4,0.1,2h-1.2l-0.1-1.2h0c-0.3,0.6-1.1,1.4-2.4,1.4c-1.1,0-2.5-0.6-2.5-3.2v-4.2h1.3v4
			c0,1.4,0.4,2.3,1.6,2.3c0.9,0,1.5-0.6,1.7-1.2c0.1-0.2,0.1-0.4,0.1-0.7v-4.5h1.3V162.2z"/>
		<path class="st4" d="M315.4,160.8c0,1.8,1.2,2.5,2.5,2.5c0.9,0,1.5-0.2,2-0.4l0.2,0.9c-0.5,0.2-1.3,0.4-2.4,0.4
			c-2.2,0-3.6-1.5-3.6-3.7s1.3-3.9,3.4-3.9c2.4,0,3,2.1,3,3.4c0,0.3,0,0.5,0,0.6H315.4z M319.3,159.8c0-0.8-0.3-2.1-1.8-2.1
			c-1.3,0-1.9,1.2-2,2.1H319.3z"/>
		<path class="st4" d="M331.5,162.2c0,0.8,0,1.4,0.1,2h-1.2l-0.1-1.2h0c-0.3,0.6-1.1,1.4-2.4,1.4c-1.1,0-2.5-0.6-2.5-3.2v-4.2h1.3v4
			c0,1.4,0.4,2.3,1.6,2.3c0.9,0,1.5-0.6,1.7-1.2c0.1-0.2,0.1-0.4,0.1-0.7v-4.5h1.3V162.2z"/>
		<path class="st4" d="M333.7,158.8c0-0.8,0-1.4-0.1-2h1.2l0.1,1.2h0c0.4-0.7,1.2-1.4,2.4-1.4c1,0,2.6,0.6,2.6,3.1v4.3h-1.3V160
			c0-1.2-0.4-2.1-1.7-2.1c-0.9,0-1.5,0.6-1.8,1.3c-0.1,0.2-0.1,0.4-0.1,0.6v4.4h-1.3V158.8z"/>
		<path class="st4" d="M33.6,180.8c0.4,0.3,1.1,0.5,1.7,0.5c1,0,1.4-0.5,1.4-1.1c0-0.6-0.4-1-1.3-1.3c-1.3-0.5-1.9-1.2-1.9-2.1
			c0-1.2,0.9-2.1,2.5-2.1c0.7,0,1.4,0.2,1.8,0.5l-0.3,1c-0.3-0.2-0.8-0.4-1.5-0.4c-0.8,0-1.2,0.4-1.2,1c0,0.6,0.4,0.9,1.4,1.2
			c1.3,0.5,1.9,1.1,1.9,2.2c0,1.3-1,2.2-2.7,2.2c-0.8,0-1.5-0.2-2-0.5L33.6,180.8z"/>
		<path class="st4" d="M45.7,180.2c0,0.8,0,1.4,0.1,2h-1.2l-0.1-1.2h0c-0.3,0.6-1.1,1.4-2.4,1.4c-1.1,0-2.5-0.6-2.5-3.2v-4.2h1.3v4
			c0,1.4,0.4,2.3,1.6,2.3c0.9,0,1.5-0.6,1.7-1.2c0.1-0.2,0.1-0.4,0.1-0.7v-4.5h1.3V180.2z"/>
		<path class="st4" d="M47.9,177.3c0-0.9,0-1.7-0.1-2.4h1.2l0.1,1.2h0c0.5-0.9,1.4-1.4,2.6-1.4c1.8,0,3.1,1.5,3.1,3.7
			c0,2.6-1.6,3.9-3.3,3.9c-1,0-1.8-0.4-2.2-1.1h0v3.9h-1.3V177.3z M49.2,179.2c0,0.2,0,0.4,0.1,0.5c0.2,0.9,1,1.5,2,1.5
			c1.4,0,2.2-1.1,2.2-2.8c0-1.5-0.8-2.7-2.2-2.7c-0.9,0-1.7,0.6-2,1.6c0,0.2-0.1,0.4-0.1,0.5V179.2z"/>
		<path class="st4" d="M62.5,180.2c0,0.8,0,1.4,0.1,2h-1.2l-0.1-1.2h0c-0.3,0.6-1.1,1.4-2.4,1.4c-1.1,0-2.5-0.6-2.5-3.2v-4.2h1.3v4
			c0,1.4,0.4,2.3,1.6,2.3c0.9,0,1.5-0.6,1.7-1.2c0.1-0.2,0.1-0.4,0.1-0.7v-4.5h1.3V180.2z"/>
		<path class="st4" d="M65.5,178.8c0,1.8,1.2,2.5,2.5,2.5c0.9,0,1.5-0.2,2-0.4l0.2,0.9c-0.5,0.2-1.3,0.4-2.4,0.4
			c-2.2,0-3.6-1.5-3.6-3.7s1.3-3.9,3.4-3.9c2.4,0,3,2.1,3,3.4c0,0.3,0,0.5,0,0.6H65.5z M69.3,177.8c0-0.8-0.3-2.1-1.8-2.1
			c-1.3,0-1.9,1.2-2,2.1H69.3z"/>
		<path class="st4" d="M72.1,180.8c0.4,0.3,1.1,0.5,1.7,0.5c1,0,1.4-0.5,1.4-1.1c0-0.6-0.4-1-1.3-1.3c-1.3-0.5-1.9-1.2-1.9-2.1
			c0-1.2,0.9-2.1,2.5-2.1c0.7,0,1.4,0.2,1.8,0.5l-0.3,1c-0.3-0.2-0.8-0.4-1.5-0.4c-0.8,0-1.2,0.4-1.2,1c0,0.6,0.4,0.9,1.4,1.2
			c1.3,0.5,1.9,1.1,1.9,2.2c0,1.3-1,2.2-2.7,2.2c-0.8,0-1.5-0.2-2-0.5L72.1,180.8z"/>
		<path class="st4" d="M79.8,172.8v2.1h1.9v1h-1.9v3.9c0,0.9,0.3,1.4,1,1.4c0.3,0,0.6,0,0.8-0.1l0.1,1c-0.3,0.1-0.7,0.2-1.2,0.2
			c-0.6,0-1.1-0.2-1.4-0.6c-0.4-0.4-0.5-1-0.5-1.9v-4h-1.1v-1h1.1v-1.7L79.8,172.8z"/>
		<path class="st4" d="M89.6,178.5c0,2.7-1.9,3.9-3.6,3.9c-2,0-3.5-1.4-3.5-3.7c0-2.4,1.6-3.9,3.6-3.9
			C88.2,174.7,89.6,176.2,89.6,178.5z M83.9,178.5c0,1.6,0.9,2.8,2.2,2.8c1.3,0,2.2-1.2,2.2-2.8c0-1.2-0.6-2.8-2.2-2.8
			C84.6,175.7,83.9,177.1,83.9,178.5z"/>
		<path class="st4" d="M94.5,171.5h1.3v4.5h0c0.2-0.4,0.5-0.7,0.9-0.9c0.4-0.2,0.9-0.4,1.4-0.4c1,0,2.5,0.6,2.5,3.1v4.3h-1.3V178
			c0-1.2-0.4-2.2-1.7-2.2c-0.9,0-1.5,0.6-1.8,1.3c-0.1,0.2-0.1,0.4-0.1,0.6v4.4h-1.3V171.5z"/>
		<path class="st4" d="M106.8,182.1l-0.1-0.9h0c-0.4,0.6-1.2,1.1-2.2,1.1c-1.5,0-2.2-1-2.2-2.1c0-1.8,1.6-2.7,4.4-2.7v-0.2
			c0-0.6-0.2-1.7-1.6-1.7c-0.7,0-1.4,0.2-1.9,0.5l-0.3-0.9c0.6-0.4,1.5-0.6,2.4-0.6c2.2,0,2.8,1.5,2.8,3v2.7c0,0.6,0,1.2,0.1,1.7
			H106.8z M106.6,178.4c-1.4,0-3.1,0.2-3.1,1.6c0,0.9,0.6,1.3,1.2,1.3c0.9,0,1.5-0.6,1.8-1.2c0-0.1,0.1-0.3,0.1-0.4V178.4z"/>
		<path class="st4" d="M115.2,181.9c-0.3,0.2-1.1,0.4-2.1,0.4c-2.2,0-3.6-1.5-3.6-3.7c0-2.2,1.5-3.9,3.9-3.9c0.8,0,1.5,0.2,1.8,0.4
			l-0.3,1c-0.3-0.2-0.8-0.3-1.5-0.3c-1.7,0-2.6,1.2-2.6,2.7c0,1.7,1.1,2.7,2.5,2.7c0.8,0,1.2-0.2,1.6-0.4L115.2,181.9z"/>
		<path class="st4" d="M118.1,178.2L118.1,178.2c0.2-0.3,0.5-0.6,0.7-0.8l2.1-2.5h1.6l-2.8,3l3.2,4.3h-1.6l-2.5-3.5l-0.7,0.8v2.7
			h-1.3v-10.6h1.3V178.2z"/>
		<path class="st4" d="M124.5,178.8c0,1.8,1.2,2.5,2.5,2.5c0.9,0,1.5-0.2,2-0.4l0.2,0.9c-0.5,0.2-1.3,0.4-2.4,0.4
			c-2.2,0-3.6-1.5-3.6-3.7s1.3-3.9,3.4-3.9c2.4,0,3,2.1,3,3.4c0,0.3,0,0.5,0,0.6H124.5z M128.4,177.8c0-0.8-0.3-2.1-1.8-2.1
			c-1.3,0-1.9,1.2-2,2.1H128.4z"/>
		<path class="st4" d="M131.3,177.1c0-0.9,0-1.6-0.1-2.3h1.2l0,1.4h0.1c0.3-1,1.1-1.6,2-1.6c0.2,0,0.3,0,0.4,0v1.2
			c-0.1,0-0.3,0-0.5,0c-0.9,0-1.6,0.7-1.8,1.7c0,0.2-0.1,0.4-0.1,0.6v3.9h-1.3V177.1z"/>
		<path class="st4" d="M139.4,176.8c0-0.8,0-1.4-0.1-2h1.2l0.1,1.2h0c0.4-0.7,1.2-1.4,2.4-1.4c1,0,2.6,0.6,2.6,3.1v4.3h-1.3V178
			c0-1.2-0.4-2.1-1.7-2.1c-0.9,0-1.5,0.6-1.8,1.3c-0.1,0.2-0.1,0.4-0.1,0.6v4.4h-1.3V176.8z"/>
		<path class="st4" d="M154.3,178.5c0,2.7-1.9,3.9-3.6,3.9c-2,0-3.5-1.4-3.5-3.7c0-2.4,1.6-3.9,3.6-3.9
			C152.9,174.7,154.3,176.2,154.3,178.5z M148.5,178.5c0,1.6,0.9,2.8,2.2,2.8c1.3,0,2.2-1.2,2.2-2.8c0-1.2-0.6-2.8-2.2-2.8
			C149.2,175.7,148.5,177.1,148.5,178.5z"/>
		<path class="st4" d="M160.7,172.8v2.1h1.9v1h-1.9v3.9c0,0.9,0.3,1.4,1,1.4c0.3,0,0.6,0,0.8-0.1l0.1,1c-0.3,0.1-0.7,0.2-1.2,0.2
			c-0.6,0-1.1-0.2-1.4-0.6c-0.4-0.4-0.5-1-0.5-1.9v-4h-1.1v-1h1.1v-1.7L160.7,172.8z"/>
		<path class="st4" d="M165.6,172.8c0,0.5-0.3,0.8-0.8,0.8c-0.5,0-0.8-0.4-0.8-0.8c0-0.5,0.3-0.8,0.8-0.8
			C165.3,172,165.6,172.4,165.6,172.8z M164.1,182.1v-7.3h1.3v7.3H164.1z"/>
		<path class="st4" d="M168.3,178.8c0,1.8,1.2,2.5,2.5,2.5c0.9,0,1.5-0.2,2-0.4l0.2,0.9c-0.5,0.2-1.3,0.4-2.4,0.4
			c-2.2,0-3.6-1.5-3.6-3.7s1.3-3.9,3.4-3.9c2.4,0,3,2.1,3,3.4c0,0.3,0,0.5,0,0.6H168.3z M172.2,177.8c0-0.8-0.3-2.1-1.8-2.1
			c-1.3,0-1.9,1.2-2,2.1H172.2z"/>
		<path class="st4" d="M175.1,176.8c0-0.8,0-1.4-0.1-2h1.2l0.1,1.2h0c0.4-0.7,1.2-1.4,2.4-1.4c1,0,2.6,0.6,2.6,3.1v4.3H180V178
			c0-1.2-0.4-2.1-1.7-2.1c-0.9,0-1.5,0.6-1.8,1.3c-0.1,0.2-0.1,0.4-0.1,0.6v4.4h-1.3V176.8z"/>
		<path class="st4" d="M184.2,178.8c0,1.8,1.2,2.5,2.5,2.5c0.9,0,1.5-0.2,2-0.4l0.2,0.9c-0.5,0.2-1.3,0.4-2.4,0.4
			c-2.2,0-3.6-1.5-3.6-3.7s1.3-3.9,3.4-3.9c2.4,0,3,2.1,3,3.4c0,0.3,0,0.5,0,0.6H184.2z M188.1,177.8c0-0.8-0.3-2.1-1.8-2.1
			c-1.3,0-1.9,1.2-2,2.1H188.1z"/>
		<path class="st4" d="M198.2,182.1l-0.1-0.9h0c-0.4,0.6-1.2,1.1-2.2,1.1c-1.5,0-2.2-1-2.2-2.1c0-1.8,1.6-2.7,4.4-2.7v-0.2
			c0-0.6-0.2-1.7-1.6-1.7c-0.7,0-1.4,0.2-1.9,0.5l-0.3-0.9c0.6-0.4,1.5-0.6,2.4-0.6c2.2,0,2.8,1.5,2.8,3v2.7c0,0.6,0,1.2,0.1,1.7
			H198.2z M198,178.4c-1.4,0-3.1,0.2-3.1,1.6c0,0.9,0.6,1.3,1.2,1.3c0.9,0,1.5-0.6,1.8-1.2c0-0.1,0.1-0.3,0.1-0.4V178.4z"/>
		<path class="st4" d="M206.5,181.9c-0.3,0.2-1.1,0.4-2.1,0.4c-2.2,0-3.6-1.5-3.6-3.7c0-2.2,1.5-3.9,3.9-3.9c0.8,0,1.5,0.2,1.8,0.4
			l-0.3,1c-0.3-0.2-0.8-0.3-1.5-0.3c-1.7,0-2.6,1.2-2.6,2.7c0,1.7,1.1,2.7,2.5,2.7c0.8,0,1.2-0.2,1.6-0.4L206.5,181.9z"/>
		<path class="st4" d="M213.2,181.9c-0.3,0.2-1.1,0.4-2.1,0.4c-2.2,0-3.6-1.5-3.6-3.7c0-2.2,1.5-3.9,3.9-3.9c0.8,0,1.5,0.2,1.8,0.4
			l-0.3,1c-0.3-0.2-0.8-0.3-1.5-0.3c-1.7,0-2.6,1.2-2.6,2.7c0,1.7,1.1,2.7,2.5,2.7c0.8,0,1.2-0.2,1.6-0.4L213.2,181.9z"/>
		<path class="st4" d="M215.4,178.8c0,1.8,1.2,2.5,2.5,2.5c0.9,0,1.5-0.2,2-0.4l0.2,0.9c-0.5,0.2-1.3,0.4-2.4,0.4
			c-2.2,0-3.6-1.5-3.6-3.7s1.3-3.9,3.4-3.9c2.4,0,3,2.1,3,3.4c0,0.3,0,0.5,0,0.6H215.4z M219.2,177.8c0-0.8-0.3-2.1-1.8-2.1
			c-1.3,0-1.9,1.2-2,2.1H219.2z"/>
		<path class="st4" d="M222,180.8c0.4,0.3,1.1,0.5,1.7,0.5c1,0,1.4-0.5,1.4-1.1c0-0.6-0.4-1-1.3-1.3c-1.3-0.5-1.9-1.2-1.9-2.1
			c0-1.2,0.9-2.1,2.5-2.1c0.7,0,1.4,0.2,1.8,0.5l-0.3,1c-0.3-0.2-0.8-0.4-1.5-0.4c-0.8,0-1.2,0.4-1.2,1c0,0.6,0.4,0.9,1.4,1.2
			c1.3,0.5,1.9,1.1,1.9,2.2c0,1.3-1,2.2-2.7,2.2c-0.8,0-1.5-0.2-2-0.5L222,180.8z"/>
		<path class="st4" d="M234.7,178.5c0,2.7-1.9,3.9-3.6,3.9c-2,0-3.5-1.4-3.5-3.7c0-2.4,1.6-3.9,3.6-3.9
			C233.2,174.7,234.7,176.2,234.7,178.5z M228.9,178.5c0,1.6,0.9,2.8,2.2,2.8c1.3,0,2.2-1.2,2.2-2.8c0-1.2-0.6-2.8-2.2-2.8
			C229.6,175.7,228.9,177.1,228.9,178.5z"/>
		<path class="st4" d="M243.5,182.1l-0.1-0.9h0c-0.4,0.6-1.2,1.1-2.2,1.1c-1.5,0-2.2-1-2.2-2.1c0-1.8,1.6-2.7,4.4-2.7v-0.2
			c0-0.6-0.2-1.7-1.6-1.7c-0.7,0-1.4,0.2-1.9,0.5l-0.3-0.9c0.6-0.4,1.5-0.6,2.4-0.6c2.2,0,2.8,1.5,2.8,3v2.7c0,0.6,0,1.2,0.1,1.7
			H243.5z M243.3,178.4c-1.4,0-3.1,0.2-3.1,1.6c0,0.9,0.6,1.3,1.2,1.3c0.9,0,1.5-0.6,1.8-1.2c0-0.1,0.1-0.3,0.1-0.4V178.4z"/>
		<path class="st4" d="M249.7,180.8c0.4,0.3,1.1,0.5,1.7,0.5c1,0,1.4-0.5,1.4-1.1c0-0.6-0.4-1-1.3-1.3c-1.3-0.5-1.9-1.2-1.9-2.1
			c0-1.2,0.9-2.1,2.5-2.1c0.7,0,1.4,0.2,1.8,0.5l-0.3,1c-0.3-0.2-0.8-0.4-1.5-0.4c-0.8,0-1.2,0.4-1.2,1c0,0.6,0.4,0.9,1.4,1.2
			c1.3,0.5,1.9,1.1,1.9,2.2c0,1.3-1,2.2-2.7,2.2c-0.8,0-1.5-0.2-2-0.5L249.7,180.8z"/>
		<path class="st4" d="M261.9,180.2c0,0.8,0,1.4,0.1,2h-1.2l-0.1-1.2h0c-0.3,0.6-1.1,1.4-2.4,1.4c-1.1,0-2.5-0.6-2.5-3.2v-4.2h1.3v4
			c0,1.4,0.4,2.3,1.6,2.3c0.9,0,1.5-0.6,1.7-1.2c0.1-0.2,0.1-0.4,0.1-0.7v-4.5h1.3V180.2z"/>
		<path class="st4" d="M268.9,172.8v2.1h1.9v1h-1.9v3.9c0,0.9,0.3,1.4,1,1.4c0.3,0,0.6,0,0.8-0.1l0.1,1c-0.3,0.1-0.7,0.2-1.2,0.2
			c-0.6,0-1.1-0.2-1.4-0.6c-0.4-0.4-0.5-1-0.5-1.9v-4h-1.1v-1h1.1v-1.7L268.9,172.8z"/>
		<path class="st4" d="M272.9,178.8c0,1.8,1.2,2.5,2.5,2.5c0.9,0,1.5-0.2,2-0.4l0.2,0.9c-0.5,0.2-1.3,0.4-2.4,0.4
			c-2.2,0-3.6-1.5-3.6-3.7s1.3-3.9,3.4-3.9c2.4,0,3,2.1,3,3.4c0,0.3,0,0.5,0,0.6H272.9z M276.8,177.8c0-0.8-0.3-2.1-1.8-2.1
			c-1.3,0-1.9,1.2-2,2.1H276.8z"/>
		<path class="st4" d="M279.7,171.5h1.3v10.6h-1.3V171.5z"/>
		<path class="st4" d="M284,178.8c0,1.8,1.2,2.5,2.5,2.5c0.9,0,1.5-0.2,2-0.4l0.2,0.9c-0.5,0.2-1.3,0.4-2.4,0.4
			c-2.2,0-3.6-1.5-3.6-3.7s1.3-3.9,3.4-3.9c2.4,0,3,2.1,3,3.4c0,0.3,0,0.5,0,0.6H284z M287.8,177.8c0-0.8-0.3-2.1-1.8-2.1
			c-1.3,0-1.9,1.2-2,2.1H287.8z M288.1,171.7l-1.8,2.1h-0.9l1.3-2.1H288.1z"/>
		<path class="st4" d="M290.9,182.1v-6.3h-1v-1h1v-0.3c0-1,0.2-2,0.8-2.5c0.5-0.5,1.2-0.7,1.8-0.7c0.5,0,0.9,0.1,1.1,0.2l-0.2,1
			c-0.2-0.1-0.5-0.2-0.8-0.2c-1.1,0-1.4,1-1.4,2.1v0.4h1.8v1h-1.8v6.3H290.9z"/>
		<path class="st4" d="M301.5,178.5c0,2.7-1.9,3.9-3.6,3.9c-2,0-3.5-1.4-3.5-3.7c0-2.4,1.6-3.9,3.6-3.9
			C300.1,174.7,301.5,176.2,301.5,178.5z M295.7,178.5c0,1.6,0.9,2.8,2.2,2.8c1.3,0,2.2-1.2,2.2-2.8c0-1.2-0.6-2.8-2.2-2.8
			C296.4,175.7,295.7,177.1,295.7,178.5z"/>
		<path class="st4" d="M303.2,176.8c0-0.8,0-1.4-0.1-2h1.2l0.1,1.2h0c0.4-0.7,1.2-1.4,2.4-1.4c1,0,2.6,0.6,2.6,3.1v4.3H308V178
			c0-1.2-0.4-2.1-1.7-2.1c-0.9,0-1.5,0.6-1.8,1.3c-0.1,0.2-0.1,0.4-0.1,0.6v4.4h-1.3V176.8z"/>
		<path class="st4" d="M318.1,178.5c0,2.7-1.9,3.9-3.6,3.9c-2,0-3.5-1.4-3.5-3.7c0-2.4,1.6-3.9,3.6-3.9
			C316.6,174.7,318.1,176.2,318.1,178.5z M312.3,178.5c0,1.6,0.9,2.8,2.2,2.8c1.3,0,2.2-1.2,2.2-2.8c0-1.2-0.6-2.8-2.2-2.8
			C313,175.7,312.3,177.1,312.3,178.5z"/>
		<path class="st4" d="M318.5,184c0.3-0.9,0.7-2.5,0.9-3.6l1.5-0.2c-0.3,1.3-1,2.9-1.4,3.6L318.5,184z"/>
		<path class="st4" d="M325.6,171.5h1.3v10.6h-1.3V171.5z"/>
		<path class="st4" d="M333.2,182.1l-0.1-0.9h0c-0.4,0.6-1.2,1.1-2.2,1.1c-1.5,0-2.2-1-2.2-2.1c0-1.8,1.6-2.7,4.4-2.7v-0.2
			c0-0.6-0.2-1.7-1.6-1.7c-0.7,0-1.4,0.2-1.9,0.5l-0.3-0.9c0.6-0.4,1.5-0.6,2.4-0.6c2.2,0,2.8,1.5,2.8,3v2.7c0,0.6,0,1.2,0.1,1.7
			H333.2z M333,178.4c-1.4,0-3.1,0.2-3.1,1.6c0,0.9,0.6,1.3,1.2,1.3c0.9,0,1.5-0.6,1.8-1.2c0-0.1,0.1-0.3,0.1-0.4V178.4z"/>
		<path class="st4" d="M42.7,198.8c0.4,0.3,1.1,0.5,1.7,0.5c1,0,1.4-0.5,1.4-1.1c0-0.6-0.4-1-1.3-1.3c-1.3-0.5-1.9-1.2-1.9-2.1
			c0-1.2,0.9-2.1,2.5-2.1c0.7,0,1.4,0.2,1.8,0.5l-0.3,1c-0.3-0.2-0.8-0.4-1.5-0.4c-0.8,0-1.2,0.4-1.2,1c0,0.6,0.4,0.9,1.4,1.2
			c1.3,0.5,1.9,1.1,1.9,2.2c0,1.3-1,2.2-2.7,2.2c-0.8,0-1.5-0.2-2-0.5L42.7,198.8z"/>
		<path class="st4" d="M49.6,196.8c0,1.8,1.2,2.5,2.5,2.5c0.9,0,1.5-0.2,2-0.4l0.2,0.9c-0.5,0.2-1.3,0.4-2.4,0.4
			c-2.2,0-3.6-1.5-3.6-3.7s1.3-3.9,3.4-3.9c2.4,0,3,2.1,3,3.4c0,0.3,0,0.5,0,0.6H49.6z M53.4,195.8c0-0.8-0.3-2.1-1.8-2.1
			c-1.3,0-1.9,1.2-2,2.1H53.4z"/>
		<path class="st4" d="M62.6,192.9c0,0.5-0.1,1.1-0.1,2v4.2c0,1.7-0.3,2.7-1,3.3c-0.7,0.7-1.7,0.9-2.6,0.9c-0.9,0-1.8-0.2-2.4-0.6
			l0.3-1c0.5,0.3,1.2,0.6,2.1,0.6c1.3,0,2.3-0.7,2.3-2.5v-0.8h0c-0.4,0.7-1.2,1.2-2.3,1.2c-1.8,0-3.1-1.5-3.1-3.5
			c0-2.5,1.6-3.9,3.3-3.9c1.3,0,2,0.7,2.3,1.3h0l0.1-1.1H62.6z M61.2,195.7c0-0.2,0-0.4-0.1-0.6c-0.2-0.8-0.9-1.4-1.8-1.4
			c-1.3,0-2.2,1.1-2.2,2.7c0,1.4,0.7,2.6,2.1,2.6c0.8,0,1.5-0.5,1.8-1.3c0.1-0.2,0.1-0.5,0.1-0.7V195.7z"/>
		<path class="st4" d="M70.8,198.2c0,0.8,0,1.4,0.1,2h-1.2l-0.1-1.2h0c-0.3,0.6-1.1,1.4-2.4,1.4c-1.1,0-2.5-0.6-2.5-3.2v-4.2H66v4
			c0,1.4,0.4,2.3,1.6,2.3c0.9,0,1.5-0.6,1.7-1.2c0.1-0.2,0.1-0.4,0.1-0.7v-4.5h1.3V198.2z"/>
		<path class="st4" d="M73,195.1c0-0.9,0-1.6-0.1-2.3h1.2l0,1.4h0.1c0.3-1,1.1-1.6,2-1.6c0.2,0,0.3,0,0.4,0v1.2c-0.1,0-0.3,0-0.5,0
			c-0.9,0-1.6,0.7-1.8,1.7c0,0.2-0.1,0.4-0.1,0.6v3.9H73V195.1z"/>
		<path class="st4" d="M79.4,190.8c0,0.5-0.3,0.8-0.8,0.8c-0.5,0-0.8-0.4-0.8-0.8c0-0.5,0.3-0.8,0.8-0.8
			C79.1,190,79.4,190.4,79.4,190.8z M78,200.1v-7.3h1.3v7.3H78z"/>
		<path class="st4" d="M87.7,189.5v8.8c0,0.6,0,1.4,0.1,1.9h-1.2l-0.1-1.3h0c-0.4,0.8-1.3,1.4-2.5,1.4c-1.8,0-3.1-1.5-3.1-3.7
			c0-2.4,1.5-3.9,3.3-3.9c1.1,0,1.9,0.5,2.2,1.1h0v-4.3H87.7z M86.4,195.8c0-0.2,0-0.4-0.1-0.6c-0.2-0.8-0.9-1.5-1.9-1.5
			c-1.4,0-2.2,1.2-2.2,2.8c0,1.5,0.7,2.7,2.1,2.7c0.9,0,1.7-0.6,1.9-1.6c0-0.2,0.1-0.4,0.1-0.6V195.8z"/>
		<path class="st4" d="M94,200.1l-0.1-0.9h0c-0.4,0.6-1.2,1.1-2.2,1.1c-1.5,0-2.2-1-2.2-2.1c0-1.8,1.6-2.7,4.4-2.7v-0.2
			c0-0.6-0.2-1.7-1.6-1.7c-0.7,0-1.4,0.2-1.9,0.5l-0.3-0.9c0.6-0.4,1.5-0.6,2.4-0.6c2.2,0,2.8,1.5,2.8,3v2.7c0,0.6,0,1.2,0.1,1.7H94
			z M93.8,196.4c-1.4,0-3.1,0.2-3.1,1.6c0,0.9,0.6,1.3,1.2,1.3c0.9,0,1.5-0.6,1.8-1.2c0-0.1,0.1-0.3,0.1-0.4V196.4z"/>
		<path class="st4" d="M103.4,189.5v8.8c0,0.6,0,1.4,0.1,1.9h-1.2l-0.1-1.3h0c-0.4,0.8-1.3,1.4-2.5,1.4c-1.8,0-3.1-1.5-3.1-3.7
			c0-2.4,1.5-3.9,3.3-3.9c1.1,0,1.9,0.5,2.2,1.1h0v-4.3H103.4z M102.1,195.8c0-0.2,0-0.4-0.1-0.6c-0.2-0.8-0.9-1.5-1.9-1.5
			c-1.4,0-2.2,1.2-2.2,2.8c0,1.5,0.7,2.7,2.1,2.7c0.9,0,1.7-0.6,1.9-1.6c0-0.2,0.1-0.4,0.1-0.6V195.8z"/>
		<path class="st4" d="M108.8,189.5h1.3v4.5h0c0.2-0.4,0.5-0.7,0.9-0.9c0.4-0.2,0.9-0.4,1.4-0.4c1,0,2.5,0.6,2.5,3.1v4.3h-1.3V196
			c0-1.2-0.4-2.2-1.7-2.2c-0.9,0-1.5,0.6-1.8,1.3c-0.1,0.2-0.1,0.4-0.1,0.6v4.4h-1.3V189.5z"/>
		<path class="st4" d="M121.1,200.1l-0.1-0.9h0c-0.4,0.6-1.2,1.1-2.2,1.1c-1.5,0-2.2-1-2.2-2.1c0-1.8,1.6-2.7,4.4-2.7v-0.2
			c0-0.6-0.2-1.7-1.6-1.7c-0.7,0-1.4,0.2-1.9,0.5l-0.3-0.9c0.6-0.4,1.5-0.6,2.4-0.6c2.2,0,2.8,1.5,2.8,3v2.7c0,0.6,0,1.2,0.1,1.7
			H121.1z M120.9,196.4c-1.4,0-3.1,0.2-3.1,1.6c0,0.9,0.6,1.3,1.2,1.3c0.9,0,1.5-0.6,1.8-1.2c0-0.1,0.1-0.3,0.1-0.4V196.4z"/>
		<path class="st4" d="M131.6,200.1l-0.1-0.9h0c-0.4,0.6-1.2,1.1-2.2,1.1c-1.5,0-2.2-1-2.2-2.1c0-1.8,1.6-2.7,4.4-2.7v-0.2
			c0-0.6-0.2-1.7-1.6-1.7c-0.7,0-1.4,0.2-1.9,0.5l-0.3-0.9c0.6-0.4,1.5-0.6,2.4-0.6c2.2,0,2.8,1.5,2.8,3v2.7c0,0.6,0,1.2,0.1,1.7
			H131.6z M131.4,196.4c-1.4,0-3.1,0.2-3.1,1.6c0,0.9,0.6,1.3,1.2,1.3c0.9,0,1.5-0.6,1.8-1.2c0-0.1,0.1-0.3,0.1-0.4V196.4z"/>
		<path class="st4" d="M140.8,198.2c0,0.8,0,1.4,0.1,2h-1.2l-0.1-1.2h0c-0.3,0.6-1.1,1.4-2.4,1.4c-1.1,0-2.5-0.6-2.5-3.2v-4.2h1.3v4
			c0,1.4,0.4,2.3,1.6,2.3c0.9,0,1.5-0.6,1.7-1.2c0.1-0.2,0.1-0.4,0.1-0.7v-4.5h1.3V198.2z"/>
		<path class="st4" d="M143,194.8c0-0.8,0-1.4-0.1-2h1.2l0.1,1.2h0c0.4-0.7,1.1-1.3,2.3-1.3c1,0,1.7,0.6,2.1,1.5h0
			c0.2-0.4,0.5-0.7,0.8-0.9c0.4-0.3,0.9-0.5,1.6-0.5c1,0,2.4,0.6,2.4,3.1v4.3h-1.3V196c0-1.4-0.5-2.2-1.6-2.2
			c-0.8,0-1.3,0.6-1.6,1.2c-0.1,0.2-0.1,0.4-0.1,0.7v4.5h-1.3v-4.3c0-1.2-0.5-2-1.5-2c-0.8,0-1.4,0.7-1.6,1.3
			c-0.1,0.2-0.1,0.4-0.1,0.6v4.4H143V194.8z"/>
		<path class="st4" d="M156.3,196.8c0,1.8,1.2,2.5,2.5,2.5c0.9,0,1.5-0.2,2-0.4l0.2,0.9c-0.5,0.2-1.3,0.4-2.4,0.4
			c-2.2,0-3.6-1.5-3.6-3.7s1.3-3.9,3.4-3.9c2.4,0,3,2.1,3,3.4c0,0.3,0,0.5,0,0.6H156.3z M160.1,195.8c0-0.8-0.3-2.1-1.8-2.1
			c-1.3,0-1.9,1.2-2,2.1H160.1z"/>
		<path class="st4" d="M163.1,194.8c0-0.8,0-1.4-0.1-2h1.2l0.1,1.2h0c0.4-0.7,1.2-1.4,2.4-1.4c1,0,2.6,0.6,2.6,3.1v4.3h-1.3V196
			c0-1.2-0.4-2.1-1.7-2.1c-0.9,0-1.5,0.6-1.8,1.3c-0.1,0.2-0.1,0.4-0.1,0.6v4.4h-1.3V194.8z"/>
		<path class="st4" d="M172.9,190.8v2.1h1.9v1h-1.9v3.9c0,0.9,0.3,1.4,1,1.4c0.3,0,0.6,0,0.8-0.1l0.1,1c-0.3,0.1-0.7,0.2-1.2,0.2
			c-0.6,0-1.1-0.2-1.4-0.6c-0.4-0.4-0.5-1-0.5-1.9v-4h-1.1v-1h1.1v-1.7L172.9,190.8z"/>
		<path class="st4" d="M180.3,200.1l-0.1-0.9h0c-0.4,0.6-1.2,1.1-2.2,1.1c-1.5,0-2.2-1-2.2-2.1c0-1.8,1.6-2.7,4.4-2.7v-0.2
			c0-0.6-0.2-1.7-1.6-1.7c-0.7,0-1.4,0.2-1.9,0.5l-0.3-0.9c0.6-0.4,1.5-0.6,2.4-0.6c2.2,0,2.8,1.5,2.8,3v2.7c0,0.6,0,1.2,0.1,1.7
			H180.3z M180.1,196.4c-1.4,0-3.1,0.2-3.1,1.6c0,0.9,0.6,1.3,1.2,1.3c0.9,0,1.5-0.6,1.8-1.2c0-0.1,0.1-0.3,0.1-0.4V196.4z"/>
		<path class="st4" d="M189.8,189.5v8.8c0,0.6,0,1.4,0.1,1.9h-1.2l-0.1-1.3h0c-0.4,0.8-1.3,1.4-2.5,1.4c-1.8,0-3.1-1.5-3.1-3.7
			c0-2.4,1.5-3.9,3.3-3.9c1.1,0,1.9,0.5,2.2,1.1h0v-4.3H189.8z M188.5,195.8c0-0.2,0-0.4-0.1-0.6c-0.2-0.8-0.9-1.5-1.9-1.5
			c-1.4,0-2.2,1.2-2.2,2.8c0,1.5,0.7,2.7,2.1,2.7c0.9,0,1.7-0.6,1.9-1.6c0-0.2,0.1-0.4,0.1-0.6V195.8z"/>
		<path class="st4" d="M198.5,196.5c0,2.7-1.9,3.9-3.6,3.9c-2,0-3.5-1.4-3.5-3.7c0-2.4,1.6-3.9,3.6-3.9
			C197.1,192.7,198.5,194.2,198.5,196.5z M192.8,196.5c0,1.6,0.9,2.8,2.2,2.8c1.3,0,2.2-1.2,2.2-2.8c0-1.2-0.6-2.8-2.2-2.8
			C193.5,193.7,192.8,195.1,192.8,196.5z"/>
		<path class="st4" d="M208.6,199.9c-0.3,0.2-1.1,0.4-2.1,0.4c-2.2,0-3.6-1.5-3.6-3.7c0-2.2,1.5-3.9,3.9-3.9c0.8,0,1.5,0.2,1.8,0.4
			l-0.3,1c-0.3-0.2-0.8-0.3-1.5-0.3c-1.7,0-2.6,1.2-2.6,2.7c0,1.7,1.1,2.7,2.5,2.7c0.8,0,1.2-0.2,1.6-0.4L208.6,199.9z"/>
		<path class="st4" d="M216.6,196.5c0,2.7-1.9,3.9-3.6,3.9c-2,0-3.5-1.4-3.5-3.7c0-2.4,1.6-3.9,3.6-3.9
			C215.2,192.7,216.6,194.2,216.6,196.5z M210.8,196.5c0,1.6,0.9,2.8,2.2,2.8c1.3,0,2.2-1.2,2.2-2.8c0-1.2-0.6-2.8-2.2-2.8
			C211.5,193.7,210.8,195.1,210.8,196.5z"/>
		<path class="st4" d="M218.3,194.8c0-0.8,0-1.4-0.1-2h1.2l0.1,1.2h0c0.4-0.7,1.2-1.4,2.4-1.4c1,0,2.6,0.6,2.6,3.1v4.3h-1.3V196
			c0-1.2-0.4-2.1-1.7-2.1c-0.9,0-1.5,0.6-1.8,1.3c-0.1,0.2-0.1,0.4-0.1,0.6v4.4h-1.3V194.8z"/>
		<path class="st4" d="M226.4,198.8c0.4,0.3,1.1,0.5,1.7,0.5c1,0,1.4-0.5,1.4-1.1c0-0.6-0.4-1-1.3-1.3c-1.3-0.5-1.9-1.2-1.9-2.1
			c0-1.2,0.9-2.1,2.5-2.1c0.7,0,1.4,0.2,1.8,0.5l-0.3,1c-0.3-0.2-0.8-0.4-1.5-0.4c-0.8,0-1.2,0.4-1.2,1c0,0.6,0.4,0.9,1.4,1.2
			c1.3,0.5,1.9,1.1,1.9,2.2c0,1.3-1,2.2-2.7,2.2c-0.8,0-1.5-0.2-2-0.5L226.4,198.8z"/>
		<path class="st4" d="M234,190.8c0,0.5-0.3,0.8-0.8,0.8c-0.5,0-0.8-0.4-0.8-0.8c0-0.5,0.3-0.8,0.8-0.8
			C233.7,190,234,190.4,234,190.8z M232.5,200.1v-7.3h1.3v7.3H232.5z"/>
		<path class="st4" d="M242.3,189.5v8.8c0,0.6,0,1.4,0.1,1.9h-1.2l-0.1-1.3h0c-0.4,0.8-1.3,1.4-2.5,1.4c-1.8,0-3.1-1.5-3.1-3.7
			c0-2.4,1.5-3.9,3.3-3.9c1.1,0,1.9,0.5,2.2,1.1h0v-4.3H242.3z M241,195.8c0-0.2,0-0.4-0.1-0.6c-0.2-0.8-0.9-1.5-1.9-1.5
			c-1.4,0-2.2,1.2-2.2,2.8c0,1.5,0.7,2.7,2.1,2.7c0.9,0,1.7-0.6,1.9-1.6c0-0.2,0.1-0.4,0.1-0.6V195.8z"/>
		<path class="st4" d="M245.2,196.8c0,1.8,1.2,2.5,2.5,2.5c0.9,0,1.5-0.2,2-0.4l0.2,0.9c-0.5,0.2-1.3,0.4-2.4,0.4
			c-2.2,0-3.6-1.5-3.6-3.7s1.3-3.9,3.4-3.9c2.4,0,3,2.1,3,3.4c0,0.3,0,0.5,0,0.6H245.2z M249.1,195.8c0-0.8-0.3-2.1-1.8-2.1
			c-1.3,0-1.9,1.2-2,2.1H249.1z"/>
		<path class="st4" d="M252,195.1c0-0.9,0-1.6-0.1-2.3h1.2l0,1.4h0.1c0.3-1,1.1-1.6,2-1.6c0.2,0,0.3,0,0.4,0v1.2c-0.1,0-0.3,0-0.5,0
			c-0.9,0-1.6,0.7-1.8,1.7c0,0.2-0.1,0.4-0.1,0.6v3.9H252V195.1z"/>
		<path class="st4" d="M260.9,200.1l-0.1-0.9h0c-0.4,0.6-1.2,1.1-2.2,1.1c-1.5,0-2.2-1-2.2-2.1c0-1.8,1.6-2.7,4.4-2.7v-0.2
			c0-0.6-0.2-1.7-1.6-1.7c-0.7,0-1.4,0.2-1.9,0.5l-0.3-0.9c0.6-0.4,1.5-0.6,2.4-0.6c2.2,0,2.8,1.5,2.8,3v2.7c0,0.6,0,1.2,0.1,1.7
			H260.9z M260.7,196.4c-1.4,0-3.1,0.2-3.1,1.6c0,0.9,0.6,1.3,1.2,1.3c0.9,0,1.5-0.6,1.8-1.2c0-0.1,0.1-0.3,0.1-0.4V196.4z"/>
		<path class="st4" d="M264,200.1c0-0.5,0.1-1.2,0.1-1.9v-8.8h1.3v4.6h0c0.5-0.8,1.3-1.3,2.5-1.3c1.8,0,3.1,1.5,3.1,3.7
			c0,2.6-1.6,3.9-3.3,3.9c-1,0-1.9-0.4-2.4-1.4h0l-0.1,1.2H264z M265.4,197.2c0,0.2,0,0.3,0.1,0.5c0.3,0.9,1,1.5,2,1.5
			c1.4,0,2.2-1.1,2.2-2.8c0-1.5-0.8-2.7-2.2-2.7c-0.9,0-1.7,0.6-2,1.6c0,0.1-0.1,0.3-0.1,0.5V197.2z"/>
		<path class="st4" d="M272.6,189.5h1.3v10.6h-1.3V189.5z"/>
		<path class="st4" d="M276.9,196.8c0,1.8,1.2,2.5,2.5,2.5c0.9,0,1.5-0.2,2-0.4l0.2,0.9c-0.5,0.2-1.3,0.4-2.4,0.4
			c-2.2,0-3.6-1.5-3.6-3.7s1.3-3.9,3.4-3.9c2.4,0,3,2.1,3,3.4c0,0.3,0,0.5,0,0.6H276.9z M280.7,195.8c0-0.8-0.3-2.1-1.8-2.1
			c-1.3,0-1.9,1.2-2,2.1H280.7z"/>
		<path class="st4" d="M283.7,194.8c0-0.8,0-1.4-0.1-2h1.2l0.1,1.2h0c0.4-0.7,1.1-1.3,2.3-1.3c1,0,1.7,0.6,2.1,1.5h0
			c0.2-0.4,0.5-0.7,0.8-0.9c0.4-0.3,0.9-0.5,1.6-0.5c1,0,2.4,0.6,2.4,3.1v4.3h-1.3V196c0-1.4-0.5-2.2-1.6-2.2
			c-0.8,0-1.3,0.6-1.6,1.2c-0.1,0.2-0.1,0.4-0.1,0.7v4.5h-1.3v-4.3c0-1.2-0.5-2-1.5-2c-0.8,0-1.4,0.7-1.6,1.3
			c-0.1,0.2-0.1,0.4-0.1,0.6v4.4h-1.3V194.8z"/>
		<path class="st4" d="M296.9,196.8c0,1.8,1.2,2.5,2.5,2.5c0.9,0,1.5-0.2,2-0.4l0.2,0.9c-0.5,0.2-1.3,0.4-2.4,0.4
			c-2.2,0-3.6-1.5-3.6-3.7s1.3-3.9,3.4-3.9c2.4,0,3,2.1,3,3.4c0,0.3,0,0.5,0,0.6H296.9z M300.8,195.8c0-0.8-0.3-2.1-1.8-2.1
			c-1.3,0-1.9,1.2-2,2.1H300.8z"/>
		<path class="st4" d="M303.7,194.8c0-0.8,0-1.4-0.1-2h1.2l0.1,1.2h0c0.4-0.7,1.2-1.4,2.4-1.4c1,0,2.6,0.6,2.6,3.1v4.3h-1.3V196
			c0-1.2-0.4-2.1-1.7-2.1c-0.9,0-1.5,0.6-1.8,1.3c-0.1,0.2-0.1,0.4-0.1,0.6v4.4h-1.3V194.8z"/>
		<path class="st4" d="M313.5,190.8v2.1h1.9v1h-1.9v3.9c0,0.9,0.3,1.4,1,1.4c0.3,0,0.6,0,0.8-0.1l0.1,1c-0.3,0.1-0.7,0.2-1.2,0.2
			c-0.6,0-1.1-0.2-1.4-0.6c-0.4-0.4-0.5-1-0.5-1.9v-4h-1.1v-1h1.1v-1.7L313.5,190.8z"/>
		<path class="st4" d="M317.6,196.8c0,1.8,1.2,2.5,2.5,2.5c0.9,0,1.5-0.2,2-0.4l0.2,0.9c-0.5,0.2-1.3,0.4-2.4,0.4
			c-2.2,0-3.6-1.5-3.6-3.7s1.3-3.9,3.4-3.9c2.4,0,3,2.1,3,3.4c0,0.3,0,0.5,0,0.6H317.6z M321.4,195.8c0-0.8-0.3-2.1-1.8-2.1
			c-1.3,0-1.9,1.2-2,2.1H321.4z"/>
		<path class="st4" d="M323.8,199.4c0-0.6,0.4-0.9,0.9-0.9c0.5,0,0.9,0.4,0.9,0.9c0,0.5-0.3,0.9-0.9,0.9
			C324.2,200.3,323.8,199.9,323.8,199.4z"/>
	</g>
</g>
</svg>
